<?xml version="1.0" encoding="utf-8"?>
<!-- Generator: Adobe Illustrator 21.1.0, SVG Export Plug-In . SVG Version: 6.00 Build 0)  -->
<svg version="1.1" id="Layer_1" xmlns="http://www.w3.org/2000/svg" xmlns:xlink="http://www.w3.org/1999/xlink" x="0px" y="0px"
	 viewBox="0 0 286 453.3" style="enable-background:new 0 0 286 453.3;" xml:space="preserve">
<style type="text/css">
	.st0{fill:#1CCFC9;}
	.st1{font-family:'MyriadPro-Regular';}
	.st2{font-size:9px;}
	.st3{fill:#FFA400;}
	.st4{fill:#95D600;}
	.st5{fill:#E276F5;}
	.st6{fill:#23ABE2;}
	.st7{fill:#F74783;}
</style>
<g id="Teeth">
	<path d="M104.1,23.3c-0.3-0.2-0.5-0.4-0.7-0.7c-1-1.4-2.3-1.4-3.8-1.1c-6.5,1.2-11.9,4.8-17.1,8.5c-1.8,1.4-2.6,3.4-2.4,5.8
		c0.1,0.7,0.3,1.5,0.6,2.5c-2.6-2.1-5.4-2.3-8.4-2c-1.1,0.1-2,0-3,0c-2.3-0.1-4.5,0.3-5.6,2.5c-1.6,2.9-3.2,5.9-4,9
		c-1.6,6.9,0.5,12.9,7.7,15.4c1.8,0.6,3.4,1.6,5.1,2.4c-3-0.1-5.5-1.2-7.7-3.1c-1.8-1.6-3.8-2.3-6.1-2c-3.2,0.4-6.2,1.5-9,3.3
		c-2.6,1.6-3.9,4-4,7c-0.1,1.4-0.1,2.8,0,4.2c0.4,7.5,5.3,12.4,12.7,12.8c1.5,0.1,3.1-0.5,4.5-0.3c3.7,0.4,7.3-0.5,10.8-1.4
		c2.5-0.7,4.2-2.2,5-4.6c0.4-1,0.5-2,0.8-2.9c1.1-5-0.5-9.4-4.6-12.4c0.5,0.1,0.8,0.2,1.1,0.3c4.3,0.9,10.2-2.8,10.8-7.1
		c0.3-2.4,0.2-4.9-0.1-7.3c-0.2-2.4-0.9-4.8-1.4-7.2c1.2,0.6,2.5,1.3,3.7,1.9c1.8,0.6,3.8,0.9,5.7,1.2c2.3,0.3,4.6,0.5,6.8-0.7
		c3.9-2.1,6.3-5.1,6.9-9.6C109.1,32.3,109,27.1,104.1,23.3z M77.5,69.8c1.9,3.7,1.7,7.5,0.3,11.3c-0.9,2.1-2.3,3.5-4.6,4
		c-2.9,0.7-5.8,1.7-8.8,1.4c-0.2,0-0.6-0.1-0.9-0.1c0.2-0.1,0.5-0.1,0.7-0.1c-0.2,0-0.3-0.1-0.4-0.1c-0.4,0.1-0.7,0.1-1.1,0.1
		c-0.2,0-0.4,0-0.6,0c-0.1,0.1-0.2,0.1-0.3,0.2c-3.1,0.7-6,0.2-8.8-1.2c0,0-0.1,0-0.1-0.1c-0.1-0.1-0.2-0.1-0.3-0.1c0,0,0,0,0,0
		c-0.3-0.2-0.6-0.4-0.8-0.6c0,0,0,0.1-0.1,0.1c-1.8-1.3-3-3-3.8-5.1C46.6,76,46.2,72.5,47,69c0.2-1.4,1.1-2.9,2.1-3.8
		c2.9-2.6,6.6-3.8,10.6-4.1c0.2,0,0.4,0,0.5,0c1.4,0,2.5,0.5,3.3,1.3c0.1,0.1,0.1,0.1,0.2,0.2c2.6,2.4,5.6,3.6,9.1,4.1
		c0.6,0.1,1.1,0.4,1.7,0.6C76,67.7,77,68.5,77.5,69.8z M86.3,55.2c-0.1,1.5-0.1,2.6-0.3,3.7c-0.6,4.2-6,7.9-10.1,6.5
		c-3.6-1.2-7.2-2.7-10.6-4.4c-4.2-2.1-5.2-6.1-5-10.4c0.1-2.6,0.9-4.9,2.2-7.2c0.7-1.3,1.2-2.5,1.9-3.8c0.7-1.5,2-2.3,3.6-2.4
		c2.4-0.1,4.8-0.2,7.2-0.2c2.8,0.1,4.9,1.3,6.5,3.6c1.8,2.6,3.1,5.4,3.6,8.6C85.6,51.3,86,53.4,86.3,55.2z M107.8,33.8
		c-0.2,2.7-0.1,5.6-1.9,8c-2.9,4.4-6.6,6-11.7,4.9c-1.7-0.3-3.5-0.6-5.2-1.1c-2.4-0.7-4.4-2.2-5.7-4.4c-0.9-1.7-1.7-3.4-2.2-5.3
		c-0.5-2,0.2-3.8,1.7-5c5.3-4.1,10.7-7.7,17.5-8.8c0.8-0.1,1.6,0.4,2.3,0.7c0.4,0.2,0.7,0.7,1,1C106.8,26.5,108.2,29.7,107.8,33.8z"
		/>
	<path d="M268.4,295.6c0.1-4.4-0.3-8.8-0.8-13.2c-0.2-2.3-1.3-4.5-3-6.3c-2.1-2.1-4.5-3.9-7.3-5c-0.5-0.2-0.9-0.3-1.3-0.6
		c2.5-1.1,4.2-3,6-4.8c5.1-5.2,6.7-11.1,5-18.2c-2.3-9.5-8.7-12.8-16.7-13.6c-1.3-0.1-3,0.5-4.3,1.3c-2.1,1.3-4.2,2.9-6.2,4.4
		c-2.7,2.1-3.9,4.9-4,8.4c-0.1,2.7-0.1,5.7-0.9,8.4c-1.4,4.5,0.9,10.4,6.3,12.3c0.3,0,0.6,0.2,0.9,0.3c-1.4,0.9-2.7,2-4.1,2.8
		c-4.1,2.5-5.3,6.8-6.3,11.2c-0.2,0.5,0,1.2,0,1.9c0,2.2,0.3,4.4-0.3,6.4c-1.3,4.5-0.6,8.7,1.4,12.9c1.1,2.3,2.6,4,5.1,4.6
		c0.1,0.1,0.3,0.2,0.8,0.5c-1.4,0.1-2.5,0.2-3.6,0.4c-1.3,0.2-2.8,0.4-4.1,1c-3.1,1.6-5,4.4-6.8,7.3c-0.5,0.9-0.6,2-0.6,2.9
		c0.1,3.3-0.9,6.2-2.4,9.2c-1.6,3.1-2.7,6.5-1.3,9.9c1.4,3.4,3.6,6.5,6.9,8.5c0.3,0.2,0.6,0.4,1,0.7c-4.7,0.4-8.5,2.8-12,5.3
		c-1.8,1.2-3,3-2.9,5.3c0.1,3,0.2,6.1,0.5,9.1c0,1.1,0.9,2.1,1.4,3c0.1,0.4,0.5,0.8,0.9,1.2h-7.8c-2.1,0-3.9,0.8-5.6,2
		c-2.3,1.6-3.8,3.8-4.2,6.5c-0.8,4.5-1.2,8.9,1.5,13c-0.2,0-0.7-0.2-1.1,0c-3.2,0-6.4-0.4-9.5-0.3c-2,0-3.4,1.3-4.1,3.2
		c-0.8,2.8-1.9,5.5-2.7,8.3c-0.5,1.9-0.8,3.8-1.2,5.7c-1.5-1.7-3.1-3.4-4.5-5.3c-1.6-1.9-3.3-2.8-5.7-2.3c-2.3,0.4-3.2,2.2-3.9,4.3
		c-1.3,4.3-2.9,8.5-4.3,12.7c-0.1,0-0.2,0.1-0.4,0.1c-0.7-1.2-1.5-2.3-2.1-3.6c-0.8-1.6-1.4-3.2-2.2-4.7c-0.9-1.8-2.5-2.5-4.4-2.3
		c-1.6,0.1-3,0.6-4,1.9c-2.4,2.9-4.9,5.9-7.1,9c-3.1,4.5-0.6,9.9,4.9,10.6l9.6,0.9c3,0.2,6.8-1.6,7-5.7c0-0.5,0.2-1.1,0.3-1.9
		c4,4.2,8.7,5.4,14,3.5c5.9-2.2,6.3-7.5,6.7-12.7c0.3,0.3,0.5,0.6,0.8,0.9c2.2,3,5.2,4.4,9,4.1c1.1-0.1,2-0.2,3-0.3
		c4.9-0.6,7.6-3.2,8.2-8.1c0.2-2.1,0.1-4.2,0.4-6.2c0.3-2.1,0-4.2-0.8-6.2c-0.1-0.4-0.2-0.8-0.4-1.3c0.7,0.4,1.3,0.7,1.9,1
		c3,1.4,5.9,2.7,9.3,1.9c2.8-0.7,5.8-1.1,7.3-3.8c2.8-5.1,4.2-10.5,0.9-16c-0.8-1.6-1.9-2.9-3-4.6c4.3,1.1,8.2,0.6,12.3-0.4
		c4.6-1.1,7.4-4.2,8.6-8.4c1.3-4.6,0.6-9.2-2.8-13c-0.7-0.7-1.5-1.5-2.4-2.5c1.4,0.2,2.6,0.3,3.7,0.5c3.9,0.6,7.6,0,10.8-2.4
		c1.3-1,2.8-1.9,4.2-2.8c1.7-1,3-2.3,3.5-4.1c0.8-2.7,1.5-5.5,2.1-8.3c0.7-3.2,0.2-6.3-1.2-9.3c-1.1-2.2-2.1-4.5-3-6.8
		c-1-2.5-2.6-4.5-4.5-6.4c-0.5-0.6-1.2-1.1-1.6-1.4c3.5-1.9,7.1-3.6,10.4-5.8C265.4,303.8,268.3,300.3,268.4,295.6z M235.5,260.2
		c-0.1-1.1,0-2.2,0.3-3.2c0.7-3.2,1.2-6.3,1-9.5c-0.1-2.9,1-5.4,3.4-7.3c2-1.7,4.1-3.2,6.4-4.6c1.1-0.6,2.6-1.2,3.8-1
		c7.4,0.9,13.3,3.7,15.7,12.9c2.4,9.3-2.4,16-8.9,21c-0.8,0.6-2.1,0.6-3.1,0.9c0,0-0.1-0.2-0.1-0.3c-3.4-0.2-6.7-0.4-10.1-0.8
		C239,267.6,236.1,264.7,235.5,260.2z M163.3,425.4c-0.3,5-2.8,6.8-7.6,6.2c-2.7-0.4-5.4-0.5-8.1-0.7c-1.9-0.2-3.3-1-4.4-2.6
		c-1.6-2.4-1.1-4.8,0.3-6.8c2.1-3.1,4.4-6,6.8-8.8c2.4-2.9,5.7-2.3,7.4,1c0.6,1.4,1.1,2.7,1.8,4c0.6,1.2,1.3,2.5,2.2,3.4
		C163,422.4,163.4,423.7,163.3,425.4z M183.9,417.2c-0.5,2.2-0.8,4.6-1.7,6.6c-1.7,3.7-7,5.5-11.6,4.1c-3-0.9-5.6-2.6-6.8-5.7
		c-0.3-0.9-0.2-2.2,0.1-3.2c1.3-3.9,2.7-7.9,4.1-11.8c0.6-1.5,1.4-2.7,3.2-3c1.8-0.2,3.1,0.4,4.3,1.8c2.1,2.4,4.3,4.8,6.5,7.1
		c0.2,0.1,0.3,0.3,0.5,0.5c0.3,0.3,0.5,0.6,0.6,0.9c0.4,0.8,0.6,1.6,0.6,2.5c0-0.2,0.1-0.4,0.2-0.6
		C183.8,416.7,184,416.9,183.9,417.2z M205.5,404.4c0.2,2.5-0.1,5.1-0.3,7.6c-0.3,4.6-2.7,7.3-7.2,7.8c-1.1,0.1-2.3,0.2-3.5,0.3
		c-2.9,0.1-5.4-0.9-7.5-3.2c-1.6-1.8-3.2-3.8-4.6-5.8c-0.3-0.5-0.6-1.3-0.4-1.9c1.2-4.1,2.5-8.2,3.9-12.3c0.5-1.4,1.9-1.9,3.3-2.1
		c3.6-0.5,7.1-0.1,10.6,0.9C203.4,396.7,205.3,400.3,205.5,404.4z M222.2,379.9c0.7,0.7,1.2,1.7,1.7,2.6c2.9,5.3,1.5,10.3-1.2,15
		c-1.4,2.5-4.4,2.8-7,3.3c-2.8,0.6-5.3-0.4-7.7-1.5c-3.5-1.5-6.3-4-8.7-6.9c-0.4-0.5-0.4-1.3-0.5-2.1c-0.1-0.9,0.1-1.9-0.1-2.8
		c-0.6-2.7,0-5.2,0.9-7.7c1.1-2.9,4.8-5.6,7.9-5.8h3.6C216.4,372.7,219.3,376.6,222.2,379.9z M239.5,356.9c2.7,3.8,3.4,8,1.8,12.2
		c-1.3,3.5-3.6,6.2-7.6,7c-3,0.6-6.1,1.4-9.3,0.9c-1.9-0.2-3.8-0.6-5.2-1.9s-2.8-2.8-4.1-4.2c-1.4-1.5-1.2-3.5-1.1-5.8
		c-0.1-0.8-0.2-2-0.3-3.2c-0.2-2.5,0.2-4.8,2.4-6.4c3.3-2.4,6.7-4.8,10.9-5.1c1.5-0.1,3.2,0.2,4.6,0.8
		C234.7,352.3,237.5,354,239.5,356.9z M256,318.9c1.6,3,2.8,6.2,4.1,9.3c0.5,1.3,1,2.9,0.8,4.3c-0.6,3.8-1.4,7.5-2.3,11.1
		c-0.4,1.6-1.6,2.9-3.1,3.8c-1.2,0.7-2.3,1.4-3.3,2.2c-3.8,3.1-8.2,3.5-12.8,2.7c-4.6-0.9-8.5-2.9-12.5-5c-3.1-1.7-4.9-4.8-6.3-7.9
		c-1.3-3-0.2-6.2,1.2-9c1.7-3.1,2.8-6.3,2.6-9.8c-0.1-0.8,0.1-1.7,0.5-2.4c1.8-2.6,3.6-5.2,6.5-6.8c1.4-0.7,2.8-1.1,4.6-0.4
		c1.1,0.4,2.7,0.2,4-0.1c1.9-0.4,3.5-0.4,5,0.2c0.2,0,0.3,0,0.5,0c0.6,0,1,0.1,1.5,0.2c0.1,0,0.1,0,0.2,0.1c0.3,0,0.5,0.1,0.8,0.1
		c0,0,0,0,0,0c0.7,0.3,1.5,0.5,2.1,0.8C252.8,313.8,254.6,316.2,256,318.9z M252.7,310.2c-1.7,0.9-3.3,1-5.2,0.3
		c-1.8-0.7-3.7-0.8-5.6-1.3c-2-0.6-4-1.3-5.9-2.1c-0.7-0.3-1.3-1-1.6-1.7c-0.7-1.3-1.3-2.7-1.9-4.1c-1.1-3-1-6-0.3-9.1
		c0.5-2.4,0.3-5,0.4-7.5c0-0.6-0.2-1.3,0-1.9c0.9-2.5,1.9-4.8,2.8-7.2c2.1-2.9,5-4.9,8.7-5.9c0.1-0.1,0.2-0.1,0.3-0.1
		c7.5,0.1,14.6,1.3,20,7.3c1.5,1.8,2.3,3.8,2.6,6c0.4,3.8,0.8,7.8,0.8,11.7c0,4.6-2.8,8.1-6.3,10.6
		C258.8,307.2,255.7,308.6,252.7,310.2z"/>
	<path d="M271.6,192.6c-1.2-3.9-3.9-6.1-7.9-6.8c-1.5-0.2-3.1-0.2-3.9-0.3c1.2-1.5,2.7-3.3,4.3-5.1c1.4-1.6,2.2-3.3,2.5-5.4
		c0.3-3.2,0.3-6.3,0.9-9.5c1.1-6-1.5-10.9-5.9-15c-1.9-1.7-4.1-2.8-6.5-2.8c-2.5,0-5.1,0.3-7.5,0.5c0.5-0.3,1.2-0.8,1.9-1.3
		c4.9-3.4,8.8-7.6,10.1-13.9c0.9-4.9-0.1-9.5-1.5-14.1c-0.4-1.1-1.4-2.2-2.3-3c-2-1.5-4.1-2.8-6.2-4.1c-2.4-1.5-5.2-2-8.1-1.5
		c-0.8,0.2-1.6,0.3-2.7,0.6c0.9-0.8,1.7-1.3,2.3-2c2.3-2.5,5.2-4.7,5.6-8.6c0.5-4.4-0.1-8.3-4.1-10.8c-2.9-1.8-6-2.7-9.5-2.5
		c-6.1,0.3-11.1,2.7-15.6,6.6c-2.4,2-3.8,4.6-3.5,7.7c0.2,2,0.6,3.8,1.1,5.7c0.8,2.7,2.7,4.4,5.5,5.1c1.4,0.3,2.7,0.6,4,1
		c2.4,0.8,4.6,0.8,7,0c1.1-0.3,2.2-0.4,3.3-0.6c0.1,0.1,0.2,0.3,0.6,0.6c-4,1.5-6.4,4.9-9.1,7.9c-1.7,1.9-3.7,3.6-5.2,5.6
		c-3.5,4.7-3.1,8.8,0.9,13.1c2.3,2.4,4.4,4.9,6.4,7.6c2.5,3.2,5.3,5.7,9.9,6c-0.4,0.2-0.6,0.2-0.7,0.3c-4.7,2.4-7.8,6.4-10.4,10.8
		c-0.9,1.3-1.4,3.1-1.4,4.7c-0.1,4.3,1.6,8.2,3.6,11.8c2.4,4.3,6,6.8,10.9,7.3c1.1,0.1,2.3,0,3.5,0c-2.9,1.7-5.6,3.5-8.4,5
		c-4.8,2.6-5.8,6.9-5.6,11.7c0.2,3.5,1.7,6.7,3.2,9.8c1.3,2.7,3.3,4.8,6.1,5.7c2.6,0.8,5.3,1.4,8,1.9c6,1.2,11.8,0.2,17.1-2.9
		c2.8-1.6,4.5-3.7,5.2-6.8c0.3-1.3,0.8-2.5,1.3-3.7C273,203.6,273.4,198.2,271.6,192.6z M233.8,111.9c-2.1,0-4.2,1.1-6.2,0.8
		c-2.9-0.3-5.7-1.4-8.5-2.2c-0.6-0.3-1.2-0.9-1.6-1.4c-3.7-4.5-3-11.6,1.6-15.2c3.4-2.7,7-5,11.5-5.5c0.3,0,0.5,0,0.7,0
		c0.5-0.2,1-0.3,1.7-0.3c0.4,0,0.8,0,1.1,0.1c0,0,0,0,0,0c0.2,0,0.8-0.1,1.4,0c0.8,0.1,1.8,0.2,2.6,0.5c6.6,1.8,9.2,6.1,7.6,12.9
		c-0.3,0.9-0.8,1.9-1.4,2.7c-1.4,1.8-2.9,3.6-4.6,5.1C238.1,110.8,236.2,111.7,233.8,111.9z M237.5,152.3c-0.7,0-1.4-0.1-1.9-0.4
		c-0.5-0.1-1-0.3-1.5-0.5c-0.1,0-0.1,0-0.2-0.1c-1.4-1.2-3-2.3-4.3-3.7c-2.5-2.8-4.6-5.8-7.1-8.5c-3.8-4.1-4.3-7.8-0.8-12.2
		c2-2.4,4.2-4.5,6.3-6.8c0,0,0,0.1,0,0.1c0.4-0.4,0.8-0.7,1.3-0.9c0.2-0.3,0.5-0.5,0.7-0.7c0.2-0.2,0.4-0.4,0.6-0.6
		c1.1-1.5,2.5-2.6,4.1-3.4c0.2-0.2,0.5-0.4,0.8-0.5c0.3-0.2,0.7-0.4,1.1-0.6c0.5-0.5,1.1-0.8,1.8-1c3.5-1.6,6.9-1.7,10.4,0
		c2.4,1.3,4.6,2.8,6.7,4.4c0.8,0.7,1.6,1.7,1.9,2.7c1.3,4.5,2.3,9,1.3,13.7c-1.2,5.3-4.5,9.2-8.9,12.3c-0.5,0.5-1.1,0.9-1.9,1.1
		c-0.3,0.4-0.7,0.7-1.1,0.9c-0.6,0.5-1.2,0.8-2,1.2c-1.1,0.4-2.1,1.4-3.1,2.1c-1.1,0.7-1.9,1.1-2.7,1.2
		C238.6,152.2,238.1,152.3,237.5,152.3z M240.5,187.4c-4.3-0.1-7.6-2.5-9.9-6.1c-2-3.3-3.3-6.8-3.9-10.6c-0.3-2.1,0.1-3.9,1.2-5.8
		c5.2-8.9,13.4-13.5,22.9-15.9c4.9-1.3,9.2,0.5,12.4,4.6c2.4,3.1,3.7,6.5,4,10.5c-0.4,1.3-0.9,2.7-1.1,4.2c-0.2,0.4-0.3,0.9-0.3,1.4
		c0,1.3,0.1,2.5,0.1,3.8c0,2.9-1.1,5.4-3.3,7.3c-1.1,1-1.9,2.2-3,3.1c-2.1,1.7-4.5,2.8-7.2,3C248.4,187.1,244.5,187.5,240.5,187.4z
		 M269.3,210c-0.4,0.7-0.4,1.7-0.7,2.5c-0.2,0.7-0.4,1.4-0.6,2.1c0,0-0.1-0.1-0.1-0.1c-0.1,0.1-0.1,0.3-0.2,0.4
		c-0.4,0.7-1,1.3-1.8,1.7c-0.3,0.3-0.6,0.6-1,0.8c-0.3,0.3-0.5,0.5-0.9,0.7c0,0,0,0,0,0c-3.1,1.8-6.4,3.5-10.2,3.6
		c-4.4,0.1-8.7-0.5-12.8-1.7c-3.4-0.9-5.9-2.9-7.4-6.3c-1.6-3.4-3.2-6.8-3-10.7c0.1-3.9,1.5-7.2,5.2-9.1c3.5-1.8,6.5-4.5,10.6-5.2
		c4.4-0.8,8.6-1.7,12.8-2.2c2-0.2,4.1,0.2,6.1,0.3c0,0,0,0.1,0,0.1c1.3,0.3,2.2,1,2.8,2c0.3,0.3,0.6,0.5,0.9,0.8
		c1.8,2.1,2.4,4.7,2.7,7.3C272.1,201.6,271.5,205.9,269.3,210z"/>
	<path d="M235.9,69.2c-0.3-1.5-1.1-3.4-2.3-4.3c-4.5-3.5-9.5-5.9-15.5-3.5c-2.3,2.6-5.1,3.9-8.6,4.1c2.9-1.4,5.7-2.7,8.6-4.1
		c0.1,0,0-0.1,0.3-0.4c4-3.2,4.7-7.5,4.1-12.2c-0.4-4-2.5-7.2-4.4-10.6c-0.7-1.3-2.1-1.9-3.5-2.1c-1.4-0.1-2.8,0.1-4.2-0.1
		c-3.2-0.4-6.2-0.4-9.1,1.9c0-0.5,0-0.6,0.1-0.8c1.1-3.2,0.3-5.8-2.4-7.8c-1.5-1.1-3.1-2-4.5-3c-3.7-2.7-7.8-4.3-12.3-5.3
		c-1.4-0.3-2.6-0.1-3.6,1.1c-0.7,0.8-1.4,1.4-2.2,2.2c-1.9,1.9-3.1,3.9-3,6.5c0.1,2.6,0.1,5.3,0.4,7.9c0.3,3.7,5,8.6,9.1,8.9
		c4.6,0.3,9-0.5,13.1-2.7c0.1-0.1,0.4-0.2,0.8-0.4c-0.1,0.7-0.3,1.2-0.4,1.7c-0.5,3.6-1.2,7.1-1.5,10.6c-0.2,2.3,0.3,4.8,2.3,6.4
		c2.8,2.2,5.8,4.4,9.4,3c-0.9,0.9-2.3,1.8-3,3.2c-2.2,3.9-1.9,8.1-0.3,12.2c0.8,1.9,2.1,3.4,4.1,4c2.3,0.7,4.5,1.3,6.9,1.6
		c2.8,0.4,5.5,0.4,8.3,0.5c5.6,0.2,10.3-2.8,12.3-7.7C236.3,76.5,236.5,72.8,235.9,69.2z M194.6,44.7c-1.2,0.6-2.6,0.8-3.9,1.1
		c-1.8,0.4-3.5,0.8-5.3,1.1c-3.5,0.5-6.2-1.1-8.4-3.6c-2.4-2.6-2.7-5-2.9-10.7c-0.8-3.9,2.3-7.1,5.6-10.3c0.4-0.4,1.3-0.5,1.9-0.3
		c3.5,0.8,7,1.6,10,3.7c2,1.4,4.1,2.6,6.1,3.9c2.5,1.6,4,4.5,2.6,7.9C199.1,40.5,197.6,43.3,194.6,44.7z M198.1,62.8
		c-1.3-1.1-2-2.5-2.1-4.1c-0.3-6.5,0.6-12.6,4.4-18.1c2-2.8,4.6-3.8,7.9-3.6c1.5,0.1,3,0.2,4.5,0.1c2.3,0,4.2,0.8,5.2,3
		c1.6,3.6,3.9,6.9,3.7,10.1c0.1,6.6-2.1,9.8-7.3,11.7c-1.6,0.7-3.2,1.5-4.8,2.3C205.4,66.3,201.6,65.8,198.1,62.8z M233.8,80.2
		c-0.6,1.6-1.5,2.9-3.1,4.1c-0.3,0.3-0.7,0.6-1.2,0.9c0,0,0,0,0,0.1c-3,1.7-6.1,2.2-9.5,1.4c0,0,0,0,0-0.1c-0.2,0-0.5-0.1-0.7-0.2
		c-0.1,0-0.3,0-0.4,0c-0.2,0-0.3,0-0.5,0c-0.1,0-0.2,0-0.3,0c0.1,0,0.1,0,0.2,0c-1.4,0-2.7,0.3-4.1,0c-2.1-0.4-4.3-0.8-6.3-1.6
		c-1.1-0.4-2.3-1.3-2.9-2.3c-2.5-4.2-2.7-8.7-0.3-13.1c0.3-0.6,1.1-1.2,1.8-1.7c0.1-0.1,0.2-0.1,0.3-0.2c0.1-0.1,0.2-0.1,0.2-0.2
		c0,0,0,0,0,0c0.3-0.2,0.6-0.4,1-0.5c0,0,0,0,0-0.1c0.1,0,0.2,0,0.3,0c0.4-0.1,0.8-0.2,1.3-0.2c0.1,0,0.3,0,0.4,0
		c3-0.4,5.7-1.8,8.3-3.8c0.3-0.4,0.7-0.7,1.1-0.9c0.1-0.1,0.3-0.2,0.4-0.4c0,0.1,0,0.1,0,0.2c0.6-0.2,1.2-0.4,2-0.4c0,0,0.1,0,0.1,0
		c0,0,0,0,0,0c0.1,0,0.1,0,0.2,0c0.2,0,0.3,0,0.5,0c0.1,0,0.2,0,0.3,0c3.8,0.3,7.3,1.7,10.3,4.3c0.9,0.7,1.4,2,1.7,3.1
		C235.7,72.8,235.4,76.6,233.8,80.2z"/>
	<path d="M146.8,29.1c1.3,2,2.4,3.8,3.7,5.7c0.5,0.8,1.1,1.6,1.9,2.4c3.6,3.6,9.9,4.4,13.8,1.9c2-1.2,3.2-3.1,4.1-5.1
		c1-2.2,1.7-4.4,2.9-6.3c1.6-2.9,2.3-6,1.9-9.5c-0.2-2.5-1.1-3.8-3.5-4.6c-2.1-0.6-4.3-1-6.3-1.6c-5.9-1.8-11.7-2.2-17.7-0.4
		c-3.2,0.9-5.8,2.3-6.6,5.8c-1.1-2.8-2.3-4.4-4.2-5.1c-3.9-1.2-7.9-2.5-12-1.9c-5,0.8-10,2.1-15,3.4c-0.9,0.3-2.1,1.3-2.4,2.2
		c-0.9,2.8-1.3,5.7-0.1,8.5c1.5,3.5,3.2,6.8,4.8,10.3c1.5,3.2,4.1,5.4,7.5,5.7c4.1,0.3,8.4-0.8,10.9-4.6c3.8-5.7,8.5-11,10.4-17.8
		c0.8,2,1.5,3.9,2.4,5.7C144.4,25.6,145.6,27.3,146.8,29.1z M139.3,19.7c-1,2.3-2.2,4.7-3.6,6.9c-1.6,2.6-3.5,5.2-5.1,7.8
		c-2.5,4-6.4,5.5-10.8,5.3c-2.9-0.1-5.1-2-6.5-4.6c-1.8-3.8-3.9-7.5-5.2-11.5c-0.7-2.2-0.1-4.9,0.2-7.3c0.1-0.6,0.9-1.3,1.6-1.6
		c5.2-1.7,10.5-2.9,16.8-3.7c2.8,0.6,6.3,1.2,9.6,2.2C139.1,14,140.5,17,139.3,19.7z M146.2,13.1c6.2-2.1,12.3-2.1,18.5-0.2
		c1.9,0.6,4.1,0.9,6,1.5c2.8,0.8,3.5,1.8,3.5,4.8v1.4c0.4,1.7-0.3,3.4-1.1,5.2c-1.4,2.8-2.6,5.6-3.9,8.4c-1.4,3.1-3.6,5.3-6.8,5.6
		c-3.3,0.3-6.6-0.5-9.1-2.9c-0.7-0.7-1.5-1.7-2.1-2.6c-1.9-2.9-3.8-5.8-5.7-8.8c-1.1-1.8-2-3.6-2.8-5.5
		C141.3,16.9,142.9,14.2,146.2,13.1z"/>
	<path d="M139.6,421.3c-2.3-3.5-5-6.9-7.9-10c-2.4-2.7-6.4-1.7-8,1.4c-0.7,1.5-1.3,3.1-2.1,4.6c-0.5,1.1-1.2,2.1-1.9,3.1
		c-0.1,0-0.2-0.1-0.4-0.1c-1.5-4.4-3-8.9-4.5-13.4c-1.1-3.2-4-4.5-6.9-3.1c-0.8,0.5-1.5,1.1-2.2,1.9c-1.6,1.9-3.1,3.7-4.6,5.6
		c-0.3-1.6-0.3-2.9-0.6-4.1c-0.9-3.2-2.1-6.4-3.1-9.7c-0.7-2-2-3.2-3.9-3.5c-1.9-0.3-3.7-0.3-5.6-0.2c-1.8,0.1-3.6,0.4-5.4,0.7
		c2.2-1.6,1.9-4,1.9-6.2c0-0.5,0.1-0.9,0.2-1.4c0.5-4.8-1-10-5.9-12.7c-1.1-0.6-2.3-1-3.5-1.1c-2.8-0.2-5.6-0.1-9-0.1
		c3.2-2.2,3.1-5.1,3-8.1c-0.1-0.8,0-1.6,0.2-2.4c0.7-3.9-0.6-7-4.1-9.1c-3.3-2-6.6-4.1-10.7-4.4c1.1-0.9,2.2-1.5,3-2.3
		c2.8-3,5.8-6.1,5.2-10.7c-0.2-2.3-1.1-4.6-2-6.7c-1.3-2.6-2.3-5.2-2.1-8.2c0.2-2.1-0.6-3.9-2-5.5c-1.1-1-2-2.2-3-3.2
		c-1.9-1.8-4-3-6.7-2.8c-1.1,0-2.2-0.2-3.3-0.3c0.4-0.5,0.9-0.5,1.2-0.8c1.1-0.8,2.6-1.5,3.3-2.6c2.7-4.4,4.1-9.2,2.4-14.5
		c-0.6-1.7-0.7-3.9-0.4-5.8c0.3-2.3,0-4.4-0.9-6.4c-0.6-1.4-1.2-2.8-1.6-3.9l-0.2-1c-2.6-1.9-5.1-3.7-7.5-5.5c0-0.1,0.1-0.2,0.3-0.2
		c5.8-1.7,8.3-7.9,6.8-12.6c-0.8-2.6-0.9-5.5-0.9-8.2c0-4-1.5-7-4.7-9.2c-1.6-1.1-3.3-2.3-4.9-3.5c-1.4-1.1-3-1.9-4.8-1.6
		c-2.7,0.5-5.5,1-7.9,2.1c-4.4,2.1-7,5.8-8.4,10.5c-1.7,6-1.3,11.5,2.4,16.6c1.6,2.2,3.4,3.9,5.3,5.7c0.9,0.7,2,1.2,2.9,1.9
		c-0.9,0.4-2,0.9-3,1.4c-4.8,2.6-8.1,6.3-8.7,12c-0.4,3.2-0.5,6.3-0.7,9.5c-0.2,5.7,2.5,9.9,7.1,12.9c3.3,2.1,6.8,3.8,10.3,5.7
		c-4.1,2.8-6,7.1-7.8,11.6c-0.5,1.4-1.3,2.5-1.6,3.9c-0.5,1.8-1.2,3.9-1.1,5.8c0.1,2.9,0.7,5.8,1.4,8.6c0.7,3,2.4,5.6,5.3,7.1
		c1.2,0.7,2.4,1.6,3.5,2.4c3,2.2,6.5,2.8,10.1,2.3c1.3-0.2,2.5-0.3,3.7-0.5c0.1,0.2,0.1,0.3,0.1,0.3c-0.3,0.3-0.5,0.5-0.8,0.8
		c-3.6,3.3-5,7.5-4.5,12.2s2.9,8.3,7.2,10c3.4,1.3,7,2.3,10.8,1.6c1.1-0.1,2.2-0.2,3.3-0.3c0,0.1,0,0.2,0,0.2
		c-0.1,0-0.2,0.2-0.3,0.3c-4.4,4.7-5.8,10-3.6,16.3c0.7,2.1,1.5,4.2,3.5,5.4c3.5,2,7.3,2.9,11.3,1.5c1.7-0.6,3.5-1.4,5.2-2.2
		c-0.4,1.5-1.2,3-1.2,4.6c-0.1,3.1,0.2,6.3,0.5,9.3c0.5,4.2,2.8,6.6,6.9,7.4c1.5,0.3,3.1,0.4,4.7,0.5c3.2,0.2,5.8-1.1,7.9-3.5
		c0.4-0.5,0.8-1,1.1-1.3c0.5,2.5,0.9,4.8,1.6,7.2c0.7,2.3,2.2,4,4.4,4.9c4.8,1.9,9.2,1.8,13.3-1.7c0.5-0.5,1-0.9,1.7-1.4
		c0.1,0.9,0.2,1.6,0.3,2.4c0.2,1.9,1.4,3.2,3,4.1c1.5,0.9,3.1,1,4.9,0.8c2.4-0.3,4.7-0.3,7.1-0.6c2.1-0.2,4-0.4,5.6-1.9
		C141,427.6,141.6,424.4,139.6,421.3z M24.1,268c-2.2-2-4.4-4-6.1-6.4c-2.4-3.6-3.6-7.7-2.5-12.2c0.4-1.7,0.7-3.5,1.4-5.2
		c1.8-4.4,5-7.4,9.7-8.5c0.5-0.1,1-0.2,1.4-0.4c3.4-1.3,6.4-0.9,9.1,1.6c0.9,0.8,2,1.5,3,2.1c3.9,2.2,5.5,5.6,4.9,11.1
		c0.3,1.6,0.5,4.2,1.2,6.6c1.3,4.3-1.2,10-6.4,11.1c-2.3,0.5-4.9,0.5-7.3,0.8c-1.7,0.2-3.5,0.5-5.2,0.5
		C26.2,269,24.9,268.7,24.1,268z M29.2,309.9c-2.5-1.3-5.2-2.6-7.6-4.2c-4.9-3.1-7.7-7.3-7.3-13.2c0.2-3,0.5-6.2,0.8-9.2
		c0.4-3.2,1.7-6,4.3-8.1c3.5-2.8,7.4-4.9,12-5.2c1.4-0.1,2.7-0.3,4.1-0.4c0.8-0.1,1.6-0.4,2.4-0.1c3.6,1.1,6.7,3.1,8.8,6.2
		c1.3,3.2,3.2,6.1,2.7,9.6c-0.4,2.1-0.2,4.4,0.4,6.3c1.5,5.1,0,9.5-2.4,13.7c-0.4,0.8-1.1,1.5-1.9,1.8c-2.1,0.8-4.2,1.3-6.3,1.9
		c-1.6,0.4-3.2,0.6-4.6,1.2C32.7,311,30.9,310.8,29.2,309.9z M41.3,352.5c-2.6,0.5-5.3,0.6-7.6-0.7c-3-1.6-6.1-3.4-8.6-5.7
		c-1.3-1.2-2-3.4-2.6-5.3c-0.7-2-0.9-4.1-1.2-6.1c-0.5-2.4-0.1-4.7,0.9-7c1.2-2.7,2.4-5.5,3.6-8.2c1.1-2.5,2.9-4.7,5.1-6.4
		c0.9-0.7,2.1-1.1,3.1-1.6c0,0,0,0,0,0c0.3-0.1,0.6-0.2,1-0.3c0.6-0.2,1.2-0.4,1.9-0.3c0.7,0,1.4,0.1,2.1,0.1c0.9-0.1,1.8-0.1,2.7,0
		c0.2,0,0.3,0.1,0.5,0.1c1.3,0,2.5,0,3.8-0.1c0.1,0,0.1,0,0.2,0c0.2-0.1,0.5-0.1,0.7-0.2c2.3-0.7,4.2,0.8,5.8,2.2
		c1.2,1.1,2.2,2.3,3.3,3.6c1.2,1.3,1.8,2.8,1.7,4.6c-0.2,3.2,0.9,6,2.2,8.8c1,2.1,1.6,4.5,1.9,6.9c0.2,1.3-0.4,2.8-1.1,4.1
		C56.6,348.8,49.1,350.9,41.3,352.5z M56,377c-3.6,0-7.2-0.5-10.3-2c-3.6-1.6-6.5-6.4-5.8-11.7c0.7-5.1,3.6-8.5,7.9-11.1
		c4.7-2.8,9.1-2.6,13.6,0.2c1.5,1,3.1,1.8,4.5,2.9c1.8,1.4,2.4,2.8,2.4,5.2h-0.4c0,2.6,0.1,5.1-0.1,7.5c0,0.8-0.3,1.7-0.8,2.4
		C64.2,374,61.2,377,56,377z M70,400.9c-4.7,1-11.5-0.3-12.8-7.4c-0.5-3.1-1.3-6.1,0.1-9.2c1.7-3.8,4.2-7.3,7.9-9.4
		c1.7-1,4.1-0.9,6.2-1.3c0,0.1,0.1,0.2,0.1,0.4c1.1,0,2.1,0,3.2,0.1c2.9,0.2,6.6,3,7.6,5.7c1,2.5,1.7,5.1,1,7.9
		c-0.1,0.3-0.2,0.8-0.1,1.1c0.6,2.7-1,4.5-2.8,6.2C77.4,397.9,74,400.1,70,400.9z M95.2,416.4c-2.3,2.8-5.2,4-8.7,3.6
		c-1.1-0.1-2.2-0.2-3.3-0.3c-3.9-0.8-6.1-3.1-6.4-7.1c-0.2-2.7-0.4-5.6-0.5-8.4c-0.1-4.1,2.9-8,7-8.7c3-0.5,6.2-0.6,9.2-0.6
		c1.9,0,3.2,1.2,3.8,3.1c0.9,3.1,1.9,6.2,3,9.2c0.9,2.4,0.1,4.1-1.3,5.9C97.1,414.2,96.1,415.3,95.2,416.4z M116.3,425.2
		c-3.6,3.5-7.7,4.4-12.4,2.7c-2.3-0.9-3.9-2.4-4.7-4.6s-1.4-4.4-0.9-6.7c0,0.2,0,0.4,0,0.6c0-0.4,0.1-0.8,0.2-1.2
		c0.1-0.4,0.2-0.7,0.4-1.1c0.1-0.3,0.2-0.7,0.5-0.9c2.4-2.8,4.9-5.5,7.4-8.2c2.3-2.4,6-1.4,7.1,1.9c1.3,3.7,2.5,7.5,3.9,11.2
		C118.7,421.5,118.3,423.3,116.3,425.2z M136.9,429.8c-1.6,0.8-3.4,0.9-5.2,1.3c0,0,0,0,0-0.1c-0.3,0.1-0.6,0.1-0.9,0.1
		c-0.3,0-0.5,0-0.8-0.1c-0.2,0-0.5,0.1-0.7,0.1c-0.3,0-0.6,0-0.8-0.1c-0.9,0.1-1.8,0.2-2.6,0.3c-2.7,0.4-5.3-0.6-6.5-2.6
		c-1.4-2.2-0.8-6,0.8-7.9c1.1-1.4,1.9-2.9,2.7-4.4c0.6-1.1,1-2.4,1.6-3.5c1.4-2.6,4.6-3.3,6.6-1.1c2.8,3,5.4,6.3,7.7,9.7
		C140.7,424.6,139.8,428.4,136.9,429.8z"/>
	<path d="M63.8,93.1c-1.1-0.8-2.2-1.7-3.5-2.5C54.7,87.2,48.9,86,42.6,88c-7.7,2.4-10.1,11-5,17.3c0.8,1.1,1.7,2.1,2.6,3
		c0.8,0.9,1.7,1.7,3,2.8c-4.6-1.6-8.6-0.8-12.3,1.6c-1.4,1-3,2-4.4,3c-1.6,1.1-2.7,2.7-3.1,4.6c-0.5,2-0.9,4.1-1.2,6.1
		c-0.3,1.5-0.3,3.1-0.2,4.6c0.5,6.4,3.8,11.1,8.7,14.8c1.3,0.9,2.5,1.9,3.9,2.8c-0.5,0-1-0.1-1.5-0.3c-2.6-0.8-5.3-1.1-8-0.3
		c-5.5,1.6-8.4,5.7-10.1,10.8c-1,2.9-1.3,5.9-0.2,8.9c0.3,1,0.5,2.1,0.4,3c-0.3,4.3,0.4,8.1,3.9,11.1c1.4,1.1,2.4,2.6,3.4,4h-2
		c-5.3,0-8.8,2.7-10.2,7.9c-1.6,5.4-1,10.8,1.4,16c0.4,0.8,0.6,1.6,0.8,2.4c0.6,2.8,1.7,5.4,4.3,6.8c2.3,1.4,4.9,2.8,7.5,3.4
		c6.8,1.5,13.5,0.4,19.8-2.3c1.5-0.6,3-1.8,3.8-3.2c2.3-3.8,4.3-7.7,4.4-12.2c0.1-3.4,0-7-3.1-9.3c-3-2.2-6.2-4.1-9.3-6
		c-0.5-0.4-1-0.5-1.4-0.7c0.3-0.2,0.7-0.2,1-0.2h1c5.3-0.3,9.6-2.5,12.1-7.2c1.5-2.8,2.6-6,3.5-9.1c1-3.2,0.1-6.2-1.8-9
		c-2.7-3.9-5.6-7.4-10.3-9.8c4.2-0.2,7-2.3,9.3-5.1c2.2-2.8,4.4-5.8,6.8-8.4c4.3-4.7,4.9-9.1,0.8-13.7c-4.1-4.8-7.9-10.1-13.6-13.3
		c0,0,0-0.2-0.1-0.5c1.2,0.3,2.2,0.4,3.3,0.6c0.9,0.2,1.8,0.5,2.6,0.6c3.8,0.2,7.2-1.1,10.6-2.4c0.7-0.2,1.4-0.9,1.9-1.6
		C69.5,104.7,68.6,97,63.8,93.1z M14.1,214.7c-0.2-0.6-0.3-1-0.5-1.4c-0.6-1.9-1.2-3.7-1.9-5.6c-1.8-5-2.1-10-0.3-15.1
		c0.6-1.9,1.7-3.3,3.3-4.3c0,0,0,0,0,0c0.6-0.6,1.4-1.1,2.5-1.3c0,0,0,0,0,0c0,0,0,0,0.1,0c0.2,0,0.4-0.1,0.6-0.1
		c1.9-0.2,3.8-0.5,5.6-0.2c4.5,0.6,9,1.4,13.3,2.5c4.7,1.2,8.4,4.2,12.1,7.2c1.9,1.7,1.9,4.2,2.1,6.5c0.2,2-0.1,4.2-0.8,6.1
		c-0.9,2.5-2,4.8-3.3,7.1c-1.1,1.9-3.1,3-5.2,3.7c-5.2,1.6-10.5,2.7-15.8,1.8c-2.9-0.6-5.6-2-8.5-3l-0.2-0.2
		c-0.5-0.3-0.8-0.5-1.1-0.9c-0.3-0.3-0.9-0.9-0.8-0.8c-0.3-0.3-0.6-0.6-0.8-0.9 M49.7,159.1c1.8,1.9,3.2,4.2,4.6,6.3
		c1,1.6,1.3,3.4,1,5.2c-0.7,4-1.9,7.8-4.2,11.2c-2.4,3.5-5.8,5.7-10,5.7c-4.4,0-8.9-0.3-13.2-0.9c-2.8-0.3-5.3-1.7-7.1-4.1
		c-0.4-0.5-0.9-1-1.4-1.4c-2.8-2.4-3.7-5.5-3.4-9c0.2-1.8,0.2-3.4-0.6-5.1c-1.1-2.4-0.5-5.2,0.3-7.6c1.4-4.3,3.8-7.9,8.1-9.8
		c0.6-0.2,1.2-0.3,1.8-0.4c0.2-0.1,0.4-0.2,0.7-0.2c0.5-0.2,1.2-0.3,1.9-0.3c0.1,0,0.1,0,0.2,0v-0.2c1.5,0.3,3.1,0.4,4.5,1
		C39.1,151.5,45.1,154.3,49.7,159.1z M48.4,114.8c0.7,0.4,1.3,1,1.7,1.6c0.3,0.3,0.6,0.6,0.8,0.9c0.1,0.1,0.2,0.2,0.2,0.4
		c1,0.4,1.8,1.2,2.2,2.2c0.2,0.2,0.3,0.3,0.5,0.5c0-0.1,0-0.1-0.1-0.2c0-0.1,0.2-0.2,0.3-0.3c2.4,2.8,5,5.4,7,8.4
		c2.3,3.4,1.8,6.6-0.8,9.7c-2.8,3.3-5.4,6.7-8.3,9.9c-1.3,1.6-3.1,2.7-4.7,4.1c-0.1-0.2-0.2-0.3-0.3-0.4c0,0-0.1,0-0.1,0
		c-0.6,0.3-1.4,0.5-2.3,0.5c-0.4,0-0.9-0.1-1.2-0.1c-1.3,0-2.5-0.6-3.9-1.7c-0.9-0.6-1.9-1.5-3-1.9c-1.3-0.6-2.2-1.4-2.8-2.4
		c-0.5-0.2-1-0.5-1.4-0.8c0,0.1,0,0.1,0,0.2c-5.6-2.7-9.8-10.2-9.4-17c0.2-2.7,0.8-5.4,1.3-8c0.4-1.7,1.4-3.1,2.8-4.1
		c1.6-1,3.1-2,4.6-3c3.6-2.4,7.4-2.9,11.5-1.3c0.2,0.1,0.3,0.2,0.6,0.3c1.3,0.1,2.4,0.6,3.1,1.3C47.4,114,47.9,114.4,48.4,114.8z
		 M60.3,111.3c-2.1,0.4-4.2,1-6.2,1.3c-1.2,0.1-2.4-0.3-3.7-0.6c-1.5-0.3-3.2-0.4-4.6-0.9c-3.2-1.1-5.2-3.7-7.4-6.1
		c-2.5-2.8-2.7-6-2.2-9.5c0.2-1.8,1.1-3.2,2.5-4.4c2.8-2.3,6-3.2,9.7-3.1c0,0,0,0,0,0c0.1,0,0.2,0,0.2,0c0.5,0,1,0.1,1.4,0.2
		c0.2-0.1,0.4-0.1,0.6-0.1c6,0.6,10.8,3.5,14.6,7.9c1,1.2,1.4,3.1,1.6,4.8c0.1,1.6-0.4,3.4-0.7,5C65.5,108.9,63.5,110.7,60.3,111.3z
		"/>
</g>
<g id="Charts_1_">
	<g id="UpperTeethRight-M_1_">
		<text id="_x31_6_9_" transform="matrix(1 0 0 1 261.1667 196.6667)" class="st0 st1 st2">M</text>
		<text id="_x31_5_9_" transform="matrix(1 0 0 1 254.6667 158.5)" class="st0 st1 st2">M</text>
		<text id="_x31_4_9_" transform="matrix(1 0 0 1 243.5 121)" class="st0 st1 st2">M</text>
		<text id="_x31_3_11_" transform="matrix(1 0 0 1 232.1667 96.5)" class="st0 st1 st2">M</text>
		<text id="_x31_2_11_" transform="matrix(1 0 0 1 222.5 70.1667)" class="st0 st1 st2">M</text>
		<text id="_x31_1_11_" transform="matrix(1 0 0 1 208.5 45)" class="st0 st1 st2">M</text>
		<text id="_x31_0_11_" transform="matrix(1 0 0 1 179.6667 29.8333)" class="st0 st1 st2">M</text>
		<text id="_x39__11_" transform="matrix(1 0 0 1 150.6667 19.6667)" class="st0 st1 st2">M</text>
	</g>
	<g id="UpperTeethLeft-M_1_">
		<text id="_x31__9_" transform="matrix(-1 0 0 1 21.5 195.3333)" class="st0 st1 st2">M</text>
		<text id="_x32__9_" transform="matrix(-1 0 0 1 28.166 159)" class="st0 st1 st2">M</text>
		<text id="_x33__9_" transform="matrix(-1 0 0 1 37.5 121.5)" class="st0 st1 st2">M</text>
		<text id="_x34__11_" transform="matrix(-1 0 0 1 56.333 96.6667)" class="st0 st1 st2">M</text>
		<text id="_x35__11_" transform="matrix(-1 0 0 1 64.5 69.8333)" class="st0 st1 st2">M</text>
		<text id="_x36__11_" transform="matrix(-1 0 0 1 78.166 44.3333)" class="st0 st1 st2">M</text>
		<text id="_x37__11_" transform="matrix(-1 0 0 1 104.666 30.5)" class="st0 st1 st2">M</text>
		<text id="_x38__11_" transform="matrix(-1 0 0 1 132.833 19.6667)" class="st0 st1 st2">M</text>
	</g>
	<g id="LowerTeethRight-M_1_">
		<text id="_x32_4_11_" transform="matrix(1 0 0 1 155.1667 429)" class="st0 st1 st2">M</text>
		<text id="_x32_3_12_" transform="matrix(1.1051 0 0 1 175 420.4258)" class="st0 st1 st2">M</text>
		<text id="_x32_2_12_" transform="matrix(1 0 0 1 195.5 403.8333)" class="st0 st1 st2">M</text>
		<text id="_x32_1_12_" transform="matrix(1 0 0 1 213 384.6667)" class="st0 st1 st2">M</text>
		<text id="_x32_0_12_" transform="matrix(1 0 0 1 229.3333 360.3333)" class="st0 st1 st2">M</text>
		<text id="_x31_9_10_" transform="matrix(1 0 0 1 243.1667 319.6667)" class="st0 st1 st2">M</text>
		<text id="_x31_8_10_" transform="matrix(1 0 0 1 250.3333 279)" class="st0 st1 st2">M</text>
		<text id="_x31_7_10_" transform="matrix(1 0 0 1 249.8333 243.1667)" class="st0 st1 st2">M</text>
	</g>
	<g id="LowerTeethLeft-M_1_">
		<text id="_x32_5_11_" transform="matrix(-1 0 0 1 127.166 428.5)" class="st0 st1 st2">M</text>
		<text id="_x32_6_11_" transform="matrix(-1.1051 0 0 1 107.5 419.5918)" class="st0 st1 st2">M</text>
		<text id="_x32_7_11_" transform="matrix(-1 0 0 1 86.666 404.6667)" class="st0 st1 st2">M</text>
		<text id="_x32_8_11_" transform="matrix(-1 0 0 1 70.499 383)" class="st0 st1 st2">M</text>
		<text id="_x32_9_11_" transform="matrix(-1 0 0 1 53.666 360.1667)" class="st0 st1 st2">M</text>
		<text id="_x33_0_9_" transform="matrix(-1 0 0 1 39.833 319.5)" class="st0 st1 st2">M</text>
		<text id="_x33_1_9_" transform="matrix(-1 0 0 1 32.833 279.3333)" class="st0 st1 st2">M</text>
		<text id="_x33_2_9_" transform="matrix(-1 0 0 1 31.833 244.1667)" class="st0 st1 st2">M</text>
	</g>
	<g id="UpperTeethRight-C_1_">
		<text id="_x31_6_8_" transform="matrix(1.035 0 0 1 263.8828 204.9648)" class="st3 st1 st2">C</text>
		<text id="_x31_5_8_" transform="matrix(1.035 0 0 1 258.9092 166.4385)" class="st3 st1 st2">C</text>
		<text id="_x31_4_8_" transform="matrix(1.035 0 0 1 250.6543 128.1948)" class="st3 st1 st2">C</text>
		<text id="_x31_3_10_" transform="matrix(1.035 0 0 1 238.8516 102.75)" class="st3 st1 st2">C</text>
		<text id="_x31_2_10_" transform="matrix(1.035 0 0 1 228.8105 76.3628)" class="st3 st1 st2">C</text>
		<text id="_x31_1_10_" transform="matrix(1.035 0 0 1 213.7988 51.6934)" class="st3 st1 st2">C</text>
		<text id="_x31_0_10_" transform="matrix(1.035 0 0 1 187.1279 33.209)" class="st3 st1 st2">C</text>
		<text id="_x39__10_" transform="matrix(1.035 0 0 1 158.4189 20.1226)" class="st3 st1 st2">C</text>
	</g>
	<g id="UpperTeethLeft-C_1_">
		<text id="_x31__8_" transform="matrix(1.035 0 0 1 12.3335 205.1387)" class="st3 st1 st2">C</text>
		<text id="_x32__8_" transform="matrix(1.035 0 0 1 17.5454 168.2783)" class="st3 st1 st2">C</text>
		<text id="_x33__8_" transform="matrix(1.035 0 0 1 25.707 130.0859)" class="st3 st1 st2">C</text>
		<text id="_x34__10_" transform="matrix(1.035 0 0 1 42.3643 95.75)" class="st3 st1 st2">C</text>
		<text id="_x35__10_" transform="matrix(1.035 0 0 1 50.7378 71.6963)" class="st3 st1 st2">C</text>
		<text id="_x36__10_" transform="matrix(1.035 0 0 1 64.917 47.251)" class="st3 st1 st2">C</text>
		<text id="_x37__10_" transform="matrix(1.035 0 0 1 91.3989 31.5493)" class="st3 st1 st2">C</text>
		<text id="_x38__10_" transform="matrix(1.035 0 0 1 118.5864 19.0132)" class="st3 st1 st2">C</text>
	</g>
	<g id="LowerTeethRight-C_1_">
		<text id="_x32_4_10_" transform="matrix(1.035 0 0 1 148.2075 420.1602)" class="st3 st1 st2">C</text>
		<text id="_x32_3_11_" transform="matrix(1.1438 0 0 1 167.9482 412.8828)" class="st3 st1 st2">C</text>
		<text id="_x32_2_11_" transform="matrix(1.035 0 0 1 195.1465 416.5225)" class="st3 st1 st2">C</text>
		<text id="_x32_1_11_" transform="matrix(1.035 0 0 1 207.1543 397.7568)" class="st3 st1 st2">C</text>
		<text id="_x32_0_11_" transform="matrix(1.035 0 0 1 231.8555 372.0869)" class="st3 st1 st2">C</text>
		<text id="_x31_9_9_" transform="matrix(1.035 0 0 1 253.6543 331.9121)" class="st3 st1 st2">C</text>
		<text id="_x31_8_9_" transform="matrix(1.035 0 0 1 260.8369 289.0273)" class="st3 st1 st2">C</text>
		<text id="_x31_7_9_" transform="matrix(1.035 0 0 1 259.4092 254.79)" class="st3 st1 st2">C</text>
	</g>
	<g id="LowerTeethLeft-C_1_">
		<text id="_x32_5_10_" transform="matrix(1.035 0 0 1 132.5591 428.1602)" class="st3 st1 st2">C</text>
		<text id="_x32_6_10_" transform="matrix(1.1438 0 0 1 106.4331 411.8232)" class="st3 st1 st2">C</text>
		<text id="_x32_7_10_" transform="matrix(1.035 0 0 1 81.8076 417.6318)" class="st3 st1 st2">C</text>
		<text id="_x32_8_10_" transform="matrix(1.035 0 0 1 59.1338 396.0322)" class="st3 st1 st2">C</text>
		<text id="_x32_9_10_" transform="matrix(1.035 0 0 1 43.4316 372.4199)" class="st3 st1 st2">C</text>
		<text id="_x33_0_8_" transform="matrix(1.035 0 0 1 23.207 331.4639)" class="st3 st1 st2">C</text>
		<text id="_x33_1_8_" transform="matrix(1.035 0 0 1 16.3789 289.9775)" class="st3 st1 st2">C</text>
		<text id="_x33_2_8_" transform="matrix(1.035 0 0 1 16.2339 256.1807)" class="st3 st1 st2">C</text>
	</g>
	<g id="UpperTeethRight-B_1_">
		<text id="_x31_6_7_" transform="matrix(1.035 0 0 1 254.3828 216.7979)" class="st4 st1 st2">B</text>
		<text id="_x31_5_7_" transform="matrix(1.035 0 0 1 253.4092 181.2715)" class="st4 st1 st2">B</text>
		<text id="_x31_4_7_" transform="matrix(1.035 0 0 1 244.4873 143.0283)" class="st4 st1 st2">B</text>
		<text id="_x31_3_9_" transform="matrix(1.035 0 0 1 226.6855 96.25)" class="st4 st1 st2">B</text>
		<text id="_x31_2_9_" transform="matrix(1.035 0 0 1 216.8105 70.8628)" class="st4 st1 st2">B</text>
		<text id="_x31_1_9_" transform="matrix(1.035 0 0 1 202.4658 44.8599)" class="st4 st1 st2">B</text>
		<text id="_x31_0_9_" transform="matrix(1.035 0 0 1 174.7949 36.709)" class="st4 st1 st2">B</text>
		<text id="_x39__9_" transform="matrix(1.035 0 0 1 145.085 21.6226)" class="st4 st1 st2">B</text>
	</g>
	<g id="UpperTeethLeft-B_1_">
		<text id="_x31__7_" transform="matrix(1.035 0 0 1 24.1665 218.6387)" class="st4 st1 st2">B</text>
		<text id="_x32__7_" transform="matrix(1.035 0 0 1 25.7124 182.4443)" class="st4 st1 st2">B</text>
		<text id="_x33__7_" transform="matrix(1.035 0 0 1 34.374 145.5859)" class="st4 st1 st2">B</text>
		<text id="_x34__9_" transform="matrix(1.035 0 0 1 46.3643 109.4165)" class="st4 st1 st2">B</text>
		<text id="_x35__9_" transform="matrix(1.035 0 0 1 57.7378 84.8628)" class="st4 st1 st2">B</text>
		<text id="_x36__9_" transform="matrix(1.035 0 0 1 70.7505 61.4175)" class="st4 st1 st2">B</text>
		<text id="_x37__9_" transform="matrix(1.035 0 0 1 90.2319 44.3823)" class="st4 st1 st2">B</text>
		<text id="_x38__9_" transform="matrix(1.035 0 0 1 113.7529 33.1797)" class="st4 st1 st2">B</text>
	</g>
	<g id="LowerTeethRight-B_1_">
		<text id="_x32_4_9_" transform="matrix(1.035 0 0 1 149.707 429.8271)" class="st4 st1 st2">B</text>
		<text id="_x32_3_10_" transform="matrix(1.1438 0 0 1 164.9482 422.5498)" class="st4 st1 st2">B</text>
		<text id="_x32_2_10_" transform="matrix(1.035 0 0 1 200.8125 411.6895)" class="st4 st1 st2">B</text>
		<text id="_x32_1_10_" transform="matrix(1.035 0 0 1 219.9873 390.7568)" class="st4 st1 st2">B</text>
		<text id="_x32_0_10_" transform="matrix(1.035 0 0 1 236.6885 365.9199)" class="st4 st1 st2">B</text>
		<text id="_x31_9_8_" transform="matrix(1.035 0 0 1 250.3213 324.2451)" class="st4 st1 st2">B</text>
		<text id="_x31_8_8_" transform="matrix(1.035 0 0 1 258.5039 281.3613)" class="st4 st1 st2">B</text>
		<text id="_x31_7_8_" transform="matrix(1.035 0 0 1 257.4092 246.29)" class="st4 st1 st2">B</text>
	</g>
	<g id="LowerTeethLeft-B_1_">
		<text id="_x32_5_9_" transform="matrix(1.035 0 0 1 127.2256 429.1602)" class="st4 st1 st2">B</text>
		<text id="_x32_6_9_" transform="matrix(1.1438 0 0 1 111.9331 424.4902)" class="st4 st1 st2">B</text>
		<text id="_x32_7_9_" transform="matrix(1.035 0 0 1 77.3076 412.2979)" class="st4 st1 st2">B</text>
		<text id="_x32_8_9_" transform="matrix(1.035 0 0 1 58.6338 388.3662)" class="st4 st1 st2">B</text>
		<text id="_x32_9_9_" transform="matrix(1.035 0 0 1 41.2651 364.7539)" class="st4 st1 st2">B</text>
		<text id="_x33_0_7_" transform="matrix(1.035 0 0 1 27.0405 323.7979)" class="st4 st1 st2">B</text>
		<text id="_x33_1_7_" transform="matrix(1.035 0 0 1 19.5454 282.4775)" class="st4 st1 st2">B</text>
		<text id="_x33_2_7_" transform="matrix(1.035 0 0 1 18.2339 247.6807)" class="st4 st1 st2">B</text>
	</g>
	<g id="UpperTeethRight-IP_1_">
		<text id="_x31_6_6_" transform="matrix(1.035 0 0 1 260.3828 213.9648)" class="st5 st1 st2">IP</text>
		<text id="_x31_5_6_" transform="matrix(1.035 0 0 1 257.7422 174.9385)" class="st5 st1 st2">IP</text>
		<text id="_x31_4_6_" transform="matrix(1.035 0 0 1 249.9873 137.0283)" class="st5 st1 st2">IP</text>
		<text id="_x31_3_8_" transform="matrix(1.035 0 0 1 233.0186 108.75)" class="st5 st1 st2">IP</text>
		<text id="_x31_2_8_" transform="matrix(1.035 0 0 1 224.1445 83.6963)" class="st5 st1 st2">IP</text>
		<text id="_x31_1_8_" transform="matrix(1.035 0 0 1 210.1328 59.5269)" class="st5 st1 st2">IP</text>
		<text id="_x31_0_8_" transform="matrix(1.035 0 0 1 192.4609 37.376)" class="st5 st1 st2">IP</text>
		<text id="_x39__8_" transform="matrix(1.035 0 0 1 165.085 21.9561)" class="st5 st1 st2">IP</text>
	</g>
	<g id="UpperTeethLeft-IP_1_">
		<text id="_x31__6_" transform="matrix(1.035 0 0 1 16.6665 215.1387)" class="st5 st1 st2">IP</text>
		<text id="_x32__6_" transform="matrix(1.035 0 0 1 17.8789 178.6113)" class="st5 st1 st2">IP</text>
		<text id="_x33__6_" transform="matrix(1.035 0 0 1 26.874 139.9194)" class="st5 st1 st2">IP</text>
		<text id="_x34__8_" transform="matrix(1.035 0 0 1 39.6978 104.083)" class="st5 st1 st2">IP</text>
		<text id="_x35__8_" transform="matrix(1.035 0 0 1 50.2378 80.6963)" class="st5 st1 st2">IP</text>
		<text id="_x36__8_" transform="matrix(1.035 0 0 1 63.417 57.4175)" class="st5 st1 st2">IP</text>
		<text id="_x37__8_" transform="matrix(1.035 0 0 1 84.3989 38.8823)" class="st5 st1 st2">IP</text>
		<text id="_x38__8_" transform="matrix(1.035 0 0 1 110.7529 25.6797)" class="st5 st1 st2">IP</text>
	</g>
	<g id="LowerTeethRight-IP_1_">
		<text id="_x32_4_8_" transform="matrix(1.035 0 0 1 143.2075 427.8271)" class="st5 st1 st2">IP</text>
		<text id="_x32_3_9_" transform="matrix(1.1438 0 0 1 169.9482 427.0498)" class="st5 st1 st2">IP</text>
		<text id="_x32_2_9_" transform="matrix(1.035 0 0 1 183.8125 412.0225)" class="st5 st1 st2">IP</text>
		<text id="_x32_1_9_" transform="matrix(1.035 0 0 1 214.1543 398.4238)" class="st5 st1 st2">IP</text>
		<text id="_x32_0_9_" transform="matrix(1.035 0 0 1 223.8555 374.7539)" class="st5 st1 st2">IP</text>
		<text id="_x31_9_7_" transform="matrix(1.035 0 0 1 250.9873 340.9121)" class="st5 st1 st2">IP</text>
		<text id="_x31_8_7_" transform="matrix(1.035 0 0 1 259.1709 298.0273)" class="st5 st1 st2">IP</text>
		<text id="_x31_7_7_" transform="matrix(1.035 0 0 1 256.4092 262.29)" class="st5 st1 st2">IP</text>
	</g>
	<g id="LowerTeethLeft-IP_1_">
		<text id="_x32_5_8_" transform="matrix(1.035 0 0 1 124.8921 419.4941)" class="st5 st1 st2">IP</text>
		<text id="_x32_6_8_" transform="matrix(1.1438 0 0 1 104.4331 427.8232)" class="st5 st1 st2">IP</text>
		<text id="_x32_7_8_" transform="matrix(1.035 0 0 1 88.3076 417.4648)" class="st5 st1 st2">IP</text>
		<text id="_x32_8_8_" transform="matrix(1.035 0 0 1 65.6338 398.8662)" class="st5 st1 st2">IP</text>
		<text id="_x32_9_8_" transform="matrix(1.035 0 0 1 50.5981 374.7539)" class="st5 st1 st2">IP</text>
		<text id="_x33_0_6_" transform="matrix(1.035 0 0 1 23.707 340.2979)" class="st5 st1 st2">IP</text>
		<text id="_x33_1_6_" transform="matrix(1.035 0 0 1 17.3789 297.8105)" class="st5 st1 st2">IP</text>
		<text id="_x33_2_6_" transform="matrix(1.035 0 0 1 21.5674 263.3477)" class="st5 st1 st2">IP</text>
	</g>
	<g id="UpperTeethRight-I_1_">
		<text id="_x31_6_5_" transform="matrix(1.035 0 0 1 250.0498 217.2979)" class="st6 st1 st2">I</text>
		<text id="_x31_5_5_" transform="matrix(1.035 0 0 1 248.4092 183.4385)" class="st6 st1 st2">I</text>
		<text id="_x31_4_5_" transform="matrix(1.035 0 0 1 240.8213 145.3618)" class="st6 st1 st2">I</text>
		<text id="_x31_3_7_" transform="matrix(1.035 0 0 1 222.8516 98.583)" class="st6 st1 st2">I</text>
		<text id="_x31_2_7_" transform="matrix(1.035 0 0 1 212.9775 73.6963)" class="st6 st1 st2">I</text>
		<text id="_x31_1_7_" transform="matrix(1.035 0 0 1 199.1328 52.1934)" class="st6 st1 st2">I</text>
		<text id="_x31_0_7_" transform="matrix(1.035 0 0 1 180.2949 42.5425)" class="st6 st1 st2">I</text>
		<text id="_x39__7_" transform="matrix(1.035 0 0 1 149.585 28.4561)" class="st6 st1 st2">I</text>
	</g>
	<g id="UpperTeethLeft-I_1_">
		<text id="_x31__5_" transform="matrix(1.035 0 0 1 31.8335 219.1387)" class="st6 st1 st2">I</text>
		<text id="_x32__5_" transform="matrix(1.035 0 0 1 32.5454 184.2783)" class="st6 st1 st2">I</text>
		<text id="_x33__5_" transform="matrix(1.035 0 0 1 41.0405 148.0859)" class="st6 st1 st2">I</text>
		<text id="_x34__7_" transform="matrix(1.035 0 0 1 54.0308 111.25)" class="st6 st1 st2">I</text>
		<text id="_x35__7_" transform="matrix(1.035 0 0 1 65.2378 84.6963)" class="st6 st1 st2">I</text>
		<text id="_x36__7_" transform="matrix(1.035 0 0 1 77.0835 63.251)" class="st6 st1 st2">I</text>
		<text id="_x37__7_" transform="matrix(1.035 0 0 1 96.0654 44.3823)" class="st6 st1 st2">I</text>
		<text id="_x38__7_" transform="matrix(1.035 0 0 1 119.2529 36.5132)" class="st6 st1 st2">I</text>
	</g>
	<g id="LowerTeethRight-I_1_">
		<text id="_x32_4_7_" transform="matrix(1.035 0 0 1 154.2075 420.1602)" class="st6 st1 st2">I</text>
		<text id="_x32_3_8_" transform="matrix(1.1438 0 0 1 174.4482 413.3828)" class="st6 st1 st2">I</text>
		<text id="_x32_2_8_" transform="matrix(1.035 0 0 1 190.9795 415.6895)" class="st6 st1 st2">I</text>
		<text id="_x32_1_8_" transform="matrix(1.035 0 0 1 204.8213 394.7568)" class="st6 st1 st2">I</text>
		<text id="_x32_0_8_" transform="matrix(1.035 0 0 1 226.0225 359.0869)" class="st6 st1 st2">I</text>
		<text id="_x31_9_6_" transform="matrix(1.035 0 0 1 238.9873 319.0781)" class="st6 st1 st2">I</text>
		<text id="_x31_8_6_" transform="matrix(1.035 0 0 1 247.1709 277.5273)" class="st6 st1 st2">I</text>
		<text id="_x31_7_6_" transform="matrix(1.035 0 0 1 245.4092 243.4561)" class="st6 st1 st2">I</text>
	</g>
	<g id="LowerTeethLeft-I_1_">
		<text id="_x32_5_7_" transform="matrix(1.035 0 0 1 133.7256 424.8271)" class="st6 st1 st2">I</text>
		<text id="_x32_6_7_" transform="matrix(1.1438 0 0 1 111.4331 423.6572)" class="st6 st1 st2">I</text>
		<text id="_x32_7_7_" transform="matrix(1.035 0 0 1 93.3076 404.6318)" class="st6 st1 st2">I</text>
		<text id="_x32_8_7_" transform="matrix(1.035 0 0 1 77.9673 383.8662)" class="st6 st1 st2">I</text>
		<text id="_x32_9_7_" transform="matrix(1.035 0 0 1 59.9316 360.2539)" class="st6 st1 st2">I</text>
		<text id="_x33_0_5_" transform="matrix(1.035 0 0 1 41.0405 318.2979)" class="st6 st1 st2">I</text>
		<text id="_x33_1_5_" transform="matrix(1.035 0 0 1 33.5454 277.6436)" class="st6 st1 st2">I</text>
		<text id="_x33_2_5_" transform="matrix(1.035 0 0 1 33.7339 244.1807)" class="st6 st1 st2">I</text>
	</g>
	<g id="UpperTeethRight-D_1_">
		<text id="_x31_3_6_" transform="matrix(1.035 0 0 1 221.0186 107.75)" class="st7 st1 st2">D</text>
		<text id="_x31_2_6_" transform="matrix(1.035 0 0 1 215.1445 83.3628)" class="st7 st1 st2">D</text>
		<text id="_x31_1_6_" transform="matrix(1.035 0 0 1 199.9658 61.5269)" class="st7 st1 st2">D</text>
		<text id="_x31_0_6_" transform="matrix(1.035 0 0 1 184.9609 43.5425)" class="st7 st1 st2">D</text>
		<text id="_x39__6_" transform="matrix(1.035 0 0 1 161.085 33.1226)" class="st7 st1 st2">D</text>
	</g>
	<g id="UpperTeethLeft-D_1_">
		<text id="_x34__6_" transform="matrix(1.035 0 0 1 58.6978 104.9165)" class="st7 st1 st2">D</text>
		<text id="_x35__6_" transform="matrix(1.035 0 0 1 69.7378 80.8628)" class="st7 st1 st2">D</text>
		<text id="_x36__6_" transform="matrix(1.035 0 0 1 78.7505 54.751)" class="st7 st1 st2">D</text>
		<text id="_x37__6_" transform="matrix(1.035 0 0 1 99.8989 41.2158)" class="st7 st1 st2">D</text>
		<text id="_x38__6_" transform="matrix(1.035 0 0 1 125.0864 33.1797)" class="st7 st1 st2">D</text>
	</g>
	<g id="LowerTeethRight-D_1_">
		<text id="_x32_4_6_" transform="matrix(1.035 0 0 1 155.707 428.3271)" class="st7 st1 st2">D</text>
		<text id="_x32_3_7_" transform="matrix(1.1438 0 0 1 174.9482 419.0498)" class="st7 st1 st2">D</text>
		<text id="_x32_2_7_" transform="matrix(1.035 0 0 1 188.3125 402.5225)" class="st7 st1 st2">D</text>
		<text id="_x32_1_7_" transform="matrix(1.035 0 0 1 206.4873 382.2568)" class="st7 st1 st2">D</text>
		<text id="_x32_0_7_" transform="matrix(1.035 0 0 1 217.6885 361.5869)" class="st7 st1 st2">D</text>
	</g>
	<g id="LowerTeethLeft-D_1_">
		<text id="_x32_5_6_" transform="matrix(1.035 0 0 1 121.0591 427.3271)" class="st7 st1 st2">D</text>
		<text id="_x32_6_6_" transform="matrix(1.1438 0 0 1 102.5996 419.3232)" class="st7 st1 st2">D</text>
		<text id="_x32_7_6_" transform="matrix(1.035 0 0 1 85.9741 402.2979)" class="st7 st1 st2">D</text>
		<text id="_x32_8_6_" transform="matrix(1.035 0 0 1 70.4673 381.6992)" class="st7 st1 st2">D</text>
		<text id="_x32_9_6_" transform="matrix(1.035 0 0 1 52.7651 357.2539)" class="st7 st1 st2">D</text>
	</g>
</g>
</svg>
