<svg xmlns="http://www.w3.org/2000/svg" viewBox="15885 1124 37.149 37">
  <defs>
    <style>
      .cls-1 {
        fill: #0f0f0f;
        fill-rule: evenodd;
      }
    </style>
  </defs>
  <path id="Path_49" data-name="Path 49" class="cls-1" d="M18.575,0A18.476,18.476,0,0,1,31.607,5.468,18.586,18.586,0,0,1,37.15,18.575a18.545,18.545,0,0,1-5.543,13.032A18.538,18.538,0,0,1,0,18.575,18.771,18.771,0,0,1,5.393,5.468,18.563,18.563,0,0,1,18.575,0ZM15.354,14.455h0a.588.588,0,0,1,.824,0,.811.811,0,0,1,0,.824l-2.7,2.621H24.267a.66.66,0,0,1,.674.6.671.671,0,0,1-.674.674H13.482l2.771,2.7a.68.68,0,0,1,0,.749.588.588,0,0,1-.824,0l-3.745-3.67c-.225-.3-.225-.6,0-.749ZM30.933,6.217h0A17.768,17.768,0,0,0,18.575,1.123,17.255,17.255,0,0,0,6.217,6.291,17.431,17.431,0,0,0,1.049,18.65,17.659,17.659,0,0,0,6.217,30.933,17.377,17.377,0,0,0,35.951,18.65,17.353,17.353,0,0,0,30.933,6.217Z" transform="translate(15885 1124)"/>
</svg>
