<svg xmlns="http://www.w3.org/2000/svg" viewBox="6133.43 1354 19.14 19.397">
  <defs>
    <style>
      .cls-1 {
        fill: #868686;
      }
    </style>
  </defs>
  <g id="Group_17" data-name="Group 17" transform="translate(6133.43 1354)">
    <path id="Path_14" data-name="Path 14" class="cls-1" d="M16.6,1.626H14.959V.475a.475.475,0,0,0-.95,0V1.626H11.68V.475a.475.475,0,1,0-.95,0V1.626H8.4V.475a.473.473,0,1,0-.946,0V1.626H5.127V.475a.473.473,0,1,0-.946,0V1.626H0V19.4H19.14V1.626Zm1.591,16.82H.95V2.577H4.181V3.584a.475.475,0,1,0,.95,0V2.577H7.455V3.584a.475.475,0,1,0,.95,0V2.577h2.328V3.584a.475.475,0,1,0,.95,0V2.577h2.328V3.584a.475.475,0,0,0,.95,0V2.577h3.231v15.87Z"/>
    <rect id="Rectangle_110" data-name="Rectangle 110" class="cls-1" width="1.19" height="1.19" transform="translate(4.068 10.468)"/>
    <rect id="Rectangle_111" data-name="Rectangle 111" class="cls-1" width="1.19" height="1.19" transform="translate(4.076 13.703)"/>
    <rect id="Rectangle_112" data-name="Rectangle 112" class="cls-1" width="1.19" height="1.19" transform="translate(7.342 13.703)"/>
    <rect id="Rectangle_113" data-name="Rectangle 113" class="cls-1" width="1.19" height="1.19" transform="translate(10.612 13.703)"/>
    <rect id="Rectangle_114" data-name="Rectangle 114" class="cls-1" width="1.19" height="1.19" transform="translate(4.042 7.229)"/>
    <rect id="Rectangle_115" data-name="Rectangle 115" class="cls-1" width="1.19" height="1.19" transform="translate(7.307 10.464)"/>
    <rect id="Rectangle_116" data-name="Rectangle 116" class="cls-1" width="1.19" height="1.19" transform="translate(10.573 10.464)"/>
    <rect id="Rectangle_117" data-name="Rectangle 117" class="cls-1" width="1.19" height="1.19" transform="translate(13.838 10.464)"/>
    <rect id="Rectangle_118" data-name="Rectangle 118" class="cls-1" width="1.19" height="1.19" transform="translate(7.277 7.224)"/>
    <rect id="Rectangle_119" data-name="Rectangle 119" class="cls-1" width="1.19" height="1.19" transform="translate(10.542 7.224)"/>
    <rect id="Rectangle_120" data-name="Rectangle 120" class="cls-1" width="1.19" height="1.19" transform="translate(13.812 7.224)"/>
  </g>
</svg>
