<?xml version="1.0" encoding="utf-8"?>
<!-- Generator: Adobe Illustrator 21.1.0, SVG Export Plug-In . SVG Version: 6.00 Build 0)  -->
<svg version="1.1" id="Layer_1" xmlns="http://www.w3.org/2000/svg" xmlns:xlink="http://www.w3.org/1999/xlink" x="0px" y="0px"
	 viewBox="0 0 60.6 41.2" style="enable-background:new 0 0 60.6 41.2;" xml:space="preserve">
<style type="text/css">
	.st0{fill:#CCCCCC;}
</style>
<path id="Path_1" class="st0" d="M22.5,39.2C22.5,39.2,22.5,39.2,22.5,39.2H12.1C5.4,39.2,0,33.6,0,26.9c0.1-6.7,5.5-12,12.1-12.1
	c0.5,0,1,0,1.5,0.1c1.5-4.3,5.5-7.2,10.1-7.2c1.1,0,2.1,0.2,3.1,0.5c3.4-5.9,10.8-7.9,16.7-4.5c3.8,2.2,6.1,6.2,6.1,10.6
	c0,0.2,0,0.4,0,0.6c6.2,0.7,10.9,5.9,10.9,12.1c0,6.7-5.5,12.2-12.2,12.2l-27.6,0 M22.4,36.5l25.8,0c5.2,0.1,9.5-4.2,9.6-9.4
	s-4.2-9.5-9.4-9.6c-0.1,0-0.1,0-0.2,0h-0.1c-0.4,0-0.8-0.2-1.1-0.5c-0.3-0.3-0.4-0.7-0.3-1.1c0.1-0.6,0.1-1.1,0.2-1.7
	c0-5.2-4.3-9.5-9.5-9.5c-3.7,0-7.1,2.2-8.7,5.7c-0.1,0.3-0.4,0.6-0.8,0.7c-0.3,0.1-0.7,0.1-1,0c-1-0.5-2.1-0.7-3.2-0.7
	c-3.7,0-7,2.6-7.8,6.3c-0.1,0.4-0.3,0.7-0.6,0.9c-0.3,0.2-0.7,0.3-1,0.2c-0.7-0.2-1.4-0.2-2.1-0.2c-5.2-0.1-9.5,4.2-9.6,9.4
	s4.2,9.5,9.4,9.6c0.1,0,0.1,0,0.2,0H22.4"/>
</svg>
