<svg xmlns="http://www.w3.org/2000/svg" viewBox="16479.449 1132.826 16.77 20.691">
  <defs>
    <style>
      .cls-1 {
        fill: #49C1C2;
        fill-rule: evenodd;
      }
      a.tealOutline:hover .cls-1{
      fill: #fff;
      }
    </style>
  </defs>
  <path id="Path_50" data-name="Path 50" class="cls-1" d="M10.8,2.217,4.775,8.242a.173.173,0,0,0,0,.227L10.8,14.438a.173.173,0,0,0,.227,0l.8-.8L7.105,8.924h12.9a.657.657,0,0,0,.682-.682h0a.657.657,0,0,0-.682-.682H7.162l4.661-4.6-.8-.8a.342.342,0,0,0-.227.057ZM2.728,15.689V1.08A1.118,1.118,0,0,0,1.648,0H1.08A1.118,1.118,0,0,0,0,1.08V15.689a1.118,1.118,0,0,0,1.08,1.08h.568a1.118,1.118,0,0,0,1.08-1.08Z" transform="translate(16479.45 1153.517) rotate(-90)"/>
</svg>
