<svg xmlns="http://www.w3.org/2000/svg" viewBox="13532.964 1480.889 19.034 21.727">
  <defs>
    <style>
      .cls-1 {
        fill: #ff5b57;
      }
    </style>
  </defs>
  <g id="Group_27" data-name="Group 27" transform="translate(13532.964 1480.889)">
    <g id="Group_23" data-name="Group 23" transform="translate(2.112)">
      <path id="Path_42" data-name="Path 42" class="cls-1" d="M65.308,5.758,64.218,4.75,60.481,1.3,59.259.174A.655.655,0,0,0,58.816,0H50.182A1.585,1.585,0,0,0,48.6,1.582v9.069h1.3V1.582a.277.277,0,0,1,.278-.278h7.987V6.236a.651.651,0,0,0,.652.652h5.4V20.146a.277.277,0,0,1-.278.278H50.182a.277.277,0,0,1-.278-.278V18.012H48.6v2.134a1.585,1.585,0,0,0,1.582,1.582H63.94a1.582,1.582,0,0,0,1.582-1.582V6.236A.643.643,0,0,0,65.308,5.758Z" transform="translate(-48.6)"/>
    </g>
    <g id="Group_24" data-name="Group 24" transform="translate(2.164 13.236)">
      <path id="Path_43" data-name="Path 43" class="cls-1" d="M50.86,304.626a1.446,1.446,0,0,0-.356-.026h-.7v.934h.713a.783.783,0,0,0,.5-.126.445.445,0,0,0,.139-.352.462.462,0,0,0-.083-.282A.406.406,0,0,0,50.86,304.626Z" transform="translate(-49.8 -304.6)"/>
    </g>
    <g id="Group_25" data-name="Group 25" transform="translate(5.301 13.241)">
      <path id="Path_44" data-name="Path 44" class="cls-1" d="M123.06,304.757a1.5,1.5,0,0,0-.5-.056H122v2.181h.574a1.55,1.55,0,0,0,.452-.052.6.6,0,0,0,.243-.139.885.885,0,0,0,.2-.356,1.772,1.772,0,0,0,.078-.565,1.313,1.313,0,0,0-.148-.7A.72.72,0,0,0,123.06,304.757Z" transform="translate(-122 -304.7)"/>
    </g>
    <g id="Group_26" data-name="Group 26" transform="translate(0 11.516)">
      <path id="Path_45" data-name="Path 45" class="cls-1" d="M11.872,269.832V265.8a.8.8,0,0,0-.8-.8H.8a.8.8,0,0,0-.8.8v4.037a.8.8,0,0,0,.8.8H11.081A.792.792,0,0,0,11.872,269.832Zm-8.043-1.947a1.251,1.251,0,0,1-.96.3h-.7v1.247H1.6V266.2H2.838a2.753,2.753,0,0,1,.482.03.957.957,0,0,1,.408.156.847.847,0,0,1,.274.326,1.074,1.074,0,0,1-.174,1.169Zm3.515.556a1.52,1.52,0,0,1-.222.469,1.106,1.106,0,0,1-.691.465,2.257,2.257,0,0,1-.513.056H4.737v-3.224H5.875a2.382,2.382,0,0,1,.565.048,1.115,1.115,0,0,1,.482.235,1.352,1.352,0,0,1,.387.556,2.155,2.155,0,0,1,.126.756A2.383,2.383,0,0,1,7.344,268.442Zm2.977-1.716H8.661v.786H10.1v.521H8.661v1.391H8.1V266.2h2.229v.526Z" transform="translate(0 -265)"/>
    </g>
  </g>
</svg>
