<svg xmlns="http://www.w3.org/2000/svg" viewBox="6839 56 23 23">
  <defs>
    <style>
      .cls-1 {
        fill: #fff;
      }
    </style>
  </defs>
  <path id="Path_4" data-name="Path 4" class="cls-1" d="M11.493,1.26h.321c.195.011.447.023.7.057.126.011.252.034.367.046s.229.034.321.057l.309.057c.149.034.172.183.172.47,0,0,.023.1.046.275a6.02,6.02,0,0,1,.092.6c.057.424.08.859.08.859l.195.057c.115.034.263.1.412.16s.3.126.412.183.183.092.183.092l.16.08c.092.057.218.126.355.195l.344.218a1.727,1.727,0,0,1,.149.1s.092-.057.229-.149.321-.206.515-.309.389-.206.527-.286.252-.126.252-.126c.172-.126.275-.195.367-.195a.164.164,0,0,1,.115.046h0a8.034,8.034,0,0,1,.733.7c.172.183.344.378.47.515s.195.241.195.241c.092.115.011.252-.172.47,0,0-.206.389-.447.756s-.493.71-.493.71.046.069.1.172.149.241.218.389c.034.069.08.137.115.206a1.36,1.36,0,0,0,.092.183c.023.057.046.1.057.137a.125.125,0,0,0,.023.046h0s.023.069.069.172.092.241.137.378l.069.206c.023.069.034.126.057.183l.057.172s.115.011.263.034.378.057.584.092a5.339,5.339,0,0,1,.6.126c.16.034.263.069.263.069.309.023.435.046.458.195a.317.317,0,0,1,.011.092c.011.057.023.137.034.229.034.183.046.435.069.687s.023.5.023.7v.321c0,.149-.149.195-.435.252,0,0-.412.16-.825.286s-.836.229-.836.229-.011.08-.034.195-.046.275-.08.435a2.022,2.022,0,0,0-.046.229c-.023.069-.034.137-.057.195-.034.115-.057.195-.057.195l-.057.172c-.034.1-.08.241-.137.378a3.009,3.009,0,0,1-.149.367c-.046.1-.069.172-.069.172s.08.08.183.195.252.286.389.447.275.344.378.47.16.218.16.218c.218.218.309.309.229.447,0,0-.069.1-.172.263s-.241.367-.389.573c-.3.412-.641.79-.641.79a.146.146,0,0,1-.126.057.781.781,0,0,1-.355-.149s-.412-.137-.825-.309c-.206-.08-.4-.172-.538-.241s-.241-.115-.241-.115-.241.218-.493.412c-.126.1-.263.195-.355.263l-.172.115a1.726,1.726,0,0,1-.149.1c-.092.057-.218.126-.344.206s-.263.137-.355.183a1.628,1.628,0,0,0-.16.08s.011.1.011.275.011.378.011.6c0,.435-.034.882-.034.882.034.309.034.435-.1.481,0,0-.115.046-.3.1s-.424.126-.676.183a10.121,10.121,0,0,1-1,.195h-.034c-.126,0-.195-.137-.286-.378,0,0-.057-.092-.137-.241s-.183-.332-.286-.527a8.3,8.3,0,0,1-.367-.779s-.08,0-.206.011h-.447c-.16-.011-.321-.023-.447-.023s-.206-.023-.206-.023-.069-.011-.183-.023-.252-.046-.4-.069-.286-.057-.389-.08a.608.608,0,0,1-.126-.034.181.181,0,0,0-.046-.011s-.252.344-.538.687-.6.653-.6.653c-.149.218-.218.321-.321.321a.145.145,0,0,1-.069-.011s-.115-.046-.3-.115-.412-.172-.63-.286a8.76,8.76,0,0,1-.882-.493c-.126-.08-.1-.229,0-.493,0,0,.069-.435.16-.859.046-.206.1-.424.149-.573s.069-.263.069-.263a1.726,1.726,0,0,1-.16-.126c-.092-.08-.218-.183-.332-.286s-.241-.218-.321-.309-.137-.149-.137-.149a.816.816,0,0,1-.126-.137c-.069-.08-.172-.183-.263-.309s-.183-.229-.252-.321-.1-.149-.1-.149l-.263.057c-.16.034-.367.08-.584.115-.435.08-.871.115-.871.115a1.21,1.21,0,0,1-.332.069.153.153,0,0,1-.16-.092s-.011-.023-.046-.08l-.1-.206c-.092-.172-.195-.4-.309-.63s-.195-.47-.263-.653c-.057-.16-.1-.275-.1-.275-.046-.149.069-.241.321-.378,0,0,.08-.069.206-.183s.3-.241.47-.378c.344-.263.7-.5.7-.5s-.011-.08-.034-.195A3.49,3.49,0,0,1,3.2,12.7l-.034-.241c-.011-.08-.011-.149-.023-.206-.011-.126-.023-.206-.023-.206s0-.069-.011-.183-.011-.252-.011-.4,0-.286.011-.4.011-.183.011-.183-.092-.046-.241-.126-.332-.183-.527-.286-.378-.229-.515-.321S1.608,10,1.608,10c-.286-.126-.389-.183-.367-.332a.366.366,0,0,1,.011-.08c.011-.057.023-.126.046-.229a1.088,1.088,0,0,0,.115-.309c.034-.115.069-.241.1-.355a9.633,9.633,0,0,1,.332-.962c.034-.092.1-.115.218-.115a1.478,1.478,0,0,1,.275.034h.275c.16,0,.378,0,.6.011.435.023.859.069.859.069a1.785,1.785,0,0,1,.1-.172c.034-.057.069-.115.1-.183A1.992,1.992,0,0,1,4.4,7.17,4.1,4.1,0,0,1,4.643,6.8c.069-.1.115-.16.115-.16s.046-.057.115-.149.16-.195.252-.309.195-.218.263-.3L5.48,5.8l.034-.034s-.172-.389-.321-.8-.263-.836-.263-.836c-.137-.275-.183-.4-.069-.493l.252-.195c.149-.115.355-.263.561-.4a9.482,9.482,0,0,1,.871-.527.291.291,0,0,1,.08-.023c.1,0,.206.1.344.263,0,0,.08.069.218.172s.3.252.447.4.309.3.424.412.183.195.183.195l.183-.08c.115-.046.263-.092.424-.149s.309-.092.424-.126.195-.046.195-.046a1.257,1.257,0,0,0,.172-.046c.1-.023.252-.046.389-.069s.286-.034.4-.057.183-.011.183-.011h0s.115-.412.275-.825.332-.813.332-.813c.092-.321.126-.447.275-.447m-.08,16.563a6.234,6.234,0,0,0,1.443-.172,7.5,7.5,0,0,0,.767-.229c.241-.092.458-.195.641-.286s.332-.183.435-.241.16-.1.16-.1a.125.125,0,0,1,.046-.023c.023-.023.069-.046.115-.08s.1-.08.172-.126.137-.115.218-.172A6.336,6.336,0,0,0,16.441,15.3,6.225,6.225,0,0,0,17.186,14c.08-.195.137-.344.172-.458.023-.057.034-.1.046-.126a.181.181,0,0,0,.011-.046,1.683,1.683,0,0,0,.046-.183c.011-.057.034-.126.046-.206s.046-.172.057-.275a6.1,6.1,0,0,0,.092-1.5,7,7,0,0,0-.263-1.478c-.023-.1-.069-.183-.092-.263a1.955,1.955,0,0,0-.08-.206l-.069-.172a.125.125,0,0,1-.023-.046c-.011-.034-.034-.069-.057-.126a3.317,3.317,0,0,0-.229-.435,6.753,6.753,0,0,0-.893-1.2,5.974,5.974,0,0,0-1.157-.962c-.092-.057-.16-.1-.241-.149a1.668,1.668,0,0,0-.183-.1c-.046-.034-.092-.046-.126-.069a.125.125,0,0,1-.046-.023,1.323,1.323,0,0,0-.172-.08c-.115-.046-.263-.115-.458-.183s-.424-.137-.664-.206a5.684,5.684,0,0,0-.79-.137,4.878,4.878,0,0,0-.7-.046,8,8,0,0,0-.8.046,4.116,4.116,0,0,0-.676.126,1.661,1.661,0,0,0-.183.046c-.115.034-.275.08-.47.149a5.67,5.67,0,0,0-.641.275,5.448,5.448,0,0,0-.7.4A6.276,6.276,0,0,0,6.8,7.331a2.657,2.657,0,0,0-.183.206,1.5,1.5,0,0,0-.137.172c-.069.092-.115.149-.115.149l-.034.034c-.023.023-.046.069-.08.115-.069.092-.16.241-.263.412a6.766,6.766,0,0,0-.6,1.375,7.124,7.124,0,0,0-.252,1.478,3.466,3.466,0,0,0,0,.493,1.232,1.232,0,0,0,.011.183,1.232,1.232,0,0,1,.011.183c.011.115.034.286.057.493a6.535,6.535,0,0,0,.424,1.432A6.433,6.433,0,0,0,6.4,15.349a3.145,3.145,0,0,0,.321.378.936.936,0,0,0,.092.1l.034.034s.046.046.126.137c.046.046.092.092.16.149a1.666,1.666,0,0,0,.206.183,6.2,6.2,0,0,0,1.249.825,5.005,5.005,0,0,0,.733.309,7,7,0,0,0,.676.195c.195.046.367.069.481.092s.183.023.183.023.275.034.676.046h.08M11.493,0h0a1.427,1.427,0,0,0-1.26.745,2.249,2.249,0,0,0-.195.527c-.069.16-.206.47-.321.79-.011.046-.034.08-.046.126l-.252.046-.034.011-.034.011L9.179,2.3l-.195.046H8.962c-.092.023-.195.057-.3.092-.023.011-.057.011-.08.023a.655.655,0,0,0-.092-.08c-.206-.195-.4-.355-.493-.435a1.046,1.046,0,0,0-.149-.115,1.658,1.658,0,0,0-1.226-.619h0a1.411,1.411,0,0,0-.676.172h0c-.115.057-.218.115-.321.172-.241.137-.47.275-.664.412s-.389.275-.55.389l-.069.057-.011-.011-.023.011-.241.195A1.426,1.426,0,0,0,3.555,4a2.133,2.133,0,0,0,.183.538c.046.172.149.493.263.813a.479.479,0,0,0,.046.115c-.069.08-.137.16-.195.241l-.1.137h0l-.011.011L3.395,6.3l.011.034c-.011.011-.011.023-.023.034H3.269c-.263-.011-.5-.011-.664-.011H2.421a3.622,3.622,0,0,0-.367-.034,1.468,1.468,0,0,0-1.4.916c-.011.046-.046.115-.08.206l-.344.893.046.023-.057.229-.034.126V8.74q-.034.155-.069.275c-.011.023-.011.057-.023.08v.023l-.023.115-.023.1-.011.023v.023l-.011.08a1.438,1.438,0,0,0,.5,1.363,2.454,2.454,0,0,0,.493.3l.137.092h0c.16.1.367.229.573.355a1.007,1.007,0,0,0,.115.069,1.46,1.46,0,0,0,.011.229v.057l.011.183v.069l.011.195.023.206v.069l.011.069.011.057c-.034.023-.057.046-.092.069q-.241.189-.515.412h0l-.126.1a1.9,1.9,0,0,0-.458.355,1.432,1.432,0,0,0-.321,1.443v.023l.1.3c.069.206.16.435.252.653l.034.08.011.023.011.023c.115.252.229.493.344.7l.1.195a1.5,1.5,0,0,0,.08.149,1.451,1.451,0,0,0,1.249.7,1.874,1.874,0,0,0,.573-.092c.183-.023.515-.057.848-.115.046-.011.08-.011.126-.023.034.046.08.092.1.126a.3.3,0,0,1,.057.069h0a1.647,1.647,0,0,0,.183.195l.126.126c.092.092.183.183.275.263l.023.023a.407.407,0,0,0-.023.115c-.069.321-.126.641-.16.825a2.208,2.208,0,0,0-.115.573A1.452,1.452,0,0,0,5.3,21.385c.011.011.023.011.034.023l.6.367.023-.011c.1.057.218.115.332.172.195.1.389.183.538.252a1.193,1.193,0,0,0,.137.057l.034.011.034.011.3.115h0a1.362,1.362,0,0,0,.515.092,1.571,1.571,0,0,0,1.306-.779c.126-.137.355-.378.573-.63.023-.034.057-.069.08-.1a2.877,2.877,0,0,0,.309.046l.183.023.206.023h.069a.514.514,0,0,1,.126.011c.069,0,.149.011.241.011.023.034.034.069.057.1.092.183.206.389.309.573.034.069.069.115.092.16a1.835,1.835,0,0,0,.229.447A1.469,1.469,0,0,0,12.81,23a1.245,1.245,0,0,0,.206-.011,11.074,11.074,0,0,0,1.111-.218c.218-.046.424-.115.6-.16a.646.646,0,0,0,.137-.046l.023-.011.023-.011c.1-.034.183-.057.241-.08.034-.011.057-.023.092-.034h0a1.435,1.435,0,0,0,.939-1.111,2.005,2.005,0,0,0,.011-.584c.011-.172.034-.515.034-.848v-.137h0c.092-.057.172-.1.252-.149H16.5l.149-.1h0l.172-.115.034-.023.023-.023a.636.636,0,0,1,.092-.069c.057-.046.126-.092.195-.137a.407.407,0,0,1,.1.046c.309.126.619.241.79.3a1.83,1.83,0,0,0,.882.252A1.434,1.434,0,0,0,20,19.254h0a3,3,0,0,0,.252-.286c.183-.218.344-.412.481-.607l.011-.011.011-.011.069-.092c.126-.183.263-.378.367-.55l.16-.263.011-.023.011-.023a1.465,1.465,0,0,0-.011-1.455,2.768,2.768,0,0,0-.355-.447l-.1-.137c-.126-.16-.275-.355-.424-.538a.655.655,0,0,0-.08-.092c.034-.092.057-.16.08-.229l.011-.046c.034-.115.057-.183.057-.183l.011-.023.011-.023.057-.195h0l.011-.034.046-.172.011-.023.011-.023.034-.126c.034-.011.08-.023.115-.034.321-.1.63-.218.79-.275a2.07,2.07,0,0,0,.55-.183,1.437,1.437,0,0,0,.8-1.271v-.309h0c0-.195-.011-.447-.023-.779v-.034c-.023-.263-.046-.527-.08-.756l-.011-.1-.011-.115c-.011-.069-.023-.126-.023-.149a1.419,1.419,0,0,0-.939-1.1,2.445,2.445,0,0,0-.561-.115l-.172-.046h0c-.195-.046-.435-.092-.664-.137-.046-.011-.08-.011-.126-.023a2.8,2.8,0,0,0-.115-.275l-.115-.149h0V7.777l-.252-.63c.011-.023.023-.034.034-.057.183-.275.344-.573.435-.722a2.388,2.388,0,0,0,.309-.493A1.412,1.412,0,0,0,20.485,4.4l-.195-.241-.011-.023-.011-.023-.057-.069c-.126-.137-.275-.321-.447-.5s-.355-.355-.561-.55l-.275-.241h0A1.39,1.39,0,0,0,18,2.405a1.728,1.728,0,0,0-1.008.367c-.046.023-.1.057-.172.092-.1.057-.332.172-.584.309-.034.023-.08.046-.115.069l-.229-.126L15.868,3.1l-.023-.011-.16-.08L15.5,2.921l-.023-.011L15.456,2.9c-.1-.046-.229-.1-.355-.149,0-.034-.011-.08-.011-.115-.034-.286-.08-.527-.1-.653-.011-.069-.023-.137-.034-.183a1.709,1.709,0,0,0-.092-.573A1.433,1.433,0,0,0,13.807.241c-.046-.011-.195-.046-.4-.08L13.142.115h-.1L12.9.092,12.673.069c-.218-.023-.435-.046-.619-.046a.605.605,0,0,1-.149-.011h-.412V0ZM10.279,6.7s.195-.046.493-.092h0a4.441,4.441,0,0,1,.641-.034,4.165,4.165,0,0,1,.55.034h.046a5.656,5.656,0,0,1,.607.115c.218.057.389.115.515.16h.023c.1.034.195.08.286.115l.069.034.126.069.034.023c.011.011.023.011.046.023h.011l.011.011.069.046.115.057a.5.5,0,0,0,.08.046c.034.023.08.046.115.069a5.083,5.083,0,0,1,1.615,1.707c.115.206.149.286.172.321l.011.011.011.011.057.115.011.034-.011-.034v.011h0l.057.149v.023a.789.789,0,0,0,.034.092c.011.046.034.092.046.137a.194.194,0,0,1,.023.057l.011.034.011.023a6.21,6.21,0,0,1,.218,1.168,5.094,5.094,0,0,1-.069,1.191l-.011.034V12.5a.5.5,0,0,0-.011.057l-.034.137a.354.354,0,0,1-.023.092v.023l-.046.16h0l-.023.057-.023.069v.023c-.011.034-.046.126-.126.344a5.269,5.269,0,0,1-.584,1.031,4.881,4.881,0,0,1-.813.859.629.629,0,0,1-.1.08.3.3,0,0,1-.069.057l-.046.034-.126.092-.011.011h-.011a.087.087,0,0,1-.046.023l-.034.023-.126.08a.25.25,0,0,0-.057.034,2.981,2.981,0,0,1-.275.149l-.011.011-.011.011a4.573,4.573,0,0,1-.493.218c-.195.069-.4.137-.584.183H12.57a5.228,5.228,0,0,1-1.145.137H11.39c-.3,0-.5-.023-.5-.023h-.034L10.7,16.46c-.034,0-.069-.011-.1-.011a2.346,2.346,0,0,1-.275-.057h-.046a5.064,5.064,0,0,1-.515-.149A4.81,4.81,0,0,1,9.191,16l-.023.034-.011-.011a5.64,5.64,0,0,1-.985-.653L8.16,15.36l-.011-.011a1.141,1.141,0,0,1-.126-.115h0l-.069-.069-.023-.023h0l-.011-.011-.137-.137h0l-.011-.011-.011-.011-.08-.08-.011-.011-.011-.011c-.034-.034-.1-.115-.241-.286a4.959,4.959,0,0,1-.6-1.019,5.411,5.411,0,0,1-.332-1.123,3.138,3.138,0,0,1-.046-.367v-.046l-.011-.149v-.561a5.2,5.2,0,0,1,.195-1.157,5.777,5.777,0,0,1,.47-1.088A2.21,2.21,0,0,1,7.3,8.751l.011-.011.011-.011.057-.08.011-.011h0l.115-.149.011-.023h0c.011-.011.011-.023.023-.023a.5.5,0,0,0,.069-.08h0c.046-.046.08-.092.115-.126l.011-.011.011-.011a4.669,4.669,0,0,1,.9-.767l.011-.011.011-.011a4.114,4.114,0,0,1,.538-.309c.206-.092.367-.16.493-.206L9.729,6.9l.023-.011c.092-.034.183-.057.263-.08a.354.354,0,0,1,.092-.023l.149-.034.023-.011V6.7Z" transform="translate(6838.995 56)"/>
</svg>
