<?xml version="1.0" encoding="utf-8"?>
<!-- Generator: Adobe Illustrator 21.1.0, SVG Export Plug-In . SVG Version: 6.00 Build 0)  -->
<svg version="1.1" id="Layer_1" xmlns="http://www.w3.org/2000/svg" xmlns:xlink="http://www.w3.org/1999/xlink" x="0px" y="0px"
	 viewBox="0 0 136 43.1" style="enable-background:new 0 0 136 43.1;" xml:space="preserve">
<style type="text/css">
	.st0{fill:#1CCFC9;}
	.st1{fill:#95D600;}
	.st2{fill:#FFA400;}
	.st3{fill:#49C1C2;}
	.st4{fill:#786E63;}
</style>
<g id="Group_121" transform="translate(11660.992 2782.997)">
	<path id="Path_126" class="st0" d="M-11628.8-2778L-11628.8-2778c-1.6-1-3.7-0.5-4.7,1.1l0,0l-0.3,0.5l3,4.8
		c0.4,0.6,0.6,1.4,0.6,2.1l2.4-3.8C-11626.7-2774.9-11627.2-2777-11628.8-2778L-11628.8-2778z"/>
	<path id="Path_127" class="st1" d="M-11637.7-2771.7l3-4.8l-0.3-0.5c-1-1.6-3.1-2-4.7-1l0,0c-1.6,1-2.1,3.1-1.1,4.7l0,0l2.4,3.8
		C-11638.3-2770.3-11638.1-2771-11637.7-2771.7z"/>
	<g id="Group_118" transform="translate(12.446 9.416)">
		<path id="Path_128" class="st2" d="M-11644.8-2776c1.6-1,2.1-3.1,1.1-4.7l0,0l-2.9-4.6l-2.9,4.5c-1,1.6-0.5,3.7,1.1,4.7l0,0l0,0
			c0.3,0.2,0.7,0.4,1.1,0.4l0,0c0,0,0.1,0,0.2,0l0,0h0.1h0.8h0.1h0.1h0.1l0,0C-11645.5-2775.6-11645.2-2775.8-11644.8-2776
			L-11644.8-2776z"/>
	</g>
</g>
<g>
	<path class="st3" d="M54.1,23.1c-1.3,0.4-3.8,1.1-6.3,1.1c-3.4,0-5.9-0.9-7.7-2.5c-1.7-1.7-2.7-4.2-2.7-6.9c0-6.3,4.6-9.9,10.8-9.9
		c2.4,0,4.3,0.5,5.2,0.9l-0.9,3.4c-1-0.4-2.3-0.8-4.4-0.8c-3.6,0-6.2,2-6.2,6.1c0,3.9,2.4,6.2,5.9,6.2c1,0,1.8-0.1,2.1-0.3v-3.9H47
		v-3.3h7v9.9H54.1z"/>
	<path class="st3" d="M57.4,5.3C58.8,5.1,60.8,5,63.1,5c2.8,0,4.8,0.4,6.1,1.5c1.1,0.9,1.7,2.2,1.7,3.9c0,2.4-1.7,4.1-3.3,4.6v0.1
		c1.3,0.5,2,1.8,2.5,3.5c0.6,2.1,1.2,4.6,1.5,5.3h-4.4c-0.3-0.5-0.8-2.1-1.3-4.4c-0.5-2.4-1.3-3-3.1-3h-1.3V24h-4.1V5.3z M61.6,13.5
		h1.7c2.1,0,3.4-1.1,3.4-2.7c0-1.7-1.2-2.6-3.1-2.6c-1,0-1.6,0.1-1.9,0.1v5.2H61.6z"/>
	<path class="st3" d="M91.2,14.3c0,6.2-3.8,9.9-9.3,9.9c-5.6,0-8.9-4.2-8.9-9.6c0-5.7,3.6-9.9,9.2-9.9C88,4.8,91.2,9.1,91.2,14.3z
		 M77.5,14.6c0,3.7,1.7,6.3,4.6,6.3c2.9,0,4.5-2.7,4.5-6.4c0-3.4-1.6-6.3-4.6-6.3C79.2,8.2,77.5,10.9,77.5,14.6z"/>
	<path class="st3" d="M96.8,24L92.3,5.1h4.6l1.4,7.8c0.4,2.2,0.8,4.7,1.1,6.6h0.1c0.3-2,0.8-4.3,1.2-6.6l1.6-7.7h4.5l1.5,8
		c0.4,2.2,0.7,4.2,1,6.3h0.1c0.3-2.1,0.7-4.3,1.1-6.6l1.5-7.7h4.3L111.6,24H107l-1.6-8.1c-0.4-1.9-0.7-3.7-0.9-5.8h-0.1
		c-0.3,2.1-0.6,3.9-1.1,5.8l-1.8,8.1H96.8z"/>
</g>
<g>
	<path class="st4" d="M78.3,26.2c0-0.1,0-0.1,0.1-0.2c0.1,0,0.1-0.1,0.2-0.1c0.1,0,0.2,0.1,0.3,0.2l2.3,7.6l2.3-7.6
		c0-0.1,0.1-0.2,0.2-0.2s0.2,0,0.2,0.1c0.1,0.1,0.1,0.1,0.1,0.2l0,0l0,0l-2.5,8.3c0,0.1-0.2,0.2-0.3,0.2c-0.2,0-0.3-0.1-0.3-0.2
		L78.3,26.2L78.3,26.2z"/>
	<path class="st4" d="M87.8,34.4v-8.3c0-0.2,0.1-0.3,0.3-0.3s0.3,0.2,0.3,0.3v8.3c0,0.2-0.1,0.3-0.3,0.3S87.8,34.6,87.8,34.4z"/>
	<path class="st4" d="M92,26.2c0-0.1,0-0.1,0.1-0.2c0.1,0,0.1-0.1,0.2-0.1s0.2,0.1,0.3,0.2l2.3,7.6l2.3-7.6c0-0.1,0.1-0.2,0.2-0.2
		s0.2,0,0.2,0.1c0.1,0.1,0.1,0.1,0.1,0.2l0,0l0,0l-2.5,8.3c0,0.1-0.2,0.2-0.3,0.2c-0.2,0-0.3-0.1-0.3-0.2L92,26.2L92,26.2z"/>
	<path class="st4" d="M101.3,32.2v-3.8c0-0.9,0.2-1.5,0.7-1.9c0.4-0.4,1-0.6,1.8-0.6c0.7,0,1.3,0.2,1.8,0.6c0.4,0.4,0.7,1,0.7,1.9
		v3.8c0,0.9-0.2,1.5-0.7,1.9c-0.4,0.4-1,0.6-1.8,0.6c-0.7,0-1.3-0.2-1.8-0.6C101.5,33.7,101.3,33.1,101.3,32.2z M101.9,32.2
		c0,1.3,0.6,1.9,1.8,1.9c0.6,0,1-0.2,1.3-0.5s0.5-0.8,0.5-1.5v-3.8c0-0.6-0.2-1.1-0.5-1.5s-0.8-0.5-1.3-0.5c-1.2,0-1.8,0.6-1.8,1.9
		V32.2z"/>
	<path class="st4" d="M109.9,33.5c0-0.1,0-0.2,0.1-0.2c0.1-0.1,0.1-0.1,0.2-0.1c0,0,0.1,0.1,0.2,0.2l0.3,0.3
		c0.1,0.1,0.3,0.2,0.6,0.3c0.3,0.1,0.6,0.2,0.9,0.2c0.6,0,1.1-0.2,1.4-0.5s0.5-0.8,0.5-1.3c0-0.4-0.1-0.8-0.3-1.1
		c-0.2-0.3-0.4-0.5-0.7-0.6s-0.6-0.3-1-0.4c-0.3-0.1-0.7-0.3-1-0.4s-0.5-0.4-0.7-0.7c-0.2-0.3-0.3-0.7-0.3-1.2
		c0-0.4,0.1-0.8,0.2-1.1c0.2-0.3,0.4-0.5,0.6-0.7c0.3-0.1,0.5-0.3,0.8-0.3c0.3-0.1,0.5-0.1,0.8-0.1c0.5,0,0.9,0.1,1.3,0.2
		s0.6,0.3,0.6,0.5c0,0.1,0,0.1-0.1,0.2s-0.1,0.1-0.2,0.1c0,0-0.1,0-0.3-0.1s-0.3-0.2-0.6-0.2s-0.5-0.1-0.8-0.1c-0.5,0-1,0.1-1.3,0.3
		c-0.4,0.2-0.5,0.6-0.5,1.2c0,0.3,0.1,0.6,0.2,0.8s0.3,0.4,0.6,0.5s0.5,0.2,0.8,0.3c0.3,0.1,0.6,0.2,0.9,0.3
		c0.3,0.1,0.5,0.3,0.8,0.4s0.4,0.4,0.6,0.8c0.1,0.3,0.2,0.7,0.2,1.2c0,0.8-0.2,1.4-0.7,1.8c-0.4,0.4-1,0.6-1.8,0.6
		c-0.7,0-1.3-0.1-1.7-0.4C110.1,34,109.9,33.7,109.9,33.5z"/>
</g>
</svg>
