<?xml version="1.0" encoding="utf-8"?>
<!-- Generator: Adobe Illustrator 21.1.0, SVG Export Plug-In . SVG Version: 6.00 Build 0)  -->
<svg version="1.1" id="Layer_1" xmlns="http://www.w3.org/2000/svg" xmlns:xlink="http://www.w3.org/1999/xlink" x="0px" y="0px"
	 viewBox="0 0 136 43.1" style="enable-background:new 0 0 136 43.1;" xml:space="preserve">
<style type="text/css">
	.st0{fill:#1CCFC9;}
	.st1{fill:#95D600;}
	.st2{fill:#FFA400;}
	.st3{display:none;}
	.st4{display:inline;fill:#49C1C2;}
	.st5{display:inline;fill:#786E63;}
	.st6{fill:#49C1C2;}
	.st7{fill:#786E63;}
</style>
<g id="Group_121" transform="translate(11660.992 2782.997)">
	<path id="Path_126" class="st0" d="M-11644.2-2778L-11644.2-2778c-1.6-1-3.7-0.5-4.7,1.1l0,0l-0.3,0.5l3,4.8
		c0.4,0.6,0.6,1.4,0.6,2.1l2.4-3.8C-11642.1-2774.9-11642.6-2777-11644.2-2778L-11644.2-2778z"/>
	<path id="Path_127" class="st1" d="M-11653.1-2771.7l3-4.8l-0.3-0.5c-1-1.6-3.1-2-4.7-1l0,0c-1.6,1-2.1,3.1-1.1,4.7l0,0l2.4,3.8
		C-11653.7-2770.3-11653.5-2771-11653.1-2771.7z"/>
	<g id="Group_118" transform="translate(12.446 9.416)">
		<path id="Path_128" class="st2" d="M-11660.2-2776c1.6-1,2.1-3.1,1.1-4.7l0,0l-2.9-4.6l-2.9,4.5c-1,1.6-0.5,3.7,1.1,4.7l0,0l0,0
			c0.3,0.2,0.7,0.4,1.1,0.4l0,0c0,0,0.1,0,0.2,0l0,0h0.1h0.8h0.1h0.1h0.1l0,0C-11660.9-2775.6-11660.6-2775.8-11660.2-2776
			L-11660.2-2776z"/>
	</g>
</g>
<g class="st3">
	<path class="st4" d="M26,24L21.5,5.1H26l1.4,7.8c0.4,2.2,0.8,4.7,1.1,6.6h0.1c0.3-2,0.8-4.3,1.2-6.6l1.6-7.7H36l1.5,8
		c0.4,2.2,0.7,4.2,1,6.3h0.1c0.3-2.1,0.7-4.3,1.1-6.6l1.5-7.7h4.3L40.7,24h-4.6l-1.6-8.1c-0.4-1.9-0.7-3.7-0.9-5.8h-0.1
		c-0.3,2.1-0.6,3.9-1.1,5.8L30.6,24H26z"/>
	<path class="st4" d="M50.7,19.1L49.3,24h-4.4l5.8-18.9h5.6L62.1,24h-4.6L56,19.2h-5.3V19.1z M55.4,15.9l-1.2-4
		c-0.3-1.1-0.7-2.5-1-3.6h-0.1c-0.3,1.1-0.6,2.5-0.9,3.6l-1.1,4H55.4z"/>
	<path class="st4" d="M66.3,24v-7.7l-6-11.1h4.9l1.9,4.5c0.6,1.4,1,2.4,1.5,3.6h0.1c0.4-1.2,0.9-2.3,1.4-3.6L72,5.1h4.8l-6.2,11V24
		H66.3z"/>
</g>
<g class="st3">
	<path class="st5" d="M36.9,26.2c0-0.1,0-0.1,0.1-0.2c0.1,0,0.1-0.1,0.2-0.1c0.1,0,0.2,0.1,0.3,0.2l2.3,7.6l2.3-7.6
		c0-0.1,0.1-0.2,0.2-0.2c0.1,0,0.2,0,0.2,0.1c0.1,0.1,0.1,0.1,0.1,0.2l0,0l0,0l-2.5,8.3c0,0.1-0.2,0.2-0.3,0.2
		c-0.2,0-0.3-0.1-0.3-0.2L36.9,26.2L36.9,26.2z"/>
	<path class="st5" d="M46.4,34.4v-8.3c0-0.2,0.1-0.3,0.3-0.3S47,26,47,26.1v8.3c0,0.2-0.1,0.3-0.3,0.3S46.4,34.6,46.4,34.4z"/>
	<path class="st5" d="M50.6,26.2c0-0.1,0-0.1,0.1-0.2c0.1,0,0.1-0.1,0.2-0.1c0.1,0,0.2,0.1,0.3,0.2l2.3,7.6l2.3-7.6
		c0-0.1,0.1-0.2,0.2-0.2c0.1,0,0.2,0,0.2,0.1c0.1,0.1,0.1,0.1,0.1,0.2l0,0l0,0l-2.5,8.3c0,0.1-0.2,0.2-0.3,0.2
		c-0.2,0-0.3-0.1-0.3-0.2L50.6,26.2L50.6,26.2z"/>
	<path class="st5" d="M59.9,32.2v-3.8c0-0.9,0.2-1.5,0.7-1.9c0.4-0.4,1-0.6,1.8-0.6c0.7,0,1.3,0.2,1.8,0.6c0.4,0.4,0.7,1,0.7,1.9
		v3.8c0,0.9-0.2,1.5-0.7,1.9c-0.4,0.4-1,0.6-1.8,0.6c-0.7,0-1.3-0.2-1.8-0.6C60.1,33.7,59.9,33.1,59.9,32.2z M60.5,32.2
		c0,1.3,0.6,1.9,1.8,1.9c0.6,0,1-0.2,1.3-0.5s0.5-0.8,0.5-1.5v-3.8c0-0.6-0.2-1.1-0.5-1.5s-0.8-0.5-1.3-0.5c-1.2,0-1.8,0.6-1.8,1.9
		V32.2z"/>
	<path class="st5" d="M68.5,33.5c0-0.1,0-0.2,0.1-0.2c0.1-0.1,0.1-0.1,0.2-0.1c0,0,0.1,0.1,0.2,0.2l0.3,0.3c0.1,0.1,0.3,0.2,0.6,0.3
		c0.3,0.1,0.6,0.2,0.9,0.2c0.6,0,1.1-0.2,1.4-0.5s0.5-0.8,0.5-1.3c0-0.4-0.1-0.8-0.3-1.1c-0.2-0.3-0.4-0.5-0.7-0.6s-0.6-0.3-1-0.4
		c-0.3-0.1-0.7-0.3-1-0.4s-0.5-0.4-0.7-0.7c-0.2-0.3-0.3-0.7-0.3-1.2c0-0.4,0.1-0.8,0.2-1.1c0.2-0.3,0.4-0.5,0.6-0.7
		c0.3-0.1,0.5-0.3,0.8-0.3c0.3-0.1,0.5-0.1,0.8-0.1c0.5,0,0.9,0.1,1.3,0.2s0.6,0.3,0.6,0.5c0,0.1,0,0.1-0.1,0.2s-0.1,0.1-0.2,0.1
		c0,0-0.1,0-0.3-0.1s-0.3-0.2-0.6-0.2s-0.5-0.1-0.8-0.1c-0.5,0-1,0.1-1.3,0.3c-0.4,0.2-0.5,0.6-0.5,1.2c0,0.3,0.1,0.6,0.2,0.8
		s0.3,0.4,0.6,0.5s0.5,0.2,0.8,0.3c0.3,0.1,0.6,0.2,0.9,0.3c0.3,0.1,0.5,0.3,0.8,0.4s0.4,0.4,0.6,0.8c0.1,0.3,0.2,0.7,0.2,1.2
		c0,0.8-0.2,1.4-0.7,1.8c-0.4,0.4-1,0.6-1.8,0.6c-0.7,0-1.3-0.1-1.7-0.4C68.7,34,68.5,33.7,68.5,33.5z"/>
</g>
<g class="st3">
	<path class="st4" d="M38.7,23.1c-1.3,0.4-3.8,1.1-6.3,1.1c-3.4,0-5.9-0.9-7.7-2.5C23,20,22,17.5,22,14.8c0-6.3,4.6-9.9,10.8-9.9
		c2.4,0,4.3,0.5,5.2,0.9l-0.9,3.4c-1-0.4-2.3-0.8-4.4-0.8c-3.6,0-6.2,2-6.2,6.1c0,3.9,2.4,6.2,5.9,6.2c1,0,1.8-0.1,2.1-0.3v-3.9
		h-2.9v-3.3h7v9.9H38.7z"/>
	<path class="st4" d="M42,5.3C43.4,5.1,45.4,5,47.7,5c2.8,0,4.8,0.4,6.1,1.5c1.1,0.9,1.7,2.2,1.7,3.9c0,2.4-1.7,4.1-3.3,4.6v0.1
		c1.3,0.5,2,1.8,2.5,3.5c0.6,2.1,1.2,4.6,1.5,5.3h-4.4c-0.3-0.5-0.8-2.1-1.3-4.4c-0.5-2.4-1.3-3-3.1-3h-1.3V24H42V5.3z M46.2,13.5
		h1.7c2.1,0,3.4-1.1,3.4-2.7c0-1.7-1.2-2.6-3.1-2.6c-1,0-1.6,0.1-1.9,0.1v5.2H46.2z"/>
	<path class="st4" d="M75.8,14.3c0,6.2-3.8,9.9-9.3,9.9c-5.6,0-8.9-4.2-8.9-9.6c0-5.7,3.6-9.9,9.2-9.9C72.6,4.8,75.8,9.1,75.8,14.3z
		 M62.1,14.6c0,3.7,1.7,6.3,4.6,6.3c2.9,0,4.5-2.7,4.5-6.4c0-3.4-1.6-6.3-4.6-6.3C63.8,8.2,62.1,10.9,62.1,14.6z"/>
	<path class="st4" d="M81.4,24L76.9,5.1h4.6l1.4,7.8c0.4,2.2,0.8,4.7,1.1,6.6h0.1c0.3-2,0.8-4.3,1.2-6.6l1.6-7.7h4.5l1.5,8
		c0.4,2.2,0.7,4.2,1,6.3H94c0.3-2.1,0.7-4.3,1.1-6.6l1.5-7.7h4.3L96.2,24h-4.6L90,15.9c-0.4-1.9-0.7-3.7-0.9-5.8H89
		c-0.3,2.1-0.6,3.9-1.1,5.8L86.1,24H81.4z"/>
</g>
<g class="st3">
	<path class="st5" d="M62.9,26.2c0-0.1,0-0.1,0.1-0.2c0.1,0,0.1-0.1,0.2-0.1c0.1,0,0.2,0.1,0.3,0.2l2.3,7.6l2.3-7.6
		c0-0.1,0.1-0.2,0.2-0.2s0.2,0,0.2,0.1c0.1,0.1,0.1,0.1,0.1,0.2l0,0l0,0l-2.5,8.3c0,0.1-0.2,0.2-0.3,0.2c-0.2,0-0.3-0.1-0.3-0.2
		L62.9,26.2L62.9,26.2z"/>
	<path class="st5" d="M72.4,34.4v-8.3c0-0.2,0.1-0.3,0.3-0.3S73,26,73,26.1v8.3c0,0.2-0.1,0.3-0.3,0.3S72.4,34.6,72.4,34.4z"/>
	<path class="st5" d="M76.6,26.2c0-0.1,0-0.1,0.1-0.2c0.1,0,0.1-0.1,0.2-0.1s0.2,0.1,0.3,0.2l2.3,7.6l2.3-7.6c0-0.1,0.1-0.2,0.2-0.2
		s0.2,0,0.2,0.1c0.1,0.1,0.1,0.1,0.1,0.2l0,0l0,0l-2.5,8.3c0,0.1-0.2,0.2-0.3,0.2c-0.2,0-0.3-0.1-0.3-0.2L76.6,26.2L76.6,26.2z"/>
	<path class="st5" d="M85.9,32.2v-3.8c0-0.9,0.2-1.5,0.7-1.9c0.4-0.4,1-0.6,1.8-0.6c0.7,0,1.3,0.2,1.8,0.6c0.4,0.4,0.7,1,0.7,1.9
		v3.8c0,0.9-0.2,1.5-0.7,1.9c-0.4,0.4-1,0.6-1.8,0.6c-0.7,0-1.3-0.2-1.8-0.6C86.1,33.7,85.9,33.1,85.9,32.2z M86.5,32.2
		c0,1.3,0.6,1.9,1.8,1.9c0.6,0,1-0.2,1.3-0.5s0.5-0.8,0.5-1.5v-3.8c0-0.6-0.2-1.1-0.5-1.5s-0.8-0.5-1.3-0.5c-1.2,0-1.8,0.6-1.8,1.9
		V32.2z"/>
	<path class="st5" d="M94.5,33.5c0-0.1,0-0.2,0.1-0.2c0.1-0.1,0.1-0.1,0.2-0.1c0,0,0.1,0.1,0.2,0.2l0.3,0.3c0.1,0.1,0.3,0.2,0.6,0.3
		c0.3,0.1,0.6,0.2,0.9,0.2c0.6,0,1.1-0.2,1.4-0.5s0.5-0.8,0.5-1.3c0-0.4-0.1-0.8-0.3-1.1c-0.2-0.3-0.4-0.5-0.7-0.6s-0.6-0.3-1-0.4
		c-0.3-0.1-0.7-0.3-1-0.4s-0.5-0.4-0.7-0.7c-0.2-0.3-0.3-0.7-0.3-1.2c0-0.4,0.1-0.8,0.2-1.1c0.2-0.3,0.4-0.5,0.6-0.7
		c0.3-0.1,0.5-0.3,0.8-0.3c0.3-0.1,0.5-0.1,0.8-0.1c0.5,0,0.9,0.1,1.3,0.2s0.6,0.3,0.6,0.5c0,0.1,0,0.1-0.1,0.2s-0.1,0.1-0.2,0.1
		c0,0-0.1,0-0.3-0.1s-0.3-0.2-0.6-0.2s-0.5-0.1-0.8-0.1c-0.5,0-1,0.1-1.3,0.3c-0.4,0.2-0.5,0.6-0.5,1.2c0,0.3,0.1,0.6,0.2,0.8
		s0.3,0.4,0.6,0.5s0.5,0.2,0.8,0.3c0.3,0.1,0.6,0.2,0.9,0.3c0.3,0.1,0.5,0.3,0.8,0.4s0.4,0.4,0.6,0.8c0.1,0.3,0.2,0.7,0.2,1.2
		c0,0.8-0.2,1.4-0.7,1.8c-0.4,0.4-1,0.6-1.8,0.6c-0.7,0-1.3-0.1-1.7-0.4C94.7,34,94.5,33.7,94.5,33.5z"/>
</g>
<g>
	<path class="st6" d="M23,19.6c1.1,0.6,2.9,1.2,4.7,1.2c2,0,3-0.8,3-2s-0.9-1.8-3.2-2.7c-3.1-1.1-5.2-2.8-5.2-5.6
		c0-3.2,2.7-5.7,7.1-5.7c2.1,0,3.7,0.4,4.8,1l-1,3.4c-0.8-0.4-2.1-0.9-3.9-0.9s-2.7,0.8-2.7,1.8c0,1.2,1.1,1.7,3.5,2.7
		c3.3,1.2,4.9,3,4.9,5.6c0,3.2-2.4,5.9-7.6,5.9c-2.2,0-4.3-0.6-5.3-1.1L23,19.6z"/>
	<path class="st6" d="M41.7,8.7h-5.1V5.1h14.5v3.6H46V24h-4.3V8.7z"/>
	<path class="st6" d="M55.8,19.1L54.4,24H50l5.8-18.9h5.6L67.2,24h-4.6l-1.5-4.8h-5.3V19.1z M60.5,15.9l-1.2-4
		c-0.3-1.1-0.7-2.5-1-3.6h-0.1c-0.3,1.1-0.6,2.5-0.9,3.6l-1.1,4H60.5z"/>
	<path class="st6" d="M69.7,5.3C71.1,5.1,73.1,5,75.4,5c2.8,0,4.8,0.4,6.1,1.5c1.1,0.9,1.7,2.2,1.7,3.9c0,2.4-1.7,4.1-3.3,4.6v0.1
		c1.3,0.5,2,1.8,2.5,3.5c0.6,2.1,1.2,4.6,1.5,5.3h-4.4c-0.3-0.5-0.8-2.1-1.3-4.4c-0.5-2.4-1.3-3-3.1-3H74V24h-4.2V5.3H69.7z
		 M74,13.5h1.7c2.1,0,3.4-1.1,3.4-2.7c0-1.7-1.2-2.6-3.1-2.6c-1,0-1.6,0.1-1.9,0.1L74,13.5L74,13.5z"/>
	<path class="st6" d="M90,8.7h-5.1V5.1h14.5v3.6h-5.2V24H90V8.7z"/>
	<path class="st6" d="M112.9,16H106v4.5h7.8V24h-12V5.1h11.6v3.5H106v3.9h6.9V16z"/>
	<path class="st6" d="M116.6,5.3C118,5.1,120,5,122.3,5c2.8,0,4.8,0.4,6.1,1.5c1.1,0.9,1.7,2.2,1.7,3.9c0,2.4-1.7,4.1-3.3,4.6v0.1
		c1.3,0.5,2,1.8,2.5,3.5c0.6,2.1,1.2,4.6,1.5,5.3h-4.4c-0.3-0.5-0.8-2.1-1.3-4.4c-0.5-2.4-1.3-3-3.1-3h-1.3V24h-4.2L116.6,5.3
		L116.6,5.3z M120.9,13.5h1.7c2.1,0,3.4-1.1,3.4-2.7c0-1.7-1.2-2.6-3.1-2.6c-1,0-1.6,0.1-1.9,0.1L120.9,13.5L120.9,13.5z"/>
</g>
<g>
	<path class="st7" d="M95.3,26.2c0-0.1,0-0.1,0.1-0.2c0.1,0,0.1-0.1,0.2-0.1s0.2,0.1,0.3,0.2l2.3,7.6l2.3-7.6c0-0.1,0.1-0.2,0.2-0.2
		s0.2,0,0.2,0.1c0.1,0.1,0.1,0.1,0.1,0.2l0,0l0,0l-2.5,8.3c0,0.1-0.2,0.2-0.3,0.2c-0.2,0-0.3-0.1-0.3-0.2L95.3,26.2L95.3,26.2z"/>
	<path class="st7" d="M104.7,34.4v-8.3c0-0.2,0.1-0.3,0.3-0.3s0.3,0.1,0.3,0.3v8.3c0,0.2-0.1,0.3-0.3,0.3S104.7,34.6,104.7,34.4z"/>
	<path class="st7" d="M108.9,26.2c0-0.1,0-0.1,0.1-0.2c0.1,0,0.1-0.1,0.2-0.1s0.2,0.1,0.3,0.2l2.3,7.6l2.3-7.6
		c0-0.1,0.1-0.2,0.2-0.2s0.2,0,0.2,0.1c0.1,0.1,0.1,0.1,0.1,0.2l0,0l0,0l-2.5,8.3c0,0.1-0.2,0.2-0.3,0.2c-0.2,0-0.3-0.1-0.3-0.2
		L108.9,26.2L108.9,26.2z"/>
	<path class="st7" d="M118.2,32.2v-3.8c0-0.9,0.2-1.5,0.7-1.9c0.4-0.4,1-0.6,1.8-0.6c0.7,0,1.3,0.2,1.8,0.6c0.4,0.4,0.7,1,0.7,1.9
		v3.8c0,0.9-0.2,1.5-0.7,1.9c-0.4,0.4-1,0.6-1.8,0.6c-0.7,0-1.3-0.2-1.8-0.6C118.5,33.7,118.2,33.1,118.2,32.2z M118.8,32.2
		c0,1.3,0.6,1.9,1.8,1.9c0.6,0,1-0.2,1.3-0.5s0.5-0.8,0.5-1.5v-3.8c0-0.6-0.2-1.1-0.5-1.5s-0.8-0.5-1.3-0.5c-1.2,0-1.8,0.6-1.8,1.9
		V32.2z"/>
	<path class="st7" d="M126.8,33.5c0-0.1,0-0.2,0.1-0.2c0.1-0.1,0.1-0.1,0.2-0.1c0,0,0.1,0.1,0.2,0.2l0.3,0.3
		c0.1,0.1,0.3,0.2,0.6,0.3c0.3,0.1,0.6,0.2,0.9,0.2c0.6,0,1.1-0.2,1.4-0.5s0.5-0.8,0.5-1.3c0-0.4-0.1-0.8-0.3-1.1
		c-0.2-0.3-0.4-0.5-0.7-0.6s-0.6-0.3-1-0.4c-0.3-0.1-0.7-0.3-1-0.4s-0.5-0.4-0.7-0.7c-0.2-0.3-0.3-0.7-0.3-1.2
		c0-0.4,0.1-0.8,0.2-1.1c0.2-0.3,0.4-0.5,0.6-0.7c0.3-0.1,0.5-0.3,0.8-0.3c0.3-0.1,0.5-0.1,0.8-0.1c0.5,0,0.9,0.1,1.3,0.2
		c0.4,0.1,0.6,0.3,0.6,0.5c0,0.1,0,0.1-0.1,0.2s-0.1,0.1-0.2,0.1c0,0-0.1,0-0.3-0.1s-0.3-0.2-0.6-0.2s-0.5-0.1-0.8-0.1
		c-0.5,0-1,0.1-1.3,0.3c-0.4,0.2-0.5,0.6-0.5,1.2c0,0.3,0.1,0.6,0.2,0.8s0.3,0.4,0.6,0.5s0.5,0.2,0.8,0.3c0.3,0.1,0.6,0.2,0.9,0.3
		c0.3,0.1,0.5,0.3,0.8,0.4s0.4,0.4,0.6,0.8c0.1,0.3,0.2,0.7,0.2,1.2c0,0.8-0.2,1.4-0.7,1.8c-0.4,0.4-1,0.6-1.8,0.6
		c-0.7,0-1.3-0.1-1.7-0.4C127,34,126.8,33.7,126.8,33.5z"/>
</g>
</svg>
