<svg xmlns="http://www.w3.org/2000/svg" viewBox="4949.5 260.519 84.5 78.963">
  <defs>
    <style>
      .cls-1 {
        fill: #49c1c2;
      }
    </style>
  </defs>
  <path id="Path_2" data-name="Path 2" class="cls-1" d="M83.248,48.919a6.985,6.985,0,0,0-2.7-5.441A7.191,7.191,0,0,0,84.5,37.17a7.576,7.576,0,0,0-7.8-7.27H61.2a.677.677,0,0,1-.578-.289.76.76,0,0,1-.144-.626l.048-.193c1.059-4.767,1.685-14.3,2.022-21.474a6.843,6.843,0,0,0-1.926-5.152A6.957,6.957,0,0,0,55.563,0a7.072,7.072,0,0,0-6.981,6.307c-.1.915-.241,1.926-.433,2.937a34.361,34.361,0,0,1-14.2,21.185A17.533,17.533,0,0,0,31.585,32.4V30.285a1.4,1.4,0,0,0-1.4-1.4H1.4a1.4,1.4,0,0,0-1.4,1.4V75.448a1.4,1.4,0,0,0,1.4,1.4H30.189a1.4,1.4,0,0,0,1.4-1.4v-2.6a60.112,60.112,0,0,0,25.037,6.115H70.441a7.166,7.166,0,0,0,7.415-6.885A6.549,6.549,0,0,0,76.074,67.6,7.372,7.372,0,0,0,79.3,55.274,7.322,7.322,0,0,0,83.248,48.919ZM28.793,74.052H2.744V31.681H28.793ZM75.448,53.4h-6.5a1.4,1.4,0,0,0,0,2.793h5.585c3.033,0,4.141,2.311,4.141,4.526a4.81,4.81,0,0,1-5.056,4.526H68.37a1.4,1.4,0,1,0,0,2.793h2.07a4.171,4.171,0,1,1,0,8.281h-13.1a57.454,57.454,0,0,1-25.807-6.452V36.978a12.014,12.014,0,0,1,3.948-4.285C43.622,26.915,49.063,18.778,50.8,9.774c.193-1.059.385-2.119.481-3.13a4.314,4.314,0,0,1,4.237-3.852,4.378,4.378,0,0,1,3.081,1.3,4.234,4.234,0,0,1,1.156,3.13c-.289,5.778-.915,16.226-1.974,21.089l-.048.241a3.525,3.525,0,0,0,.77,2.889,3.426,3.426,0,0,0,2.7,1.252H76.7a4.81,4.81,0,0,1,5.056,4.526A4.81,4.81,0,0,1,76.7,41.744a.714.714,0,0,0-.337.048,5.529,5.529,0,0,0-.915-.048H69.526a1.4,1.4,0,0,0,0,2.793h5.922A4.81,4.81,0,0,1,80.5,49.063C80.5,51.567,78.241,53.4,75.448,53.4Z" transform="translate(4949.5 260.519)"/>
</svg>
