<svg xmlns="http://www.w3.org/2000/svg" viewBox="11661 2783 173.092 43.099">
  <defs>
    <style>
      .cls-1 {
        fill: #1ccfc9;
      }

      .cls-2 {
        fill: #95d600;
      }

      .cls-3 {
        fill: #ffa400;
      }

      .cls-4 {
        fill: #786e63;
      }
    </style>
  </defs>
  <g id="Group_121" data-name="Group 121" transform="translate(11660.992 2782.997)">
    <path id="Path_126" data-name="Path 126" class="cls-1" d="M46.975,1.815h0A11.762,11.762,0,0,0,30.737,5.529L29.7,7.17,40.238,23.927A13.17,13.17,0,0,1,42.4,31.183l8.292-13.129A11.779,11.779,0,0,0,46.975,1.815Z" transform="translate(-4.045 -0.001)"/>
    <path id="Path_127" data-name="Path 127" class="cls-2" d="M12.267,23.84,22.8,7.083,21.768,5.442A11.833,11.833,0,0,0,5.529,1.814h0A11.779,11.779,0,0,0,1.815,18.053L10.021,31.1A14.025,14.025,0,0,1,12.267,23.84Z" transform="translate(0 0)"/>
    <g id="Group_118" data-name="Group 118" transform="translate(12.446 9.416)">
      <path id="Path_128" data-name="Path 128" class="cls-3" d="M32.454,42.946a11.779,11.779,0,0,0,3.714-16.239L26.148,10.9,16.215,26.621a11.762,11.762,0,0,0,3.714,16.239h0a11.061,11.061,0,0,0,3.8,1.555h0c.173,0,.346.086.518.086h.173a.779.779,0,0,1,.432.086h2.764a.779.779,0,0,0,.432-.086h.173c.173,0,.346-.086.518-.086h0a13.3,13.3,0,0,0,3.714-1.468Z" transform="translate(-14.408 -10.9)"/>
    </g>
    <g id="Group_119" data-name="Group 119" transform="translate(169.644 11.661)">
      <path id="Path_129" data-name="Path 129" class="cls-4" d="M197,15.487V13.759h-.6V13.5h1.555v.259h-.6v1.728Z" transform="translate(-196.4 -13.5)"/>
      <path id="Path_130" data-name="Path 130" class="cls-4" d="M198.4,15.5V13.6h.345l.432,1.382a.87.87,0,0,0,.086.259c0-.086.086-.173.086-.346l.432-1.3h.346v1.9h-.259V13.946l-.518,1.641h-.259l-.518-1.641v1.641H198.4Z" transform="translate(-196.672 -13.514)"/>
    </g>
    <g id="Group_120" data-name="Group 120" transform="translate(60.313 10.625)">
      <path id="Path_131" data-name="Path 131" class="cls-4" d="M88.2,13h-2.85c-.086,0-.173.086-.259.173l-5.96,17.362-5.96-17.362c0-.086-.173-.173-.259-.173h-2.85c-.086,0-.173,0-.173.086a.162.162,0,0,0,0,.259L78.182,36.84c0,.086.173.173.259.173h1.382c.086,0,.173-.086.259-.173l8.292-23.494v-.259A.3.3,0,0,0,88.2,13Z" transform="translate(-69.825 -12.395)"/>
      <path id="Path_132" data-name="Path 132" class="cls-4" d="M104.81,13h-2.85a.229.229,0,0,0-.259.259V36.754a.229.229,0,0,0,.259.259h2.85a.229.229,0,0,0,.259-.259V13.259A.389.389,0,0,0,104.81,13Z" transform="translate(-74.168 -12.395)"/>
      <path id="Path_133" data-name="Path 133" class="cls-4" d="M134.1,13h-2.85c-.086,0-.173.086-.259.173l-5.96,17.362-5.96-17.362c0-.086-.173-.173-.259-.173h-2.85c-.086,0-.173,0-.173.086a.162.162,0,0,0,0,.259l8.292,23.494c0,.086.173.173.259.173h1.382c.086,0,.173-.086.259-.173l8.292-23.494v-.259A.3.3,0,0,0,134.1,13Z" transform="translate(-76.078 -12.395)"/>
      <path id="Path_134" data-name="Path 134" class="cls-4" d="M160.593,14.573a8.636,8.636,0,0,0-2.246-1.555,7.482,7.482,0,0,0-2.764-.518h-1.9a7.482,7.482,0,0,0-2.764.518,5.844,5.844,0,0,0-2.246,1.555,8.636,8.636,0,0,0-1.555,2.246,7.482,7.482,0,0,0-.518,2.764V30.207a7.481,7.481,0,0,0,.518,2.764,5.843,5.843,0,0,0,1.555,2.246,8.635,8.635,0,0,0,2.246,1.555,7.482,7.482,0,0,0,2.764.518h1.9a7.482,7.482,0,0,0,2.764-.518,5.844,5.844,0,0,0,2.246-1.555,8.635,8.635,0,0,0,1.555-2.246,7.482,7.482,0,0,0,.518-2.764V19.669a7.481,7.481,0,0,0-.518-2.764A8.467,8.467,0,0,0,160.593,14.573ZM149.8,30.38V19.5a4.035,4.035,0,0,1,.259-1.468,3.384,3.384,0,0,1,1.987-1.987,4.035,4.035,0,0,1,1.468-.259h1.9a4.035,4.035,0,0,1,1.468.259,3.384,3.384,0,0,1,1.987,1.987,4.035,4.035,0,0,1,.259,1.468V30.38a4.035,4.035,0,0,1-.259,1.468,5.793,5.793,0,0,1-.777,1.209,3.623,3.623,0,0,1-1.209.777,4.035,4.035,0,0,1-1.468.259h-1.9a4.035,4.035,0,0,1-1.468-.259,3.384,3.384,0,0,1-1.987-1.987A7.415,7.415,0,0,1,149.8,30.38Z" transform="translate(-80.285 -12.327)"/>
      <path id="Path_135" data-name="Path 135" class="cls-4" d="M193.18,27.761a4.994,4.994,0,0,0-1.555-1.987,7.552,7.552,0,0,0-2.159-1.3,19.93,19.93,0,0,0-2.419-.864l-2.332-.777a10.572,10.572,0,0,1-1.987-.864,4.8,4.8,0,0,1-1.382-1.209,3.006,3.006,0,0,1-.518-1.814,3.289,3.289,0,0,1,.259-1.382,2.358,2.358,0,0,1,.777-1.037,5.507,5.507,0,0,1,1.209-.691,4.035,4.035,0,0,1,1.468-.259h1.641a4.035,4.035,0,0,1,1.468.259,3.384,3.384,0,0,1,1.987,1.987A4.035,4.035,0,0,1,189.9,19.3v.086a.229.229,0,0,0,.259.259h2.85c.086,0,.173,0,.173-.086.086-.086.086-.086.086-.173a7.482,7.482,0,0,0-.518-2.764,5.843,5.843,0,0,0-1.555-2.246,10.391,10.391,0,0,0-2.246-1.555,7.482,7.482,0,0,0-2.764-.518H184.8a7.482,7.482,0,0,0-2.764.518,6.565,6.565,0,0,0-2.246,1.382,5.958,5.958,0,0,0-1.555,2.073,6.763,6.763,0,0,0-.6,2.678,6.152,6.152,0,0,0,.6,2.937,4.994,4.994,0,0,0,1.555,1.987,5.85,5.85,0,0,0,2.159,1.209,19.93,19.93,0,0,0,2.419.864c.777.259,1.641.432,2.332.691a10.572,10.572,0,0,1,1.987.864,4,4,0,0,1,1.382,1.3,3.285,3.285,0,0,1,.518,1.9,2.535,2.535,0,0,1-.346,1.382,3.456,3.456,0,0,1-.864,1.037,4.578,4.578,0,0,1-1.3.691,4.891,4.891,0,0,1-1.555.259h-1.9a4.891,4.891,0,0,1-1.555-.259,3.417,3.417,0,0,1-1.3-.864,3.894,3.894,0,0,1-.864-1.209,2.839,2.839,0,0,1-.346-1.468v-.95a.229.229,0,0,0-.259-.259h-2.85a.229.229,0,0,0-.259.259v.864a6.142,6.142,0,0,0,.6,2.764,7.189,7.189,0,0,0,1.641,2.246,10.974,10.974,0,0,0,2.332,1.555,7.608,7.608,0,0,0,2.85.518h1.9a7.482,7.482,0,0,0,2.764-.518,7.935,7.935,0,0,0,2.332-1.382,7.565,7.565,0,0,0,1.641-2.073,5.552,5.552,0,0,0,.6-2.678A7.287,7.287,0,0,0,193.18,27.761Z" transform="translate(-84.453 -12.3)"/>
    </g>
  </g>
</svg>
