<?xml version="1.0" encoding="utf-8"?>
<!-- Generator: Adobe Illustrator 21.1.0, SVG Export Plug-In . SVG Version: 6.00 Build 0)  -->
<svg version="1.1" id="Layer_1" xmlns="http://www.w3.org/2000/svg" xmlns:xlink="http://www.w3.org/1999/xlink" x="0px" y="0px"
	 viewBox="0 0 136 43.1" style="enable-background:new 0 0 136 43.1;" xml:space="preserve">
<style type="text/css">
	.st0{fill:#1CCFC9;}
	.st1{fill:#95D600;}
	.st2{fill:#FFA400;}
	.st3{fill:#49C1C2;}
	.st4{fill:#786E63;}
</style>
<g id="Group_121" transform="translate(11660.992 2782.997)">
	<path id="Path_126" class="st0" d="M-11620.4-2778L-11620.4-2778c-1.6-1-3.7-0.5-4.7,1.1c0,0,0,0,0,0l-0.3,0.5l3,4.8
		c0.4,0.6,0.6,1.4,0.6,2.1l2.4-3.8C-11618.3-2774.9-11618.8-2777-11620.4-2778C-11620.4-2778-11620.4-2778-11620.4-2778z"/>
	<path id="Path_127" class="st1" d="M-11629.2-2771.7l3-4.8l-0.3-0.5c-1-1.6-3.1-2-4.7-1l0,0c-1.6,1-2.1,3.1-1.1,4.7c0,0,0,0,0,0
		l2.4,3.8C-11629.9-2770.3-11629.6-2771-11629.2-2771.7z"/>
	<g id="Group_118" transform="translate(12.446 9.416)">
		<path id="Path_128" class="st2" d="M-11636.4-2776c1.6-1,2.1-3.1,1.1-4.7c0,0,0,0,0,0l-2.9-4.6l-2.9,4.5c-1,1.6-0.5,3.7,1.1,4.7
			c0,0,0,0,0,0l0,0c0.3,0.2,0.7,0.4,1.1,0.4l0,0c0,0,0.1,0,0.2,0h0c0,0,0.1,0,0.1,0h0.8c0,0,0.1,0,0.1,0h0.1c0,0,0.1,0,0.1,0l0,0
			C-11637.1-2775.6-11636.7-2775.8-11636.4-2776L-11636.4-2776z"/>
	</g>
</g>
<g>
	<path class="st3" d="M49.8,24L45.3,5.1h4.6l1.4,7.8c0.4,2.2,0.8,4.7,1.1,6.6h0.1c0.3-2,0.8-4.3,1.2-6.6l1.6-7.7h4.5l1.5,8
		c0.4,2.2,0.7,4.2,1,6.3h0.1c0.3-2.1,0.7-4.3,1.1-6.6L65,5.1h4.3L64.5,24h-4.6l-1.6-8.1c-0.4-1.9-0.7-3.7-0.9-5.8h-0.1
		c-0.3,2.1-0.6,3.9-1.1,5.8L54.5,24H49.8z"/>
	<path class="st3" d="M74.5,19.1L73.1,24h-4.4l5.8-18.9h5.6L85.9,24h-4.6l-1.5-4.8H74.5z M79.3,15.9l-1.2-4c-0.3-1.1-0.7-2.5-1-3.6
		h-0.1c-0.3,1.1-0.6,2.5-0.9,3.6l-1.1,4H79.3z"/>
	<path class="st3" d="M90.2,24v-7.7l-6-11.1h4.9L91,9.6c0.6,1.4,1,2.4,1.5,3.6h0.1c0.4-1.2,0.9-2.3,1.4-3.6l1.9-4.5h4.8l-6.2,11V24
		H90.2z"/>
</g>
<g>
	<path class="st4" d="M60.8,26.2c0-0.1,0-0.1,0.1-0.2c0.1,0,0.1-0.1,0.2-0.1c0.1,0,0.2,0.1,0.3,0.2l2.3,7.6l2.3-7.6
		c0-0.1,0.1-0.2,0.2-0.2c0.1,0,0.2,0,0.2,0.1c0.1,0.1,0.1,0.1,0.1,0.2c0,0,0,0,0,0c0,0,0,0,0,0L64,34.5c0,0.1-0.2,0.2-0.3,0.2
		c-0.2,0-0.3-0.1-0.3-0.2L60.8,26.2C60.8,26.2,60.8,26.2,60.8,26.2z"/>
	<path class="st4" d="M70.2,34.4v-8.3c0-0.2,0.1-0.3,0.3-0.3s0.3,0.1,0.3,0.3v8.3c0,0.2-0.1,0.3-0.3,0.3S70.2,34.6,70.2,34.4z"/>
	<path class="st4" d="M74.4,26.2c0-0.1,0-0.1,0.1-0.2c0.1,0,0.1-0.1,0.2-0.1c0.1,0,0.2,0.1,0.3,0.2l2.3,7.6l2.3-7.6
		c0-0.1,0.1-0.2,0.2-0.2c0.1,0,0.2,0,0.2,0.1c0.1,0.1,0.1,0.1,0.1,0.2c0,0,0,0,0,0c0,0,0,0,0,0l-2.5,8.3c0,0.1-0.2,0.2-0.3,0.2
		c-0.2,0-0.3-0.1-0.3-0.2L74.4,26.2C74.4,26.2,74.4,26.2,74.4,26.2z"/>
	<path class="st4" d="M83.7,32.2v-3.8c0-0.9,0.2-1.5,0.7-1.9c0.4-0.4,1-0.6,1.8-0.6c0.7,0,1.3,0.2,1.8,0.6c0.4,0.4,0.7,1,0.7,1.9
		v3.8c0,0.9-0.2,1.5-0.7,1.9c-0.4,0.4-1,0.6-1.8,0.6c-0.7,0-1.3-0.2-1.8-0.6C83.9,33.7,83.7,33.1,83.7,32.2z M84.3,32.2
		c0,1.3,0.6,1.9,1.8,1.9c0.6,0,1-0.2,1.3-0.5s0.5-0.8,0.5-1.5v-3.8c0-0.6-0.2-1.1-0.5-1.5s-0.8-0.5-1.3-0.5c-1.2,0-1.8,0.6-1.8,1.9
		V32.2z"/>
	<path class="st4" d="M92.3,33.5c0-0.1,0-0.2,0.1-0.2c0.1-0.1,0.1-0.1,0.2-0.1c0,0,0.1,0.1,0.2,0.2l0.3,0.3c0.1,0.1,0.3,0.2,0.6,0.3
		c0.3,0.1,0.6,0.2,0.9,0.2c0.6,0,1.1-0.2,1.4-0.5s0.5-0.8,0.5-1.3c0-0.4-0.1-0.8-0.3-1.1c-0.2-0.3-0.4-0.5-0.7-0.6s-0.6-0.3-1-0.4
		c-0.3-0.1-0.7-0.3-1-0.4c-0.3-0.1-0.5-0.4-0.7-0.7c-0.2-0.3-0.3-0.7-0.3-1.2c0-0.4,0.1-0.8,0.2-1.1c0.2-0.3,0.4-0.5,0.6-0.7
		c0.3-0.1,0.5-0.3,0.8-0.3c0.3-0.1,0.5-0.1,0.8-0.1c0.5,0,0.9,0.1,1.3,0.2c0.4,0.1,0.6,0.3,0.6,0.5c0,0.1,0,0.1-0.1,0.2
		s-0.1,0.1-0.2,0.1c0,0-0.1,0-0.3-0.1s-0.3-0.2-0.6-0.2s-0.5-0.1-0.8-0.1c-0.5,0-1,0.1-1.3,0.3c-0.4,0.2-0.5,0.6-0.5,1.2
		c0,0.3,0.1,0.6,0.2,0.8s0.3,0.4,0.6,0.5s0.5,0.2,0.8,0.3c0.3,0.1,0.6,0.2,0.9,0.3c0.3,0.1,0.5,0.3,0.8,0.4s0.4,0.4,0.6,0.8
		c0.1,0.3,0.2,0.7,0.2,1.2c0,0.8-0.2,1.4-0.7,1.8c-0.4,0.4-1,0.6-1.8,0.6c-0.7,0-1.3-0.1-1.7-0.4C92.5,34,92.3,33.7,92.3,33.5z"/>
</g>
</svg>
