<?xml version="1.0" encoding="utf-8"?>
<!-- Generator: Adobe Illustrator 21.0.0, SVG Export Plug-In . SVG Version: 6.00 Build 0)  -->
<svg version="1.1" id="Layer_1" xmlns="http://www.w3.org/2000/svg" xmlns:xlink="http://www.w3.org/1999/xlink" x="0px" y="0px"
	 viewBox="0 0 17.1 18.8" style="enable-background:new 0 0 17.1 18.8;" xml:space="preserve">
<style type="text/css">
	.st0{fill:#AAAAAC;}
</style>
<path class="st0" d="M4.1,7.7H3.6C1.6,7.7,0,6.1,0,4.1V3.6C0,1.6,1.6,0,3.6,0h0.5c2,0,3.6,1.6,3.6,3.6v0.5C7.7,6.1,6.1,7.7,4.1,7.7z
	"/>
<path class="st0" d="M4.1,18.8H3.6c-2,0-3.6-1.6-3.6-3.6v-0.5c0-2,1.6-3.6,3.6-3.6h0.5c2,0,3.6,1.6,3.6,3.6v0.5
	C7.7,17.2,6.1,18.8,4.1,18.8z"/>
<path class="st0" d="M13.5,12.9H13c-2,0-3.6-1.6-3.6-3.6V8.8c0-2,1.6-3.6,3.6-3.6h0.5c2,0,3.6,1.6,3.6,3.6v0.5
	C17.1,11.3,15.5,12.9,13.5,12.9z"/>
</svg>
