<?xml version="1.0" encoding="utf-8"?>
<!-- Generator: Adobe Illustrator 21.0.0, SVG Export Plug-In . SVG Version: 6.00 Build 0)  -->
<svg version="1.1" id="Layer_1" xmlns="http://www.w3.org/2000/svg" xmlns:xlink="http://www.w3.org/1999/xlink" x="0px" y="0px"
	 viewBox="0 0 115.8 110.9" style="enable-background:new 0 0 115.8 110.9;" xml:space="preserve">
<style type="text/css">
	.st0{fill:#7F7B75;}
</style>
<path class="st0" d="M116.3,111.2c-2.2-2.4-4.9-4.3-8.2-6c2.6,1.4,9.8,5.1,0,0c-1.3-0.7-0.9-0.5,0,0c-4.8-2.5-12.6-3.5-21.6-6.6
	c0-0.1-1.4-3.2-2-4.5c-1.5-2.9-2.5-3.5-6.6-3.8c0,0.1,0,0.1,0,0.2c-1.2-4.5-1.4-8.5,0.8-11.1c1.7-2.1,2.9-4.5,2.9-7.3v-2.7
	c0,0,0,0,0,0c0-0.2,0.4-0.4,0.6-0.4c0.7,0,1.4-0.2,1.7-0.8c0.3-0.4,0.4-0.9,0.6-1.4c0.5-1.5,0.9-3.1,1.7-4.4c1.8-3.1,3.2-6.3,3-10
	c-0.1-1.9-0.3-3.8-0.5-5.7c0-0.4-0.3-0.7-0.7-0.6c0-1.1,2.2-21.2,2.2-21.2s-3.1-3.7-5.1-6.1c1.1,1.3,1.6,1.8,1.6,1.8
	c0,0,2.9,1.3,2.9,1.3c-1.6-3.1-3-6.8-7.5-10.5c-2.8-2.3-8.2-3.2-11.5-5.3c0,0,0,0,0,0c0.8-0.1,5.9,1.2,6.6,1.7
	C70.2,2.8,67.1,3.2,61,3c1.2-0.1,2.9-0.3,5.3-0.7c-3-1.9-5.3-1.8-8-2c-12.9-0.6-14.3,6.2-15.9,6c-7-0.6-10.7,1.1-14.1,9.2
	c0.5,0.1,4.1-3.4,5.5-3.6c-4.3,2.3-7.6,7.1-8.5,9.2c4.1-3,1.9-2.1-0.5,3.4c-1.2,2.7,3.1,20.7,3.2,21.7c0,0-0.1,0-0.1,0
	c-0.5-0.2-0.9,0.2-0.9,0.6c-0.2,1.9-0.4,3.8-0.5,5.7c-0.2,3.7,1.2,6.9,3,10c0.8,1.3,1.2,2.9,1.7,4.4c0.2,0.5,0.3,1,0.6,1.4
	c0.4,0.6,1,0.8,1.7,0.8c0.2,0,0.5,0.2,0.6,0.4V72c0,2.9,1.6,5.8,3.6,7.7c1.5,1.4,1.4,3.8,1.3,5.8c-0.2,1.9-0.4,3.3-0.8,5
	c-4,0.3-5,0.8-6.5,3.8c-0.6,1.2-2,4.4-2,4.7c-8.7,3-16.4,3.9-21.1,6.4c-3.3,1.7-6,3.6-8.2,6H116.3z"/>
</svg>
