<?xml version="1.0" encoding="utf-8"?>
<!-- Generator: Adobe Illustrator 21.0.0, SVG Export Plug-In . SVG Version: 6.00 Build 0)  -->
<svg version="1.1" id="Layer_1" xmlns="http://www.w3.org/2000/svg" xmlns:xlink="http://www.w3.org/1999/xlink" x="0px" y="0px"
	 viewBox="0 0 28 23.1" style="enable-background:new 0 0 28 23.1;" xml:space="preserve" width="45">
<style type="text/css">
	.st0{fill:#AAAAAC;}
</style>
<path class="st0" d="M25.2,3.6H19l-1.6-2.7C17.2,0.4,16.5,0,16,0h-4.4c-0.5,0-1.1,0.4-1.4,0.8L8.6,3.6H2.8C1.3,3.6,0,4.8,0,6.4v13.9
	c0,1.5,1.3,2.8,2.8,2.8h22.4c1.5,0,2.8-1.3,2.8-2.8V6.4C28,4.8,26.7,3.6,25.2,3.6z M13.9,20.9c-4.1,0-7.4-3.3-7.4-7.4
	c0-4.1,3.3-7.4,7.4-7.4c4.1,0,7.4,3.3,7.4,7.4C21.3,17.6,18,20.9,13.9,20.9z M26.4,7.9c0,0.7-0.6,1.2-1.2,1.2h-2.9
	c-0.7,0-1.2-0.6-1.2-1.2V6.4c0-0.7,0.6-1.2,1.2-1.2h2.9c0.7,0,1.2,0.6,1.2,1.2V7.9z"/>
<path class="st0" d="M13.9,7.3c-3.4,0-6.1,2.8-6.1,6.1c0,3.4,2.8,6.1,6.1,6.1c3.4,0,6.1-2.8,6.1-6.1C20,10.1,17.3,7.3,13.9,7.3z
	 M13.9,18.5c-2.8,0-5-2.2-5-5c0-2.8,2.2-5,5-5c2.8,0,5,2.2,5,5C18.9,16.2,16.6,18.5,13.9,18.5z"/>
</svg>
