<?xml version="1.0" encoding="utf-8"?>
<!-- Generator: Adobe Illustrator 21.1.0, SVG Export Plug-In . SVG Version: 6.00 Build 0)  -->
<svg version="1.1" id="Teeth" xmlns="http://www.w3.org/2000/svg" xmlns:xlink="http://www.w3.org/1999/xlink" x="0px" y="0px"
	 viewBox="0 0 181.3 242" style="enable-background:new 0 0 181.3 242;" xml:space="preserve">
<style type="text/css">
	.st0{fill:#444545;}
	.st1{fill:#FFFFFF;}
</style>
<path class="st0" d="M15.7,107c-1-1.1-1.7-1.9-2.3-2.7c-0.7-0.9-1.4-1.9-2-2.9c-3.9-6.1-2.1-14.6,3.8-17c4.8-2,9.3-0.7,13.6,2.6
	c1,0.7,1.8,1.7,2.7,2.5c3.7,3.8,4.3,11.4,1.4,16.1c-0.4,0.7-0.9,1.3-1.5,1.6c-2.6,1.2-5.3,2.6-8.1,2.4c-0.6-0.1-1.3-0.4-2-0.6
	c-0.8-0.2-1.6-0.3-2.5-0.6 M16.4,104.8c-0.1-1.3,0.1-2.4,0.8-3.3c1.4-1.7,1.6-2.9,0.8-5.2c-0.3-0.8-0.5-1.7-0.5-2.7
	c0.1-1.1,0.4-2.1,0.6-3.1c0.5-2,0.1-4.3,1.6-6.1c-2.9-0.1-5.3,0.7-7.5,3.1c-1,1.2-1.8,2.6-1.9,4.3c-0.4,3.4-0.3,6.5,1.7,9.3
	c1.7,2.3,3.2,4.9,5.7,6c1.1,0.5,2.4,0.6,3.6,0.9c1,0.2,1.9,0.7,2.9,0.6c1.6-0.2,3.1-0.9,4.7-1.2c2.5-0.6,4-2.3,4.5-5.4
	c0.3-1.6,0.6-3.3,0.5-4.9c-0.1-1.7-0.5-3.6-1.2-4.7c-2.9-4.3-6.6-7.1-11.2-7.7c-0.3,0-0.7,0.1-0.8,0.3c-0.7,1-1.4,2-1.3,3.5
	c0,1.1-0.2,2.2-0.5,3.2c-0.6,1.7-0.5,3.1,0.1,4.6c0.5,1.2,0.7,2.7,0.1,4c-0.6,1.6-1.9,2.7-2.1,4.5C16.8,104.7,16.6,104.7,16.4,104.8
	z M162.9,108.4c-0.8,0.2-1.7,0.2-2.5,0.6c-1.8,0.8-3.6,0.8-5.4,0c-1-0.4-2-0.7-3-1c-2.1-0.7-3.6-2.3-4.2-5c-0.4-1.8-0.7-3.6-0.8-5.6
	c-0.2-3.1,0.8-5.6,2.7-7.5c3.4-3.8,7.3-6.2,12-6.5c2.7-0.2,5.1,0.7,7.3,2.5c3,2.5,3.5,6.3,3.1,10.6c-0.3,3.8-2.5,6-4.3,8.5
	c-0.5,0.7-1.1,1.2-1.8,2 M165.1,104.7c-0.1,0.1-0.2,0.1-0.3,0.2c-0.1-0.3-0.2-0.7-0.3-1c-0.2-0.6-0.3-1.2-0.6-1.7
	c-1.7-2.3-1.8-3.5-0.9-6.5c0.3-1.1,0.3-2.3,0.1-3.5c-0.1-1.5-0.6-2.9-0.7-4.4c-0.2-2-1.4-3.4-2.9-3.1c-3.4,0.5-6.2,2.7-8.8,5.4
	c-3.5,3.6-4.1,10.5-1.2,14.9c0.3,0.5,0.8,1.1,1.2,1.3c2.1,0.8,4.3,1.8,6.5,2.2c1.6,0.2,3.2-0.7,4.7-0.8c1.8-0.2,3.3-1.1,4.5-2.5
	c1.3-1.5,2.5-3.2,3.6-5c0.5-0.7,0.8-1.7,1-2.7c1.2-6.6-0.8-10.9-5.8-12.7c-0.6-0.2-1.4-0.4-2-0.5c-0.5-0.1-0.9,0-1.1,0
	c0.3,1.7,0.6,3.1,1,4.6c0.2,0.9,0.3,1.8,0.5,2.7c0.6,1.6,0.5,3.1-0.1,4.6c-0.8,2.5-0.7,3.5,0.8,5.4
	C165.1,102.5,165.2,103.6,165.1,104.7z M150,58.3c4.6-2.4,8.4,0,11.9,3.5c0.9,0.9,1.6,2.7,1.8,4.2c0.5,3.6,0.3,7.1-0.8,10.6
	c-1.6,4.8-5.1,7.7-9.5,7.5c-2.1-0.1-4.2-0.1-6.4-0.5c-1.8-0.3-3.6-0.9-5.3-1.6c-1.6-0.6-2.5-2.1-3.1-3.9c-1.2-4.1-1.4-8.1,0.2-12
	c0.5-1.3,1.6-2.2,2.3-3.1c-2.8,1.3-5.1-0.7-7.2-2.9c-1.6-1.6-1.9-4-1.8-6.3c0.2-3.5,0.8-6.9,1.2-10.4c0.1-0.5,0.2-1,0.3-1.7
	c-0.3,0.2-0.5,0.3-0.6,0.4c-3.2,2.2-6.5,3-10.1,2.7c-3.2-0.2-6.7-5.1-7-8.7c-0.2-2.6-0.3-5.2-0.3-7.8s0.8-4.6,2.3-6.4
	c0.6-0.7,1.2-1.4,1.7-2.2c0.8-1.2,1.7-1.3,2.8-1.1c3.4,1,6.6,2.6,9.5,5.2c1.1,1,2.3,1.8,3.4,2.9c2.1,2,2.7,4.5,1.9,7.6
	c-0.1,0.2-0.1,0.3-0.1,0.8c2.2-2.2,4.5-2.2,7-1.9c1,0.2,2.1,0,3.2,0.1c1.1,0.2,2.1,0.8,2.7,2.1c1.4,3.3,3,6.5,3.4,10.4
	c0.5,4.6-0.1,8.9-3.2,11.9C150,58.1,150,58.2,150,58.3c-2.2,1.3-4.4,2.7-6.6,4C146,62.1,148.2,60.8,150,58.3z M152.7,47.3
	c0.1-3.1-1.6-6.4-2.9-9.9c-0.8-2.2-2.2-3-4-2.9c-1.2,0.1-2.3,0-3.4-0.1c-2.5-0.2-4.5,0.8-6,3.6c-2.9,5.4-3.6,11.4-3.4,17.7
	c0.1,1.6,0.6,3,1.6,4.1c2.7,3,5.6,3.4,8.8,1.4c1.2-0.7,2.5-1.6,3.7-2.2C151.1,56.9,152.8,53.7,152.7,47.3z M116.2,30
	c0.1,5.6,0.4,8,2.2,10.5c1.7,2.5,3.8,4.1,6.4,3.6c1.4-0.2,2.7-0.7,4.1-1.1c1-0.3,2.1-0.5,3-1.1c2.3-1.4,3.4-4.1,4.3-7
	c1.1-3.3-0.1-6.2-2-7.7c-1.6-1.2-3.1-2.5-4.7-3.8c-2.3-2.1-5-2.8-7.7-3.6c-0.5-0.2-1.2-0.1-1.5,0.3C117.9,23.1,115.5,26.1,116.2,30z
	 M142.2,63.6c0.1,0.7,0.1,1,0.1,1.3c-0.8,3.6-0.2,7.2,0.1,10.8c0.3,3.4,2.6,4.6,4.9,5.6c1.4,0.6,3-0.2,4.2,1.7
	c2.6,0.8,5,0.3,7.3-1.3c-0.5-3.3-1.8-5.9-3.6-8c-1.6-1.9-1.8-2.7-1-5.2c1-2.8,0.6-4.7-1.3-6.5c-0.9-0.8-1.9-1.4-1.5-3.4
	C148.5,61.5,145.7,63.5,142.2,63.6z M159.2,81c1.4-1.2,2.2-2.7,2.8-4.3c1.2-3.6,1.4-7.3,0.8-11.1c-0.2-1.1-0.6-2.3-1.3-3.1
	c-2.5-2.9-5.6-4.3-8.9-4.3c-0.2,0-0.4,0.1-0.6,0.1c0.1,1.7,0.1,1.7,1.1,2.7c2.1,2,2.8,4.3,1.8,7c-0.8,2.2-0.9,3.7,0.8,5.4
	C157.7,75.1,158.7,77.9,159.2,81z M141.4,64.1c-0.6,0.7-1.4,1.2-1.8,2.1c-1.8,4.3-1.7,8.7,0.2,12.8c0.5,1,1.4,1.8,2.2,2.2
	c1.6,0.7,3.2,1.2,4.9,1.6c1,0.2,2.1,0,3.1,0c-1.4-0.4-2.9-0.7-4.2-1.3c-3-1.4-4.3-4.1-4.3-7.9c0-1.2-0.1-2.5-0.1-3.7
	C141.3,68.1,141.3,66.2,141.4,64.1z M48,42c0.4,2.3,0.9,4.7,1.1,7c0.2,2.3,0.3,4.8,0.1,7.1c-0.5,4.2-5,7.9-8.3,7
	c-0.3-0.1-0.5-0.2-0.8-0.2c3.2,3,4.4,7.3,3.5,12.2c-0.2,0.9-0.3,1.9-0.6,2.8c-0.6,2.3-1.9,3.8-3.8,4.5c-2.7,0.9-5.4,1.7-8.3,1.4
	c-1.1-0.2-2.3,0.4-3.4,0.3c-5.7-0.4-9.4-5.2-9.7-12.6c-0.1-1.4-0.1-2.7,0-4.1c0.1-3,1.1-5.3,3-6.9c2.1-1.7,4.5-2.8,6.9-3.2
	c1.8-0.3,3.3,0.4,4.7,2c1.7,1.9,3.6,3,5.9,3.1c-1.3-0.8-2.5-1.7-3.9-2.3c-5.5-2.5-7.1-8.4-5.9-15.1c0.6-3.1,1.9-6,3-8.8
	c0.8-2.2,2.5-2.6,4.3-2.5c0.8,0,1.5,0.1,2.3,0c2.3-0.3,4.5-0.1,6.5,2c-0.2-1-0.4-1.7-0.5-2.5c-0.1-2.3,0.5-4.3,1.9-5.7
	c4-3.6,8.1-7.2,13.1-8.4c1.2-0.2,2.1-0.2,2.9,1.1c0.1,0.2,0.3,0.5,0.5,0.7c3.8,3.7,3.8,8.8,3.3,14.2c-0.5,4.4-2.3,7.4-5.3,9.4
	c-1.7,1.2-3.4,1-5.2,0.7c-1.5-0.2-3-0.6-4.4-1.2C49.9,43.4,48.9,42.6,48,42z M39.7,64.1c0.2,1.6,0.5,3.2,0.5,4.8
	c0.1,1.2-0.2,2.6-0.2,3.8c0.1,4.7-1.4,7.5-4.9,9c-1.2,0.6-2.5,0.7-3.8,1.2c0.3,0,0.5,0.1,0.7,0.1c2.3,0.3,4.5-0.7,6.7-1.3
	c1.8-0.5,2.9-1.8,3.5-3.9c1.1-3.7,1.2-7.5-0.2-11.1C41.6,65.3,40.8,64.4,39.7,64.1c-0.5-0.2-0.8-0.5-1.3-0.6c-2.7-0.5-5-1.7-7-4
	c-0.3-0.4-0.8-0.7-1.2-1c-0.1,2-0.1,2-1.4,3.1c-2,1.7-2.5,3.8-1.5,6.6c0.2,0.5,0.3,1,0.5,1.6c0.2,1.2,0.2,2.2-0.6,3
	c-2.3,2.2-3.7,5.1-4.3,8.7c2.2,1.6,4.5,2.1,7.1,1.3c0.2-0.1,0.4-0.3,0.6-0.5c0.3-0.2,0.6-0.6,0.9-0.7c1.3-0.4,2.7-0.5,4-1.1
	c2.9-1.3,4-3.6,4-7.5c0-1.1,0.1-2.2,0.1-3.3c0-1.7-0.1-3.3-0.3-4.9C39.1,64.3,39.1,63.9,39.7,64.1z M48.7,52.2
	c-0.3-1.7-0.5-3.8-0.8-5.9c-0.4-3.1-1.4-5.9-2.8-8.5c-1.2-2.2-2.9-3.5-5-3.6c-1.8,0-3.7,0.1-5.5,0.2c-1.2,0.1-2.2,0.9-2.8,2.3
	c-0.5,1.2-0.9,2.5-1.4,3.7c-1,2.2-1.6,4.6-1.7,7c-0.1,4.2,0.6,8.1,3.8,10.2c2.6,1.7,5.4,3.1,8.1,4.3c3.1,1.3,7.3-2.2,7.8-6.4
	C48.7,54.7,48.7,53.7,48.7,52.2z M65.3,31.2c0.3-4.1-0.8-7.2-3.2-9.8c-0.3-0.2-0.5-0.7-0.8-1c-0.5-0.3-1.2-0.7-1.8-0.7
	c-5.2,1.1-9.4,4.6-13.4,8.6c-1.2,1.2-1.7,3-1.3,4.9c0.4,1.8,1,3.6,1.7,5.2c1,2.2,2.5,3.6,4.4,4.3c1.3,0.5,2.7,0.7,4,1.1
	c3.9,1.1,6.7-0.5,8.9-4.8C65.2,36.7,65.1,33.8,65.3,31.2z M22.1,80.9c0.2-0.6,0.4-1,0.5-1.5c0.5-2.8,1.9-4.8,3.5-6.6
	c1.3-1.5,1.4-1.9,0.7-4c-1.1-3.3-0.7-5.6,1.6-7.7c0.8-0.7,1.4-1.4,1.1-2.8c-0.3-0.1-0.6-0.2-1-0.2c-3,0.3-5.9,1.5-8.2,4.1
	c-0.8,0.9-1.4,2.4-1.6,3.7c-0.6,3.4-0.3,6.9,0.6,10.2C19.8,78,20.7,79.7,22.1,80.9z M90.8,15.1c0.6-3.5,2.6-4.8,5.1-5.7
	c4.6-1.7,9.1-1.3,13.6,0.4c1.6,0.6,3.2,1,4.8,1.6c1.9,0.7,2.5,2.1,2.7,4.6c0.3,3.4-0.2,6.5-1.5,9.4c-0.9,1.9-1.5,4.1-2.2,6.1
	c-0.7,2-1.6,3.8-3.1,5c-3,2.5-7.8,1.7-10.6-1.9c-0.6-0.7-1-1.6-1.5-2.4c-1-1.8-1.9-3.6-2.9-5.6c-0.9-1.7-1.9-3.4-2.7-5.2
	c-0.7-1.7-1.2-3.6-1.8-5.6c-1.5,6.7-5.1,11.9-8,17.5c-1.9,3.7-5.2,4.8-8.4,4.5c-2.6-0.2-4.6-2.5-5.8-5.6c-1.2-3.4-2.5-6.7-3.7-10.1
	c-0.9-2.7-0.6-5.6,0.1-8.4c0.3-0.9,1.2-1.9,1.9-2.2c3.8-1.2,7.7-2.6,11.5-3.3c3.1-0.6,6.2,0.7,9.2,1.9C89,10.7,89.9,12.3,90.8,15.1z
	 M79.8,8.8c-4.8,0.7-8.9,2-12.9,3.6c-0.5,0.2-1.2,1-1.2,1.6c-0.2,2.4-0.7,5-0.1,7.1c1,3.9,2.6,7.5,4,11.3c1,2.6,2.8,4.4,5,4.5
	c3.4,0.2,6.4-1.2,8.3-5.2c1.2-2.6,2.7-5.1,3.9-7.6c1-2.2,2-4.5,2.8-6.8c0.9-2.7-0.1-5.6-2.3-6.4C84.6,10,81.9,9.4,79.8,8.8z
	 M116.2,18.2c0-0.6,0-1,0-1.4c0-2.9-0.5-3.9-2.7-4.7c-1.5-0.6-3.1-0.9-4.6-1.5c-4.7-1.9-9.5-1.8-14.2,0.2c-2.5,1.1-3.8,3.7-2.7,6.8
	c0.6,1.8,1.3,3.6,2.1,5.4c1.4,2.9,2.9,5.8,4.4,8.6c0.5,0.9,1,1.8,1.6,2.6c1.9,2.4,4.5,3.1,7,2.8c2.5-0.3,4.2-2.5,5.2-5.5
	c1-2.7,1.9-5.5,3-8.2C116.1,21.6,116.6,19.9,116.2,18.2z M20.5,88.7c0.5,0.7,1,1.5,1.6,2.2c0.6,0.9,0.8,1.8,0.5,3.1
	c-0.3,1.2-0.4,2.5-0.4,3.8c0,1.7-0.2,3.1-1.5,4.1c-0.6,0.5-1.2,1.2-1.8,1.9c-0.2,0.2-0.3,0.7-0.5,1c0.1,0.1,0.2,0.2,0.3,0.3
	c1.1-1.1,2.2-2.2,3.3-3.4c1.1,2.5,2.9,4.1,4.1,3.1c-0.5-0.3-1.1-0.5-1.4-1c-0.6-0.7-1.7-1.6-1.8-2.4c-0.1-2.2,0.1-4.6,0.3-6.9
	c0.1-1.2,0.8-2.3,1.9-2.4c0.7-0.1,1.4-0.2,2.1-0.4c0.2-0.1,0.4-0.2,0.6-0.4c-0.1-0.2-0.1-0.3-0.1-0.5c-1.2,0.2-2.3,0.3-3.5,0.5
	c0.1-0.7,0.3-1.5,0.5-2.2C24.5,89,24.4,89,24.2,89c-0.3,0.7-0.6,1.6-1,2.3c-0.8-1.1-1.3-2.6-2.4-3.1C20.7,88.4,20.6,88.5,20.5,88.7z
	 M23.8,108.3c1.8-0.7,3.5-1.4,5.2-2.4c0.6-0.3,1.3-1.2,1.6-1.9c1.7-3.9,2.3-9,0-13.2c-0.2-0.3-0.4-0.6-0.6-0.8
	c-0.1,0.1-0.2,0.2-0.3,0.2c0.1,0.3,0.1,0.7,0.2,1c1.5,2.8,1.7,5.8,1.1,9c-0.6,3.1-1.8,5.1-4.3,5.8c-0.8,0.2-1.6,0.7-2.5,1
	c-0.3,0.2-0.5,0.6-0.8,0.8C23.7,108,23.8,108.2,23.8,108.3z M153.7,91.6c0.6,0.1,1.2,0.2,1.8,0.3c2.1,0.2,2.8,1.2,3.1,4
	c0.1,1.2,0.1,2.5,0.2,3.7c0.1,2.5-0.4,3.4-2.1,4.5c-0.2,0.1-0.4,0.2-0.6,0.3c-0.2,0.2-0.3,0.4-0.5,0.6c1.9-0.1,3.2-1.2,4-3.4
	c1.2,1.2,2.2,2.2,3.3,3.4c0.1-0.1,0.2-0.2,0.3-0.3c-0.2-0.3-0.3-0.7-0.5-1c-0.6-0.7-1.2-1.5-1.9-2c-1.2-0.8-1.3-2.2-1.4-3.6
	c0-1.2,0-2.6-0.3-3.6c-0.6-1.8,0-3.1,0.9-4.3c0.3-0.5,0.7-1,1-1.5c-0.1-0.1-0.1-0.2-0.2-0.3c-1.3,0.2-1.6,2-2.5,3
	c-0.3-0.7-0.7-1.6-1-2.3c-0.1,0.1-0.3,0.2-0.4,0.2c0.1,0.7,0.3,1.4,0.5,2.2c-1.2-0.2-2.4-0.3-3.6-0.5
	C153.8,91.1,153.7,91.4,153.7,91.6z M157.9,108c-0.3-0.2-0.5-0.7-0.8-0.8c-1-0.5-2.1-0.9-3.2-1.3c-1.4-0.5-2.5-1.6-3-3.4
	c-1-3.7-1.4-7.5,0.5-11.1c0.2-0.3,0.2-0.7,0.3-1.1c-0.4,0-0.5,0.1-0.6,0.2c-2.3,3.5-2.3,10.8,0.1,14.2c0.2,0.2,0.3,0.6,0.5,0.7
	c2,1.1,4,2.1,6,3.1C157.7,108.3,157.7,108.2,157.9,108z M147.2,41.3c-2.3-3.3-5.2-5.2-8.7-5.5c0.1,0.4,0.4,0.6,0.6,0.7
	c0.9,0.3,1.9,0.6,2.8,1.1c3.6,1.9,6,5,6.4,10.2c0.1,1.8,0.3,3.6,0.4,5.4c0,0.4,0.1,0.8,0.2,1.2C150.1,52.5,148.9,43.6,147.2,41.3z
	 M135.7,50.9c0.6-3.5,1.3-7,1.9-10.9c-0.5,0.2-0.6,0.3-0.6,0.4c-0.6,3.4-1.4,6.8-1.9,10.3c-0.2,1.2,0.6,1.8,1.5,1.1
	c1.2-1.1,2.3-2.4,3.5-3.6c0.1-0.1,0.1-0.4,0.1-0.7c-0.1-0.1-0.1-0.2-0.2-0.2c-1.3,1.3-2.6,2.7-3.9,4C136,51.2,135.8,51.1,135.7,50.9
	z M140.4,57.2c0.3-0.8,0.6-1.6,0.9-2.2c0.5-0.9,1-1.7,1.5-2.7c0.1-0.2,0.1-0.6,0.1-0.8c-0.1,0-0.4,0-0.5,0.2c-0.8,1.7-1.8,3.2-2.5,5
	c-0.3,0.7,0.1,1.6,0.8,1.6c2.3-0.2,4.3-1.3,6.1-3c0,0,0-0.1-0.1-0.4C144.6,55.3,142.8,57.3,140.4,57.2z M132.1,41.2
	c0.9-1.4,1.8-2.8,2.2-4.7c0.5-2.2-0.5-5.2-1.9-6.3c-1.9-1.5-4-2.7-6.1-4.1c-1.8-1.2-3.6-1.7-5.7-1.8c-1.4,0-2.5,0.4-3,2.3
	c0.4-0.1,0.8-0.3,1.1-0.6c0.3-0.2,0.6-0.7,0.9-0.7c1.4,0.1,3-0.1,4.3,0.6c2.7,1.4,5.3,3.2,7.9,5c0.5,0.3,0.9,1,1.2,1.7
	c1,2.2,0.9,4.3-0.3,6.3c-0.4,0.7-0.7,1.4-1.1,2.2C131.8,41,132,41.1,132.1,41.2z M124.4,41.7c0.1-0.1,0.2-0.2,0.2-0.3
	c0.1-1.5,0.9-2.2,1.8-2.7c0.8-0.6,1.7-0.9,2.5-1.5c0.3-0.2,0.5-0.5,0.8-0.8c-0.3-0.2-0.5-0.2-0.5-0.2c-1.6,1-3.1,1.8-4.6,3
	c-0.6,0.5-0.9,1.5-0.6,2.6C124.3,41.7,124.4,41.7,124.4,41.7z M119.2,36.3c1.3-0.3,2.8-4.9,2.2-7.8
	C120.7,31.4,119.9,33.9,119.2,36.3z M156.8,78.7c-0.3-0.2-0.5-0.3-0.8-0.5c-1.2-0.5-2.5-0.8-3.5-1.7c-3.6-2.7-3.8-7.9-0.5-11
	c0,0,0.1,0,0.1-0.1c0.1-0.2,0.2-0.5,0.3-0.7c-0.2,0-0.5-0.1-0.6,0.1c-0.8,0.7-1.5,1.5-2.3,2.3c-0.6-0.7-1-2.2-2-2.4
	c-0.1,0.1-0.1,0.2-0.3,0.2c0.5,0.7,1,1.6,1.6,2.6c-1.9-0.8-3.6-1.6-5.4-1.2c0.3,0.3,0.5,0.5,0.8,0.6c1.2,0.4,2.5,0.7,3.6,1.2
	c0.4,0.2,1,0.8,1,1.2c-0.1,2,0.5,4.2-1.4,5.5c-0.3,0.2-0.4,0.7-0.5,1.2c0.1,0.1,0.3,0.2,0.4,0.2c0.8-0.9,1.6-1.8,2.4-2.7
	c0.3,1.3,1.5,2.2,1.1,4.1c-0.1,0.6,0.3,1.3,0.6,2c0.1-0.1,0.3-0.1,0.4-0.2c-0.1-0.8-0.2-1.7-0.3-2.8c1.8,1.6,3.6,2.4,5.4,2.5
	C156.7,78.9,156.8,78.8,156.8,78.7z M32.7,53.1c0.2-2.2,0.3-4.3,0.6-6.5c0.3-2.9,1.5-5.2,3.3-7c1.7-1.6,3.5-2.6,5.6-3.1
	c0.3-0.1,0.6-0.3,0.8-0.5c-2.7-0.7-7.6,2.7-9.3,6.1c-1.3,2.7-2.3,10.9-1.2,12.6C32.6,53.9,32.7,53.5,32.7,53.1z M41.2,47.6
	c0.1,0.2,0.2,0.6,0.4,0.8c1,1.1,1.9,2.2,2.9,3.1c0.4,0.3,1,0.3,1.6,0.5c0.1-0.7,0.4-1.4,0.3-2.1c-0.5-2.9-1-5.8-1.6-8.7
	c-0.1-0.3-0.3-0.6-0.5-0.9c-0.1,0.4-0.2,0.8-0.1,1.2c0.5,2.5,1,4.9,1.4,7.4c0.1,0.7,0.1,1.5,0.2,2.2c-0.1,0.1-0.2,0.2-0.3,0.2
	c-1.3-1.3-2.6-2.7-3.8-4C41.4,47.4,41.3,47.4,41.2,47.6z M34.8,55.2c1.9,1,3.8,2.1,5.8,2.8c0.9,0.3,1.4-0.7,1-1.8
	c-0.6-1.6-1.6-3.1-2.3-4.6c-0.1-0.2-0.4-0.2-0.8-0.2c1,2.2,2.3,3.6,2.7,5.6c-0.1,0.2-0.1,0.3-0.2,0.5c-1.9-0.9-4-1.9-6-2.9
	C34.8,55.1,34.8,55.2,34.8,55.2z M64,26.1c-0.6-0.6-1.2-1.7-1.8-1.7c-1.7-0.1-3.5-0.2-5,0.5c-2.7,1.2-5.2,3.1-7.7,4.8
	c-1.4,0.9-2,2.5-2.3,4.2c-0.5,2.4,0.8,6.1,2.6,7.2c-0.1-0.6-0.2-1-0.4-1.3c-0.3-0.7-0.6-1.2-1-1.8c-1.2-2.6-0.7-5.8,1.3-7.4
	c1.9-1.5,4-2.7,6-4.1c1.8-1.3,3.8-1.6,5.8-1.5c0.4,0,0.8,0.5,1.2,0.8c0.3,0.2,0.6,0.5,1,0.7C63.9,26.5,63.9,26.3,64,26.1z
	 M56.5,38.8c-1.2-1.2-4-2.7-5-2.2c1,0.6,1.8,1,2.7,1.5c1.2,0.7,2.5,1.3,2.7,3.4c0,0.1,0.2,0.2,0.5,0.3
	C57.6,40.4,57.4,39.6,56.5,38.8z M60,28.5c-0.6,2.7,0.8,7.2,2.2,7.8C61.5,33.8,60.8,31.3,60,28.5z M29.1,64.7
	c0.2,0.2,0.4,0.7,0.6,0.8c2.7,2.5,3,6.4,0.7,9.5c-1.3,1.7-2.9,2.6-4.7,3c-0.3,0.1-0.6,0.3-1,0.5c0.1,0.2,0.1,0.3,0.1,0.5
	c1.9-0.1,3.6-0.9,5.4-2.5c-0.1,1.1-0.3,1.9-0.4,2.7c0.8-0.3,1.2-0.8,1-1.8c-0.3-1.8,0.7-2.8,1.1-4c0.8,0.9,1.6,1.8,2.4,2.7
	c0.1-0.2,0.3-0.3,0.4-0.4c-0.3-0.4-0.5-1-0.8-1.2c-0.9-0.7-1.2-1.7-1.2-2.9c0-0.5,0.1-0.9-0.1-1.4c-0.3-1.3,0.3-2.1,1.2-2.4
	c1.2-0.4,2.4-0.7,3.6-1.1c0.3-0.1,0.5-0.3,0.8-0.4C38,66.1,38,65.9,38,65.7c-1.7,0.4-3.4,0.9-5.1,1.3c0.5-0.7,0.9-1.6,1.4-2.4
	c-0.1-0.2-0.3-0.2-0.4-0.4c-0.6,0.9-1.3,1.8-1.9,2.6c-0.9-0.9-1.8-1.8-2.7-2.7C29.4,64.3,29.2,64.5,29.1,64.7z M85.5,25.1
	c1-1.8,1.6-3.9,1.4-6.2c-0.3-3.6-2.3-5.2-4.7-6.1c-3.9-1.3-7.7-0.6-11.3,1.1c-1.9,0.9-2.5,1.7-2.4,4.2c0.2,3.7,0.6,7.5,1,11.2
	c0,0.2,0.3,0.5,0.4,0.7c0.2-0.7,0.3-1.2,0.2-1.7c-0.3-3.1-0.7-6.2-0.8-9.3c-0.1-3.3-0.3-3.4,2.1-4.5c0.5-0.2,1-0.5,1.6-0.7
	c3.6-1.2,7.1-1.5,10.6,0.4c1.9,1.1,2.9,3.1,2.7,5.7c-0.1,1.2-0.5,2.2-0.8,3.4c-0.1,0.5-0.2,0.9-0.3,1.4C85.2,24.9,85.4,25,85.5,25.1
	z M96.4,24.9c-0.2-0.7-0.4-1.3-0.6-2c-1.4-3.9-0.5-7.3,2.5-8.7c4.5-2.2,8.8-1.2,13,1.1c0.4,0.2,0.7,0.8,0.8,1.3
	c0.1,0.9,0.1,1.8,0.1,2.7c-0.3,3-0.6,6.1-0.8,9c-0.1,0.5,0,1.1,0,1.6c0.1,0,0.3,0,0.4,0.1c0.1-0.3,0.2-0.6,0.3-0.9
	c0.3-3.6,0.9-7.1,1-10.7c0.1-2.8-0.1-3.6-2.3-4.6c-0.2-0.1-0.3-0.2-0.5-0.2c-4.2-1.7-8.4-2.4-12.6,0c-3.4,1.9-4,7.5-1.4,11.4
	C96.1,25,96.3,25,96.4,24.9z"/>
<path class="st0" d="M24.3,148.9c3.2,0.2,5.7,2.3,8.2,4.3c2.7,2.1,3.7,5.1,3.1,9c-0.1,0.7-0.2,1.6-0.1,2.3c0.1,2.9,0.1,5.8-2.3,8
	c2.6,0,4.7-0.1,6.9,0.1c0.9,0.1,1.8,0.5,2.7,1.1c3.8,2.7,4.9,7.7,4.5,12.4c-0.1,0.5-0.1,0.9-0.1,1.3c0,2.2,0.3,4.5-1.4,6.1
	c1.4-0.2,2.8-0.6,4.2-0.7c1.4-0.1,2.9-0.1,4.3,0.2c1.5,0.2,2.5,1.5,3,3.4c0.8,3.2,1.7,6.4,2.4,9.5c0.3,1.2,0.3,2.5,0.5,4
	c1.2-1.8,2.3-3.6,3.6-5.5c0.5-0.7,1-1.4,1.7-1.8c2.2-1.4,4.5-0.1,5.3,3.1c1.2,4.4,2.3,8.8,3.4,13.2c0.1,0,0.2,0.1,0.3,0.1
	c0.5-1,1-2,1.5-3.1c0.6-1.5,1-3.1,1.6-4.5c1.2-3.1,4.3-4,6.2-1.4c2.2,3.1,4.3,6.4,6.1,9.8c1.6,3.1,1,6.1-0.8,8.5
	c-1.2,1.5-2.7,1.7-4.3,1.8c-1.8,0.2-3.6,0.3-5.4,0.6c-1.4,0.2-2.6,0.1-3.8-0.7c-1.2-0.9-2.1-2.2-2.3-4.1c-0.1-0.7-0.1-1.5-0.3-2.4
	c-0.5,0.5-0.9,0.9-1.3,1.4c-3.1,3.4-6.5,3.6-10.2,1.7c-1.7-0.9-2.9-2.6-3.4-4.8c-0.5-2.3-0.8-4.6-1.2-7c-0.2,0.3-0.5,0.7-0.8,1.2
	c-1.6,2.4-3.6,3.6-6.1,3.5c-1.2-0.1-2.5-0.2-3.6-0.5c-3.2-0.8-4.9-3.1-5.3-7.3c-0.3-3-0.5-6.1-0.4-9.1c0-1.6,0.6-3.1,0.9-4.6
	c-1.3,0.7-2.7,1.6-4,2.2c-3,1.4-6,0.5-8.7-1.5c-1.6-1.2-2.1-3.2-2.7-5.3c-1.7-6.1-0.6-11.4,2.8-16c0.1-0.1,0.1-0.2,0.2-0.3
	c0,0,0-0.1,0-0.2c-0.8,0.1-1.7,0.2-2.5,0.3c-2.9,0.7-5.7-0.2-8.3-1.6c-3.3-1.7-5.1-5.2-5.5-9.8c-0.4-4.6,0.7-8.7,3.4-11.9
	c0.2-0.2,0.4-0.5,0.6-0.8c0,0,0-0.1-0.1-0.2 M37.3,173.3c0-0.2-0.1-0.3-0.1-0.4c-1.6,0.4-3.4,0.2-4.7,1.2c-2.9,2.1-4.7,5.5-6.1,9.2
	c-1.1,3.1-0.5,6-0.1,9c1,7,6.2,8.2,9.8,7.3c3-0.8,5.7-2.9,8-5.8c1.4-1.7,2.6-3.4,2.1-6.1c-0.1-0.3,0-0.7,0.1-1.1
	c0.5-2.7,0-5.3-0.8-7.8c-0.8-2.7-3.6-5.4-5.8-5.6C38.9,173.3,38.1,173.3,37.3,173.3z M48.8,218.5c2.7,0.4,4.9-0.8,6.7-3.6
	c0.7-1.1,1.4-2.2,2.1-3.2c1.1-1.7,1.7-3.5,1-5.8c-0.8-3-1.6-6-2.3-9c-0.5-1.9-1.4-3.1-2.9-3.1c-2.3,0-4.7,0.1-7.1,0.6
	c-3.1,0.7-5.4,4.5-5.4,8.5c0.1,2.7,0.2,5.6,0.4,8.3c0.3,3.9,1.9,6.2,4.9,7C47.1,218.3,48,218.4,48.8,218.5z M34.6,160.1
	c0.1,0,0.2,0,0.3,0c0-2.3-0.5-3.7-1.9-5.1c-1.1-1.1-2.3-1.9-3.4-2.8c-3.4-2.7-6.8-3-10.4-0.2c-3.3,2.6-5.5,5.9-6,10.9
	c-0.5,5.2,1.7,9.9,4.5,11.5c2.4,1.5,5.1,2,7.9,2c4,0,6.3-3,8.4-6.5c0.4-0.7,0.6-1.6,0.6-2.4C34.6,165.1,34.6,162.6,34.6,160.1z
	 M57.8,215.2c-0.4,2.2,0.1,4.4,0.7,6.5c0.6,2.2,1.9,3.6,3.6,4.5c3.6,1.7,6.7,0.7,9.5-2.7c1.6-1.8,1.9-3.6,1.2-6.2c-1-3.6-2-7.4-3-11
	c-0.8-3.2-3.7-4.2-5.4-1.8c-1.9,2.7-3.8,5.3-5.7,8c-0.2,0.3-0.4,0.8-0.4,1.2c0,0.7,0.3,1.4,0.3,2.1c0.1,2,0.5,2.6,2,3.2
	c1.5,0.7,3,1.2,4.5,2.1c1.7,1.1,3.3,2.5,5.4,1.7c-0.1,0.4-0.3,0.7-0.5,0.8c-1.2,0.4-2.3,0.1-3.4-0.6c-2.2-1.2-4.3-2.3-6.5-3.4
	c-1.1-0.6-1.8-1.5-1.9-3C57.9,216.1,57.9,215.7,57.8,215.2z M83.5,228.9c0,0.2,0.1,0.3,0.1,0.5c1.4-0.4,2.8-0.5,4-1.2
	c2.2-1.4,2.9-5.1,1.4-8c-1.8-3.3-3.8-6.5-5.9-9.5c-1.6-2.2-4-1.5-5.1,1.1c-0.5,1.1-0.8,2.3-1.2,3.4c-0.6,1.5-1.2,3-2.1,4.3
	c-1.2,1.9-1.7,5.6-0.6,7.7c0.9,2,2.9,3,5,2.6C80.5,229.4,82,229.2,83.5,228.9z M164.3,152.6c0.7,1,1.3,1.7,1.8,2.5
	c2.6,3.7,3.2,8.2,2.1,12.8c-0.9,4.1-3,7.1-6.6,8.3c-3.1,1-6.2,1.5-9.5,0.4c0.8,1.7,1.7,3,2.3,4.5c2.5,5.4,1.4,10.7-0.7,15.7
	c-1.2,2.7-3.4,3.1-5.6,3.7c-2.6,0.7-4.9-0.5-7.1-1.8c-0.5-0.2-0.9-0.6-1.5-1c0.1,0.5,0.2,0.9,0.3,1.2c0.6,2,0.8,4,0.6,6.1
	c-0.2,2-0.1,4.1-0.3,6.1c-0.5,4.8-2.5,7.4-6.3,8c-0.8,0.1-1.5,0.2-2.3,0.2c-2.9,0.3-5.2-1.1-6.9-4c-0.2-0.2-0.4-0.6-0.6-0.9
	c-0.3,5.1-0.6,10.3-5.1,12.4c-4.1,1.9-7.7,0.7-10.8-3.5c-0.1,0.7-0.2,1.3-0.2,1.8c-0.1,4.1-3,5.8-5.4,5.6c-2.5-0.2-4.9-0.6-7.4-0.9
	c-4.2-0.7-6.2-6-3.8-10.4c1.7-3.1,3.6-6,5.4-8.9c0.8-1.2,1.8-1.7,3-1.9c1.4-0.2,2.7,0.5,3.4,2.2c0.6,1.5,1.1,3.1,1.7,4.6
	c0.5,1.2,1,2.3,1.6,3.6c0.1,0,0.2-0.1,0.3-0.1c1.1-4.1,2.3-8.3,3.3-12.4c0.5-2.1,1.2-3.8,3-4.2c1.8-0.5,3.2,0.4,4.3,2.2
	c1.1,1.8,2.3,3.6,3.4,5.2c0.3-1.9,0.5-3.7,0.9-5.6c0.6-2.7,1.4-5.4,2.1-8.1c0.5-1.9,1.6-3.1,3.1-3.1c2.4-0.1,4.9,0.2,7.3,0.3
	c0.6,0.2,1,0.3,1.2,0.3c-2.1-4-1.8-8.4-1.2-12.8c0.3-2.7,1.5-4.8,3.2-6.4c1.3-1.2,2.7-2,4.3-2c1.9,0,3.9,0,6,0
	c-0.3-0.4-0.6-0.7-0.7-1.2c-0.4-0.9-1-1.9-1.1-2.9c-0.3-3-0.3-6-0.4-9c-0.1-2.2,0.8-4,2.2-5.2c2.7-2.5,5.6-4.8,9.2-5.2 M144.5,173.3
	c-1.1,0-1.9,0-2.8,0c-2.4,0.2-5.3,2.8-6.1,5.7c-0.7,2.5-1.2,4.9-0.7,7.5c0.1,0.9,0,1.8,0.1,2.7c0.1,0.7,0.1,1.6,0.4,2.1
	c1.9,2.8,4,5.3,6.7,6.8c1.9,1.1,3.8,2.1,5.9,1.5c2-0.5,4.3-0.7,5.4-3.2c2.1-4.6,3.1-9.5,0.9-14.7c-0.4-0.9-0.8-1.8-1.3-2.6
	C150.8,175.9,148.6,172.1,144.5,173.3z M131.7,218.6c0.9-0.1,1.8-0.2,2.7-0.3c3.4-0.5,5.3-3.1,5.5-7.6c0.1-2.5,0.4-5,0.3-7.5
	c-0.1-4-1.6-7.5-4.3-8.5c-2.7-1-5.4-1.3-8.1-0.9c-1,0.2-2.1,0.7-2.5,2.1c-1.1,4-2.1,8-3,12.1c-0.1,0.6,0.1,1.4,0.3,1.9
	c1.1,2,2.3,3.9,3.5,5.7C127.6,217.7,129.5,218.7,131.7,218.6z M146.7,164.6c-0.1,2.2-0.3,4.2,0.8,5.7c1,1.4,2.1,2.8,3.2,4.1
	c1.1,1.2,2.5,1.7,4,1.9c2.5,0.5,4.8-0.3,7.1-0.9c3-0.8,4.9-3.5,5.8-6.9c1.2-4.1,0.7-8.3-1.4-12c-1.6-2.8-3.7-4.5-6.1-5.6
	c-1.1-0.6-2.4-0.9-3.5-0.8c-3.2,0.3-5.8,2.7-8.4,5c-1.7,1.6-2,3.8-1.8,6.3C146.6,162.6,146.6,163.8,146.7,164.6z M110.6,223
	c0.1-0.2,0.1-0.2,0.1-0.4c1.5,0.5,2.9,0.2,4.2-0.7c1.4-0.9,2.9-1.9,4.5-2.4c2.1-0.7,3.6-1.9,3.3-5.1c0-0.1,0-0.2,0-0.2
	c0.6-1,0.1-1.5-0.5-2.2c-1.7-2.3-3.4-4.7-5.1-7.1c-0.9-1.3-1.9-2-3.3-1.7s-2,1.5-2.5,3c-1.1,3.8-2.1,7.7-3.1,11.6
	c-0.3,1-0.3,2.2-0.1,3.1c0.9,3.1,2.9,4.7,5.3,5.6c3.5,1.4,7.6-0.4,8.9-4.1c0.7-2,0.9-4.3,1.3-6.5c0.1-0.2-0.1-0.5-0.1-0.7
	c-0.2,0.5-0.3,1-0.3,1.5c-0.2,1.5-0.8,2.5-1.9,3c-2.2,1.1-4.4,2.2-6.5,3.4c-1.1,0.6-2.2,1.1-3.4,0.6
	C111,223.4,110.9,223.2,110.6,223z M107.8,223.8c0.1-1.7-0.3-3-1.2-4.2c-0.7-0.9-1.2-2.2-1.7-3.3c-0.5-1.2-0.9-2.6-1.4-3.9
	c-1.3-3.2-3.8-3.8-5.7-1c-1.9,2.7-3.6,5.6-5.3,8.6c-1,2-1.5,4.3-0.3,6.6c0.8,1.6,1.9,2.4,3.4,2.6c2.1,0.2,4.2,0.2,6.2,0.7
	C105.6,230.5,107.6,228.7,107.8,223.8z M40.2,193.7c-1.4-0.2-2.9-0.6-4.2-1c-0.4-0.1-0.7-0.6-1-0.9c-0.7-1-1.3-2.1-2.1-2.9
	c-0.6-0.7-0.8-1.2-0.8-2.2c0.1-1,0.2-2.2-0.1-3c-0.6-1.6-1.6-2.9-2.4-4.3c-0.1,0-0.2,0.1-0.3,0.1c0,0.3-0.1,0.7,0,0.9
	c0.3,0.6,0.5,1.1,0.9,1.6c1.1,1.5,1.6,3.1,1.2,5.1c-0.2,0.9,0.3,1.7,0.8,2.3c0.8,0.8,1.4,2,2.1,3c0.4,0.5,0.8,1.1,1.4,1.2
	c1.4,0.4,2.9,0.8,4.3,1c0.9,0.1,1.8-0.4,2.7-0.7c0.1,0,0.2-0.4,0.3-0.8C42,193.4,41.1,193.8,40.2,193.7z M43.1,181.3
	c0.1,0.5,0.1,1,0.3,1.5c0.1,0.2,0.2,0.3,0.3,0.4c0.1,0.1,0.3-0.2,0.3-0.2c-0.1-0.8-0.2-1.7-0.5-2.4c-0.1-0.2-1-0.1-1.4,0.2
	c-0.6,0.7-1.2,1.6-1.8,2.4c-1.4,2.2-2.8,4.2-4.2,6.4c0.1,0.2,0.2,0.2,0.3,0.4c0.3-0.2,0.6-0.3,0.8-0.7c1.6-2.3,3.1-4.7,4.6-7
	c0.3-0.4,0.5-1,0.7-1.5C42.7,181.1,42.9,181.2,43.1,181.3z M33.9,178c1.4-1.8,2.7-0.7,4-0.2c-0.8,1.3-1.6,2.7-2.4,4
	c-0.1,0.2,0,0.7,0,1.1c0.1,0,0.3,0,0.3,0.1c0.8-2.3,2.2-3.9,3.8-5.3c0.2-0.2,0.3-0.6,0.4-0.8c-0.3-0.1-0.5-0.2-0.7-0.2
	c-0.8-0.1-1.8,0-2.6-0.3c-1.1-0.4-2-0.2-2.9,0.7c-0.1,0.2-0.1,0.6-0.2,0.8C33.7,177.9,33.9,177.9,33.9,178z M42.3,188.8
	c-0.1,0.7-0.2,1.3-0.1,2c0.1,0.5,0.4,0.9,0.6,1.3c0,0.1,0.3,0,0.3-0.2c0.1-0.1,0.1-0.3,0.1-0.5c-0.2-0.8-0.4-1.7-0.6-2.5
	C42.6,188.9,42.5,188.9,42.3,188.8z M43.1,200.4c-0.1,0.3-0.3,0.7-0.2,0.9c0.6,2.2,1,4.6,1.9,6.7c0.5,1.4,1.5,2.7,2.5,3.6
	c1.4,1.2,3,1.8,4.7,2.6c2.1,0.9,3.7,0.2,4.9-2.2c0.2-0.3,0.1-0.7,0.2-1.2c-0.3,0.2-0.6,0.3-0.8,0.7c-1.3,2.2-2.5,2.7-4.5,1.7
	c-0.9-0.4-1.8-1.2-2.8-1.6c-2.5-0.8-3.6-3.1-4.3-6c-0.5-1.7-0.9-3.5-1.3-5.2C43.4,200.5,43.3,200.5,43.1,200.4z M52.2,206.6
	c0.1,0.4,0.1,0.8,0.1,1.2c0.2,1.9,1,2.5,2.3,1.7c0.5-0.2,0.8-0.8,1.2-1.3c-0.5,0.2-1,0.2-1.4,0.5c-1,0.5-1.4,0.3-1.4-1
	c0-1.5,0.3-3,0.5-4.5c0.1-0.7,0.5-1.5,0.6-2.2c0.1-0.2-0.1-0.4-0.2-0.7c-0.1,0.1-0.5,0.2-0.5,0.3c-0.5,1.9-1,3.9-1.5,5.9
	C52.1,206.5,52.1,206.5,52.2,206.6z M48.7,205c0.4-0.7,0.7-1.5,1-2.2c0.6-1.5,1.2-3.1,1.8-4.7c-0.1,0-0.5,0-0.6,0.2
	c-0.5,0.8-1,1.7-1.4,2.6c-0.6,1.7-0.6,3.9-2.8,4.2C47.6,206,48.2,205.8,48.7,205z M46.2,199.9c0.7-0.8,1.4-1.7,2.3-2.6
	c0.3-0.3,0.8-0.4,1.2-0.7c0-0.2,0-0.2,0-0.4c-0.3-0.1-0.6-0.2-0.8-0.2c-1.7,0.7-3,1.7-3.3,4.4C45.8,200.3,46,200.1,46.2,199.9z
	 M30.4,158.6c0,2.2,0.1,4.1,0,6c-0.1,1.2-0.1,2.3-1.1,3.1c-0.4,0.3-0.5,1.2-0.7,1.7c-0.7,2.5-1.8,3.8-4.2,2.6
	c-3.2-1.6-6.2-7.5-5.7-11.9c0.3-2.2,0.8-4.3,1.3-6.4c0.5-1.9,1.8-2.7,3.2-3c0.3-0.1,0.5,0.2,0.7,0.3c0.8,0.6,1.6,1.2,2.4,1.7
	c0.6,0.3,0.9,0.7,1,1.5C27.6,156.6,28.2,158.6,30.4,158.6z M25.1,154.4c0-1.2-1.5-2.8-2.4-2.6c-0.9,0.3-1.7,0.9-1.9,2.2
	c-0.5,2.2-1.1,4.5-1.4,6.8c-0.4,3.7,2.5,9.2,5.3,10.4c2,0.8,2.5,0.5,3.3-2.1c0.3-0.8,0.6-1.5,1-2.2c0.3-0.7,0.7-1.3,0.7-2
	c0.1-1.7-0.1-3.6-0.1-5.2c-0.7-0.6-1.4-1.2-2.4-2c0.5,1.5,1,2.8,1.5,4.2c0.3,0.9,0.5,1.8,0.6,2.7c0.1,0.2-0.2,0.5-0.3,0.7
	c-0.1-0.2-0.3-0.4-0.4-0.7c-0.1-0.6-0.2-1.2-0.3-1.7c-0.5,2.1-0.4,4.2-1.9,5.9c-0.1-0.5-0.2-0.9-0.1-1.1c1.1-1.9,1-4.1,1-6.4
	c-0.1-3.9-1.8-6.1-4.5-6.2C22.9,154.1,23.3,154,25.1,154.4z M26.8,156.8c0.1-0.1,0.3-0.1,0.4-0.2c-0.6-0.8-0.1-2.2-1-2.9
	c-0.1,0.1-0.3,0.2-0.4,0.2C26.1,154.9,26.5,155.9,26.8,156.8z M62.9,216.7c-0.3-0.3-0.5-0.7-0.8-0.9c-1.4-1.2-1.6-2.2-0.6-3.8
	c0.3-0.6,0.8-1.1,1.2-1.7c0.5-0.7,0.9-1.3,1.6-2.3c-0.5,0-0.8-0.1-0.9,0c-1,1.4-2,2.7-2.9,4.3c-0.6,1.2-0.5,2.5,0.5,3.5
	c0.5,0.5,1,0.9,1.6,1.4C62.6,217.1,62.8,216.9,62.9,216.7z M67.1,211.3c0.5,2.5,0.8,4.9,1.3,7.4c0.1,0.4,0.3,0.9,0.5,1.2
	c0.6,0.7,1.1,0.4,1.4-0.3c0.3-0.5,1-1.1,0.2-1.9c-0.3,0.7-0.6,1.2-1.1,2c-0.3-1.1-0.5-1.8-0.6-2.6c-0.3-1.7-0.6-3.4-0.8-5.1
	c-0.1-0.3-0.3-0.6-0.5-0.9C67.4,211.1,67.2,211.3,67.1,211.3z M86.8,226c-2.7,0.2-5.3,0.2-8,0.2c-1.4,0-2.9,0-4.3,0
	c0.1,0.4,0.4,0.7,0.6,0.7c2.1,0.2,4.3,0.5,6.4,0.4c1.9,0,3.9-0.2,5.8-0.5c1.2-0.2,1.6-0.7,1.4-2.1C88.1,225.3,87.5,226,86.8,226z
	 M151.6,179.5c-0.3,0.4-0.5,0.8-0.7,1.2c-1.2,1.9-2.3,3.8-1.8,6.5c0.1,0.4-0.3,1-0.6,1.4c-0.7,1.1-1.5,2.1-2.2,3.1
	c-0.3,0.3-0.5,0.7-0.8,0.8c-2.3,0.3-4.4,1.9-6.7,0.5c-0.1-0.1-0.3,0-0.6,0c0.1,0.3,0.1,0.7,0.2,0.7c0.9,0.3,1.9,0.8,2.8,0.7
	c1.5-0.1,2.9-0.6,4.3-1c0.5-0.2,1-0.7,1.4-1.2c0.8-1,1.5-2,2.1-3c0.4-0.7,1-1.6,0.8-2.2c-0.4-2.3,0.4-4,1.5-5.6
	c0.3-0.4,0.5-0.7,0.7-1.2c0.1-0.2,0-0.6,0-0.9C151.8,179.5,151.7,179.5,151.6,179.5z M147.7,177.8c-0.1-0.2-0.1-0.7-0.3-0.8
	c-0.8-0.8-1.8-1-2.9-0.6c-0.8,0.3-1.7,0.2-2.5,0.3c-0.3,0-0.5,0.1-0.8,0.2c0.1,0.3,0.3,0.7,0.5,0.9c1,1.2,2,2.5,3,3.6
	c0.4,0.4,0.7,0.9,1,1.4c-0.2-0.7-0.2-1.5-0.5-2c-0.6-1.1-1.3-2-1.9-2.9c1.4-0.7,2.7-1.6,4.1,0.2C147.5,178,147.6,177.9,147.7,177.8z
	 M145.1,189.7c-1.9-2.9-3.8-5.8-5.7-8.5c-0.3-0.4-1.4-0.7-1.4-0.6c-0.3,0.7-0.5,1.6-0.6,2.4c0,0.1,0.3,0.3,0.3,0.3
	c0.1,0,0.3-0.2,0.3-0.4c0.1-0.5,0.2-1,0.3-1.8c0.6,0.8,1,1.4,1.5,2c1.4,2.2,2.9,4.4,4.3,6.5c0.2,0.2,0.5,0.4,0.8,0.6
	C145,190,145.1,189.9,145.1,189.7z M138,192.4c1.3-1.2,1.5-2.9,0.6-3.5C138.4,190,138.2,191.1,138,192.4z M129.2,214.3
	c1.2-0.5,2.2-1.3,3.4-1.8c2.1-0.7,3.4-2.7,4.2-5.1c0.6-1.8,1-3.7,1.4-5.6c0.1-0.3-0.1-0.7-0.1-1.2c-0.2,0.3-0.5,0.6-0.6,0.9
	c-0.6,2.1-1.1,4.1-1.8,6.2c-0.5,1.5-1.3,2.7-2.5,3.5c-1.2,0.7-2.4,1.3-3.6,1.9c-2.3,1.2-3.4,0.8-5-1.7c-0.2-0.2-0.5-0.4-0.9-0.7
	C124.6,213.9,126.8,215.3,129.2,214.3z M125.3,208.6c0.3,0.2,0.6,0.6,1,0.7c1.6,1,2.3,0.4,2.6-1.7c0.3-2.6-0.6-4.7-1.2-7
	c-0.1-0.2-0.4-0.2-0.8-0.2c0.3,1,0.6,1.7,0.7,2.5c0.3,1.7,0.5,3.3,0.6,5c0.1,1.1-0.5,1.5-1.3,0.9c-0.3-0.2-0.6-0.5-1-0.6
	c-0.2-0.1-0.4,0.1-0.6,0.1C125.3,208.4,125.3,208.4,125.3,208.6z M134.1,204.8c-0.9,0.2-1.2-0.6-1.6-1.5c-0.3-0.7-0.4-1.5-0.6-2.2
	c-0.5-1-1-2-1.5-3c-0.1-0.2-0.5-0.1-0.6-0.1c0.6,1.6,1.2,2.9,1.7,4.2c0.3,0.9,0.6,1.8,1.1,2.7s1.1,1.1,2,0
	C134.4,205,134.2,204.8,134.1,204.8z M135.1,200.2c0,0.1,0.3,0.2,0.4,0.2c0.1-0.2,0.2-0.5,0.1-0.7c-0.3-1.6-2.5-3.8-3.8-3.8
	c-0.1,0-0.3,0.2-0.6,0.7C133.1,197.3,134.6,198.1,135.1,200.2z M150.8,158.8c2.1-0.6,2.7-1.3,3-4.3c0.1-0.8,0.4-1.2,1-1.6
	c0.8-0.5,1.6-1.2,2.5-1.7c0.3-0.2,0.6-0.3,1-0.3c1.8,0.3,2.9,1.7,3.3,4.1c0.3,1.5,0.6,2.9,0.9,4.4c0.4,2,0.2,3.9-0.5,5.6
	c-0.6,1.7-1.4,3.2-2.2,4.7c-1.1,1.9-2.9,2.4-4.5,2.8c-1,0.2-1.6-0.7-2-1.7c-0.6-1.3-0.8-2.9-1.8-4c-0.4-0.4-0.5-1.6-0.5-2.5
	C150.8,162.6,150.8,160.7,150.8,158.8z M151.7,159.6c-0.1,1.7-0.2,3.3-0.2,4.9c0,0.7,0,1.6,0.3,1.8c1.1,0.9,1.2,2.5,1.8,3.8
	c0.3,0.8,0.8,1.8,1.6,1.5c1.2-0.5,2.6-0.9,3.5-2c1.5-1.9,2.7-4.2,3-7c0.1-1.2-0.1-2.5-0.3-3.7c-0.1-1.1-0.4-2.2-0.6-3.2
	c-0.2-1.5-0.6-2.7-1.7-3.5c-1.1-0.9-1.8,0.1-2.5,0.8c-0.3,0.3-0.5,0.8-0.7,1.2c2-0.2,2.5-0.1,2.4,1c-1.7-0.2-2.5,0.1-3.2,1.6
	c-1.6,3.5-1.8,7-0.4,10.8c0.1,0.2,0.1,0.7,0.1,1c-1.6-1.5-1.5-3.6-1.8-5.8c-0.8,2.2-0.9,2.4-1.4,2.3c0.8-2.4,1.6-4.8,2.3-7.3
	C153.2,158.5,152.5,159.1,151.7,159.6z M154.2,156.6c0.1,0.1,0.2,0.2,0.3,0.2c0.3-1,0.6-1.9,1-2.9c-0.1-0.1-0.3-0.2-0.4-0.2
	C154.2,154.4,154.7,155.8,154.2,156.6z M110.4,218.6c0.4,0.6,0.8,1.2,1.3,1.7c0.1,0.1,0.8-0.5,0.9-0.9c0.6-2.7,1-5.4,1.6-8
	c-0.1-0.1-0.3-0.2-0.5-0.2c-0.1,0.2-0.4,0.5-0.5,0.8c-0.3,1.7-0.6,3.5-0.9,5.2c-0.1,0.7-0.4,1.5-0.6,2.6c-0.5-0.8-0.7-1.3-1.2-2.2
	C110.6,218.1,110.4,218.5,110.4,218.6z M117.2,208.4c0.6,0.9,1.2,1.7,1.9,2.7c1.9,2.7,1.8,3.4-0.5,5.3c-0.1,0.1-0.1,0.2-0.3,0.3
	c0.3,0.2,0.5,0.4,0.6,0.3c2-0.7,2.7-3.1,1.6-5.3c-0.8-1.3-1.6-2.4-2.5-3.6c-0.1-0.2-0.4-0.1-0.6-0.2
	C117.3,208.1,117.2,208.3,117.2,208.4z M93.2,226.6c0.6,0.2,1.2,0.5,1.8,0.5c3.3,0.1,6.7,0.1,10,0.1c0.5,0,1-0.2,1.5-0.3
	c0.1-0.1,0.3-0.3,0.4-0.5c-0.1-0.1-0.3-0.3-0.5-0.3c-2,0.1-4,0.4-6,0.3c-2.7-0.1-5.4,0.7-7.9-1.7C92.4,225.9,92.5,226.3,93.2,226.6z
	"/>
<g id="LowerTeeth">
	<g id="tooth_T" ng-click="deciduous.toothT = !deciduous.toothT; clickMe(deciduous.toothT)" ng-model="deciduous.toothT" ng-class="{'highlight' : deciduous.toothT}">
		<path class="st1" d="M34.6,159.9c0,2.5,0.1,5,0,7.5c0,0.8-0.3,1.8-0.6,2.4c-2.1,3.5-4.5,6.5-8.4,6.5c-2.8,0-5.5-0.6-7.9-2
			c-2.8-1.7-5-6.3-4.5-11.5c0.5-5.1,2.7-8.3,6-10.9c3.6-2.8,7-2.6,10.4,0.2c1.2,0.9,2.4,1.7,3.4,2.8c1.4,1.4,1.9,2.8,1.9,5.1
			C34.8,159.9,34.7,159.9,34.6,159.9z M30.4,158.4c-2.2,0-2.8-2-3-4.2c-0.1-0.9-0.4-1.2-1-1.5c-0.8-0.5-1.6-1.2-2.4-1.7
			c-0.3-0.2-0.5-0.4-0.7-0.3c-1.5,0.2-2.7,1.1-3.2,3c-0.5,2.1-1,4.2-1.3,6.4c-0.6,4.4,2.5,10.3,5.7,11.9c2.5,1.2,3.5-0.2,4.2-2.6
			c0.2-0.7,0.3-1.5,0.7-1.7c1-0.7,1-1.9,1.1-3.1C30.5,162.4,30.4,160.4,30.4,158.4z M22.7,151.5c-0.9,0.3-1.7,0.9-1.9,2.2
			c-0.5,2.2-1.1,4.5-1.4,6.8c-0.4,3.7,2.5,9.2,5.3,10.4c2,0.8,2.5,0.5,3.3-2.1c0.3-0.8,0.6-1.5,1-2.2c0.3-0.7,0.7-1.3,0.7-2
			c0.1-1.7-0.1-3.6-0.1-5.2c-0.7-0.6-1.4-1.2-2.4-2c0.5,1.5,1,2.8,1.5,4.2c0.3,0.9,0.5,1.8,0.6,2.7c0.1,0.2-0.2,0.5-0.3,0.7
			c-0.1-0.2-0.3-0.4-0.4-0.7c-0.1-0.6-0.2-1.2-0.3-1.7c-0.5,2.1-0.4,4.2-1.9,5.9c-0.1-0.5-0.2-0.9-0.1-1.1c1.1-1.9,1-4.1,1-6.4
			c-0.1-3.9-1.8-6.1-4.5-6.2c0.1-1,0.5-1.1,2.3-0.7C25.1,152.8,23.6,151.2,22.7,151.5z M27.1,156.4c-0.6-0.8-0.1-2.2-1-2.9
			c-0.1,0.1-0.3,0.2-0.4,0.2c0.3,1,0.6,1.9,1,2.9C26.9,156.5,27,156.4,27.1,156.4z"/>
	</g>
	<g id="tooth_S" ng-click="deciduous.toothS = !deciduous.toothS; clickMe(deciduous.toothS)" ng-model="deciduous.toothS" ng-class="{'highlight' : deciduous.toothS}">
		<path class="st1" d="M37.3,173c0.8,0,1.6,0,2.4,0c2.2,0.1,5.1,2.9,5.8,5.6c0.8,2.6,1.2,5.1,0.8,7.8c-0.1,0.3-0.1,0.7-0.1,1.1
			c0.5,2.7-0.8,4.4-2.1,6.1c-2.3,2.8-4.9,5-8,5.8c-3.6,0.9-8.8-0.3-9.8-7.3c-0.5-3.1-1.1-6,0.1-9c1.4-3.8,3.3-7.1,6.1-9.2
			c1.3-1,3.2-0.8,4.7-1.2C37.3,172.7,37.3,172.9,37.3,173z M43.2,192.9c-1.2,0.2-2.1,0.7-3,0.6c-1.4-0.2-2.9-0.6-4.2-1
			c-0.4-0.1-0.7-0.6-1-0.9c-0.7-1-1.3-2.1-2.1-2.9c-0.6-0.7-0.8-1.2-0.8-2.2c0.1-1,0.2-2.2-0.1-3c-0.6-1.6-1.6-2.9-2.4-4.3
			c-0.1,0-0.2,0.1-0.3,0.1c0,0.3-0.1,0.7,0,0.9c0.3,0.6,0.5,1.1,0.9,1.6c1.1,1.5,1.6,3.1,1.2,5.1c-0.2,0.9,0.3,1.7,0.8,2.3
			c0.8,0.8,1.4,2,2.1,3c0.4,0.5,0.8,1.1,1.4,1.2c1.4,0.4,2.9,0.8,4.3,1c0.9,0.1,1.8-0.4,2.7-0.7C43,193.6,43.1,193.2,43.2,192.9z
			 M42.6,180.7c0.2,0.2,0.3,0.2,0.5,0.4c0.1,0.5,0.1,1,0.3,1.5c0.1,0.2,0.2,0.3,0.3,0.4c0.1,0.1,0.3-0.2,0.3-0.2
			c-0.1-0.8-0.2-1.7-0.5-2.4c-0.1-0.2-1-0.1-1.4,0.2c-0.6,0.7-1.2,1.6-1.8,2.4c-1.4,2.2-2.8,4.2-4.2,6.4c0.1,0.2,0.2,0.2,0.3,0.4
			c0.3-0.2,0.6-0.3,0.8-0.7c1.6-2.3,3.1-4.7,4.6-7C42.1,181.7,42.3,181.2,42.6,180.7z M33.7,177.5c0.1,0.1,0.2,0.2,0.3,0.2
			c1.4-1.8,2.7-0.7,4-0.2c-0.8,1.3-1.6,2.7-2.4,4c-0.1,0.2,0,0.7,0,1.1c0.1,0,0.3,0,0.3,0.1c0.8-2.3,2.2-3.9,3.8-5.3
			c0.2-0.2,0.3-0.6,0.4-0.8c-0.3-0.1-0.5-0.2-0.7-0.2c-0.8-0.1-1.8,0-2.6-0.3c-1.1-0.4-2-0.2-2.9,0.7
			C33.7,176.9,33.7,177.3,33.7,177.5z M42.7,188.7c-0.1-0.1-0.2-0.1-0.3-0.2c-0.1,0.7-0.2,1.3-0.1,2c0.1,0.5,0.4,0.9,0.6,1.3
			c0,0.1,0.3,0,0.3-0.2c0.1-0.1,0.1-0.3,0.1-0.5C43.1,190.4,42.9,189.5,42.7,188.7z"/>
	</g>
	<g id="tooth_R" ng-click="deciduous.toothR = !deciduous.toothR; clickMe(deciduous.toothR)" ng-model="deciduous.toothR" ng-class="{'highlight' : deciduous.toothR}">
		<path class="st1" d="M48.8,218.2c2.7,0.4,4.9-0.8,6.7-3.6c0.7-1.1,1.4-2.2,2.1-3.2c1.1-1.7,1.7-3.5,1-5.8c-0.8-3-1.6-6-2.3-9
			c-0.5-1.9-1.4-3.1-2.9-3.1c-2.3,0-4.7,0.1-7.1,0.6c-3.1,0.7-5.4,4.5-5.4,8.5c0.1,2.7,0.2,5.6,0.4,8.3c0.3,3.9,1.9,6.2,4.9,7
			C47.1,218.1,48,218.1,48.8,218.2z M43.5,200.2c0.5,1.7,0.8,3.5,1.3,5.2c0.8,2.8,1.9,5.1,4.3,6c1,0.3,1.8,1.1,2.8,1.6
			c2,1,3.2,0.4,4.5-1.7c0.2-0.3,0.5-0.4,0.8-0.7c-0.1,0.4-0.1,0.8-0.2,1.2c-1.2,2.3-2.9,3.1-4.9,2.2c-1.6-0.7-3.2-1.4-4.7-2.6
			c-1-0.8-1.9-2.2-2.5-3.6c-0.8-2.2-1.3-4.5-1.9-6.7c-0.1-0.2,0.1-0.6,0.2-0.9C43.3,200.2,43.4,200.2,43.5,200.2z M52,206.2
			c0.5-2,1-3.9,1.5-5.9c0.1-0.2,0.3-0.2,0.5-0.3c0.1,0.2,0.2,0.5,0.2,0.7c-0.2,0.7-0.5,1.4-0.6,2.2c-0.2,1.5-0.5,3-0.5,4.5
			c0,1.3,0.4,1.6,1.4,1c0.5-0.2,0.9-0.3,1.4-0.5c-0.4,0.4-0.7,1-1.2,1.3c-1.4,0.8-2.1,0.2-2.3-1.7c-0.1-0.4-0.1-0.8-0.1-1.2
			C52.1,206.3,52.1,206.3,52,206.2z M46.7,204.8c2.2-0.3,2.1-2.6,2.8-4.2c0.3-0.9,0.8-1.7,1.4-2.6c0.1-0.2,0.5-0.2,0.6-0.2
			c-0.6,1.7-1.2,3.2-1.8,4.7c-0.3,0.7-0.6,1.6-1,2.2C48.2,205.5,47.5,205.7,46.7,204.8z M45.7,200.2c0.3-2.7,1.6-3.7,3.3-4.4
			c0.3-0.1,0.5,0.1,0.8,0.2c0,0.2,0,0.2,0,0.4c-0.4,0.2-0.9,0.3-1.2,0.7c-0.8,0.8-1.5,1.7-2.3,2.6C46.1,199.8,45.9,200,45.7,200.2z"
			/>
	</g>
	<g id="tooth_Q" ng-click="deciduous.toothQ = !deciduous.toothQ; clickMe(deciduous.toothQ)" ng-model="deciduous.toothQ" ng-class="{'highlight' : deciduous.toothQ}">
		<path id="_x326" class="st1" d="M57.8,214.8c-0.4,2.2,0.1,4.4,0.7,6.5s1.9,3.6,3.6,4.5c3.6,1.7,6.7,0.7,9.5-2.7
			c1.6-1.8,1.9-3.6,1.2-6.2c-1-3.6-2-7.4-3-11c-0.8-3.2-3.7-4.2-5.4-1.8c-1.9,2.7-3.8,5.3-5.7,8c-0.2,0.3-0.4,0.8-0.4,1.2
			c0,0.7,0.3,1.4,0.3,2.1c0.1,2,0.5,2.6,2,3.2c1.5,0.7,3,1.2,4.5,2.1c1.7,1.1,3.3,2.5,5.4,1.7c-0.1,0.4-0.3,0.7-0.5,0.8
			c-1.2,0.4-2.3,0.1-3.4-0.6c-2.2-1.2-4.3-2.3-6.5-3.4c-1.1-0.6-1.8-1.5-1.9-3C57.9,215.8,57.9,215.3,57.8,214.8z"/>
	</g>
	<g id="tooth_P" ng-click="deciduous.toothP = !deciduous.toothP; clickMe(deciduous.toothP)" ng-model="deciduous.toothP" ng-class="{'highlight' : deciduous.toothP}">
		<path class="st1" d="M78.8,229.5c-2.1,0.5-3.9-0.5-4.8-2.6c-1-2.2-0.6-5.9,0.6-7.7c0.8-1.2,1.4-2.8,2.1-4.3
			c0.5-1.1,0.8-2.2,1.2-3.4c1-2.6,3.5-3.2,5.1-1.1c2.1,3,4.2,6.1,5.9,9.5c1.6,3,0.8,6.5-1.4,8c-1.2,0.7-2.9,1.2-4.1,1.3L78.8,229.5z
			 M88.8,224.5c-0.7,0.4-1.4,1.2-2,1.2c-2.7,0.2-5.3,0.2-8,0.2c-1.4,0-2.9,0-4.3,0c0.1,0.4,0.4,0.7,0.6,0.7c2.1,0.2,4.3,0.5,6.4,0.4
			c1.9,0,3.9-0.2,5.8-0.5C88.5,226.4,88.9,225.8,88.8,224.5z"/>
	</g>
	<g id="tooth_O" ng-click="deciduous.toothO = !deciduous.toothO; clickMe(deciduous.toothO)" ng-model="deciduous.toothO" ng-class="{'highlight' : deciduous.toothO}">
		<path class="st1" d="M107.8,223.5c0.1-1.7-0.3-3-1.2-4.2c-0.7-0.9-1.2-2.2-1.7-3.3c-0.5-1.2-0.9-2.6-1.4-3.9
			c-1.3-3.2-3.8-3.8-5.7-1c-1.9,2.7-3.6,5.6-5.3,8.6c-1,2-1.5,4.3-0.3,6.6c0.8,1.6,1.9,2.4,3.4,2.6c2.1,0.2,4.2,0.2,6.2,0.7
			C105.6,230.2,107.5,228.3,107.8,223.5z M92.5,224.4c2.5,2.4,5.3,1.6,7.9,1.7c2,0.1,4-0.2,6-0.3c0.1,0,0.3,0.2,0.5,0.3
			c-0.1,0.2-0.3,0.4-0.4,0.5c-0.5,0.2-1,0.3-1.5,0.3c-3.3,0-6.7,0-10-0.1c-0.6,0-1.2-0.2-1.8-0.5C92.5,226,92.4,225.7,92.5,224.4z"
			/>
	</g>
	<g id="tooth_N" ng-click="deciduous.toothN = !deciduous.toothN; clickMe(deciduous.toothN)" ng-model="deciduous.toothN" ng-class="{'highlight' : deciduous.toothN}">
		<path class="st1" d="M110.6,222.7c0.1-0.2,0.1-0.2,0.1-0.4c1.5,0.5,2.9,0.2,4.2-0.7c1.4-0.9,2.9-1.9,4.5-2.4
			c2.1-0.7,3.6-1.9,3.3-5.1c0-0.1,0-0.2,0-0.2c0.6-1,0.1-1.5-0.5-2.2c-1.7-2.3-3.4-4.7-5.1-7.1c-0.9-1.3-1.9-2-3.3-1.7s-2,1.5-2.5,3
			c-1.1,3.8-2.1,7.7-3.1,11.6c-0.3,1-0.3,2.2-0.1,3.1c0.9,3.1,2.9,4.7,5.3,5.6c3.5,1.4,7.6-0.4,8.9-4.1c0.7-2,0.9-4.3,1.3-6.5
			c0.1-0.2-0.1-0.5-0.1-0.7c-0.2,0.5-0.3,1-0.3,1.5c-0.2,1.5-0.8,2.5-1.9,3c-2.2,1.1-4.4,2.2-6.5,3.4c-1.1,0.6-2.2,1.1-3.4,0.6
			C111,223.2,110.8,222.9,110.6,222.7z M110.6,217.2c0.5,0.8,0.7,1.3,1.2,2.2c0.3-1,0.5-1.7,0.6-2.6c0.3-1.7,0.6-3.5,0.9-5.2
			c0.1-0.3,0.3-0.6,0.5-0.8c0.1,0.1,0.3,0.2,0.5,0.2c-0.5,2.7-1,5.4-1.6,8c-0.1,0.4-0.8,1-0.9,0.9c-0.5-0.4-0.9-1.1-1.3-1.7
			C110.3,218.1,110.5,217.7,110.6,217.2z M117.4,207.7c0.2,0.1,0.5,0,0.6,0.2c0.8,1.2,1.8,2.3,2.5,3.6c1.2,2.1,0.5,4.6-1.6,5.3
			c-0.1,0.1-0.4-0.2-0.6-0.3c0.2-0.2,0.2-0.3,0.3-0.3c2.3-1.9,2.4-2.7,0.5-5.3c-0.6-0.9-1.2-1.7-1.9-2.7
			C117.3,208,117.3,207.9,117.4,207.7z"/>
	</g>
	<g id="tooth_M" ng-click="deciduous.toothM = !deciduous.toothM; clickMe(deciduous.toothM)" ng-model="deciduous.toothM" ng-class="{'highlight' : deciduous.toothM}">
		<path class="st1" d="M131.7,218.3c0.9-0.1,1.8-0.2,2.7-0.3c3.4-0.5,5.3-3.1,5.5-7.6c0.1-2.5,0.4-5,0.3-7.5c-0.1-4-1.6-7.5-4.3-8.5
			c-2.7-1-5.4-1.3-8.1-0.9c-1,0.2-2.1,0.7-2.5,2.1c-1.1,4-2.1,8-3,12.1c-0.1,0.6,0.1,1.4,0.3,1.9c1.1,2,2.3,3.9,3.5,5.7
			C127.6,217.5,129.4,218.5,131.7,218.3z M123.8,210.3c0.5,0.4,0.8,0.5,0.9,0.7c1.6,2.5,2.7,2.9,5,1.7c1.2-0.6,2.4-1.2,3.6-1.9
			c1.2-0.7,2-1.9,2.5-3.5c0.6-2.1,1.2-4.1,1.8-6.2c0.1-0.3,0.4-0.6,0.6-0.9c0,0.4,0.1,0.8,0.1,1.2c-0.5,1.9-0.9,3.8-1.4,5.6
			c-0.8,2.5-2,4.4-4.2,5.1c-1.2,0.4-2.2,1.3-3.4,1.8C126.8,215,124.6,213.6,123.8,210.3z M125.4,207.9c0.2-0.1,0.5-0.2,0.6-0.1
			c0.3,0.2,0.6,0.4,1,0.6c0.8,0.5,1.4,0.2,1.3-0.9c-0.1-1.7-0.3-3.3-0.6-5c-0.1-0.7-0.4-1.5-0.7-2.5c0.4,0.2,0.8,0.2,0.8,0.2
			c0.6,2.2,1.6,4.5,1.2,7c-0.3,2.2-1,2.7-2.6,1.7c-0.3-0.2-0.6-0.5-1-0.7C125.4,208.2,125.4,208,125.4,207.9z M134.6,204.8
			c-0.8,1.1-1.6,0.8-2,0c-0.5-0.8-0.7-1.7-1.1-2.7c-0.5-1.3-1.1-2.7-1.7-4.2c0.1,0,0.5-0.1,0.6,0.1c0.5,0.9,1.1,1.9,1.5,3
			c0.3,0.7,0.4,1.5,0.6,2.2c0.3,0.8,0.6,1.7,1.6,1.5C134.2,204.5,134.4,204.6,134.6,204.8z M131.3,196.4c0.3-0.3,0.5-0.7,0.6-0.7
			c1.3,0,3.6,2.2,3.8,3.8c0,0.2-0.1,0.4-0.1,0.7c-0.1-0.1-0.4-0.1-0.4-0.2C134.5,197.8,133.1,197.1,131.3,196.4z"/>
	</g>
	<g id="tooth_L" ng-click="deciduous.toothL = !deciduous.toothL; clickMe(deciduous.toothL)" ng-model="deciduous.toothL" ng-class="{'highlight' : deciduous.toothL}">
		<path class="st1" d="M144.5,173c-1.1,0-1.9,0-2.8,0c-2.4,0.2-5.3,2.8-6.1,5.7c-0.7,2.5-1.2,4.9-0.7,7.5c0.1,0.9,0,1.8,0.1,2.7
			c0.1,0.7,0.1,1.6,0.4,2.1c1.9,2.8,4,5.3,6.7,6.8c1.9,1.1,3.8,2.1,5.9,1.5c2-0.5,4.3-0.7,5.4-3.2c2.1-4.6,3.1-9.5,0.9-14.7
			c-0.4-0.9-0.8-1.8-1.3-2.6C150.7,175.5,148.5,171.7,144.5,173z M151.9,179.3c0,0.3,0.1,0.7,0,0.9c-0.2,0.4-0.5,0.8-0.7,1.2
			c-1.1,1.6-1.9,3.3-1.5,5.6c0.1,0.6-0.5,1.5-0.8,2.2c-0.6,1.1-1.4,2.1-2.1,3c-0.4,0.5-0.8,1.1-1.4,1.2c-1.4,0.5-2.9,0.9-4.3,1
			c-0.9,0.1-1.9-0.4-2.8-0.7c-0.1,0-0.1-0.4-0.2-0.7c0.3,0,0.5-0.1,0.6,0c2.3,1.4,4.5-0.2,6.7-0.5c0.3-0.1,0.5-0.5,0.8-0.8
			c0.8-1,1.5-2.1,2.2-3.1c0.3-0.4,0.7-1,0.6-1.4c-0.5-2.7,0.6-4.6,1.8-6.5c0.3-0.4,0.5-0.8,0.7-1.2
			C151.7,179.3,151.8,179.3,151.9,179.3z M147.3,177.9c-1.3-1.7-2.7-0.8-4.1-0.2c0.6,0.9,1.4,1.8,1.9,2.9c0.3,0.6,0.4,1.3,0.5,2
			c-0.3-0.5-0.6-1-1-1.4c-1-1.2-2-2.4-3-3.6c-0.2-0.2-0.3-0.6-0.5-0.9c0.3-0.1,0.5-0.2,0.8-0.2c0.8-0.1,1.7,0,2.5-0.3
			c1.1-0.4,2-0.2,2.9,0.6c0.2,0.2,0.2,0.6,0.3,0.8C147.5,177.6,147.5,177.7,147.3,177.9z M144.9,189.9c-0.3-0.2-0.6-0.3-0.8-0.6
			c-1.4-2.2-2.9-4.4-4.3-6.5c-0.4-0.6-0.8-1.2-1.5-2c-0.1,0.8-0.2,1.3-0.3,1.8c-0.1,0.2-0.2,0.4-0.3,0.4c-0.1,0-0.4-0.2-0.3-0.3
			c0.2-0.8,0.3-1.7,0.6-2.4c0.1-0.2,1.1,0.2,1.4,0.6c1.9,2.8,3.8,5.7,5.7,8.5C145,189.5,144.9,189.7,144.9,189.9z M138.5,188.6
			c0.9,0.6,0.8,2.2-0.6,3.5C138.2,190.8,138.3,189.8,138.5,188.6z"/>
	</g>
	<g id="tooth_K" ng-click="deciduous.toothK = !deciduous.toothK; clickMe(deciduous.toothK)" ng-model="deciduous.toothK" ng-class="{'highlight' : deciduous.toothK}">
		<path class="st1" d="M146.7,164.3c-0.1,2.2-0.3,4.2,0.8,5.7c1,1.4,2.1,2.8,3.2,4.1c1.1,1.2,2.5,1.7,4,1.9c2.5,0.5,4.8-0.3,7.1-0.9
			c3-0.8,4.9-3.5,5.8-6.9c1.2-4.1,0.7-8.3-1.4-12c-1.6-2.8-3.7-4.5-6.1-5.6c-1.1-0.6-2.4-0.9-3.5-0.8c-3.2,0.3-5.8,2.7-8.4,5
			c-1.7,1.6-2,3.8-1.8,6.3C146.6,162.3,146.6,163.5,146.7,164.3z M150.8,158.5c2.1-0.6,2.7-1.3,3-4.3c0.1-0.8,0.4-1.2,1-1.6
			c0.8-0.5,1.6-1.2,2.5-1.7c0.3-0.2,0.6-0.3,1-0.3c1.8,0.3,2.9,1.7,3.3,4.1c0.3,1.5,0.6,2.9,0.9,4.4c0.4,2,0.2,3.9-0.5,5.6
			c-0.6,1.7-1.4,3.2-2.2,4.7c-1.1,1.9-2.9,2.4-4.5,2.8c-1,0.2-1.6-0.7-2-1.7c-0.6-1.3-0.8-2.9-1.8-4c-0.4-0.4-0.5-1.6-0.5-2.5
			C150.8,162.4,150.8,160.4,150.8,158.5z M151.8,159.4c-0.1,1.7-0.2,3.3-0.2,4.9c0,0.7,0,1.6,0.3,1.8c1.1,0.9,1.2,2.5,1.8,3.8
			c0.3,0.8,0.8,1.8,1.6,1.5c1.2-0.5,2.6-0.9,3.5-2c1.5-1.9,2.7-4.2,3-7c0.1-1.2-0.1-2.5-0.3-3.7c-0.1-1.1-0.4-2.2-0.6-3.2
			c-0.2-1.5-0.6-2.7-1.7-3.5c-1.1-0.9-1.8,0.1-2.5,0.8c-0.3,0.3-0.5,0.8-0.7,1.2c2-0.2,2.5-0.1,2.4,1c-1.7-0.2-2.5,0.1-3.2,1.6
			c-1.6,3.5-1.8,7-0.4,10.8c0.1,0.2,0.1,0.7,0.1,1c-1.6-1.5-1.5-3.6-1.8-5.8c-0.8,2.2-0.9,2.4-1.4,2.3c0.8-2.4,1.6-4.8,2.3-7.3
			C153.2,158.2,152.4,158.8,151.8,159.4z M154.1,156.4c0.1,0.1,0.2,0.2,0.3,0.2c0.3-1,0.6-1.9,1-2.9c-0.1-0.1-0.3-0.2-0.4-0.2
			C154.2,154.1,154.7,155.6,154.1,156.4z"/>
	</g>
</g>
<g id="UpperTeeth">
	<g id="tooth_J" ng-click="deciduous.toothJ = !deciduous.toothJ; clickMe(deciduous.toothJ)" ng-model="deciduous.toothJ" ng-class="{'highlight' : deciduous.toothJ}">
		<path class="st1" d="M165,104.5c0.1-1.2-0.1-2.2-0.7-3.1c-1.5-2-1.6-2.9-0.8-5.4c0.5-1.5,0.6-3.1,0.1-4.6
			c-0.3-0.8-0.4-1.7-0.5-2.7c-0.3-1.5-0.6-2.9-1-4.6c0.3,0,0.7-0.1,1.1,0c0.6,0.1,1.4,0.3,2,0.5c5.1,1.7,7,6.1,5.8,12.7
			c-0.2,0.9-0.6,1.9-1,2.7c-1.1,1.7-2.3,3.4-3.6,5c-1.2,1.5-2.7,2.4-4.5,2.5c-1.6,0.1-3.2,1.1-4.7,0.8c-2.2-0.3-4.3-1.3-6.5-2.2
			c-0.5-0.2-0.9-0.7-1.2-1.3c-2.9-4.4-2.3-11.4,1.2-14.9c2.6-2.7,5.4-4.9,8.8-5.4c1.5-0.2,2.7,1.2,2.9,3.1c0.1,1.5,0.6,2.9,0.7,4.4
			c0.1,1.2,0.1,2.4-0.1,3.5c-0.8,3.1-0.8,4.1,0.9,6.5c0.3,0.4,0.5,1.1,0.6,1.7c0.1,0.3,0.2,0.7,0.3,1
			C164.8,104.5,164.9,104.5,165,104.5z M153.7,90.6c0,0.2-0.1,0.5-0.1,0.7c0.6,0.1,1.2,0.2,1.8,0.3c2.1,0.2,2.8,1.2,3.1,4
			c0.1,1.2,0.1,2.5,0.2,3.7c0.1,2.5-0.4,3.4-2.1,4.5c-0.2,0.1-0.4,0.2-0.6,0.3c-0.2,0.2-0.3,0.4-0.5,0.6c1.9-0.1,3.2-1.2,4-3.4
			c1.2,1.2,2.2,2.2,3.3,3.4c0.1-0.1,0.2-0.2,0.3-0.3c-0.2-0.3-0.3-0.7-0.5-1c-0.6-0.7-1.2-1.5-1.9-2c-1.2-0.8-1.3-2.2-1.4-3.6
			c0-1.2,0-2.6-0.3-3.6c-0.6-1.8,0-3.1,0.9-4.3c0.3-0.5,0.7-1,1-1.5c-0.1-0.1-0.1-0.2-0.2-0.3c-1.3,0.2-1.6,2-2.5,3
			c-0.3-0.7-0.7-1.6-1-2.3c-0.1,0.1-0.3,0.2-0.4,0.2c0.1,0.7,0.3,1.4,0.5,2.2C156,91,154.9,90.8,153.7,90.6z M157.5,108.2
			c0.1-0.2,0.1-0.3,0.2-0.4c-0.3-0.2-0.5-0.7-0.8-0.8c-1-0.5-2.1-0.9-3.2-1.3c-1.4-0.5-2.5-1.6-3-3.4c-1-3.7-1.4-7.5,0.5-11.1
			c0.2-0.3,0.2-0.7,0.3-1.1c-0.4,0-0.5,0.1-0.6,0.2c-2.3,3.5-2.3,10.8,0.1,14.2c0.2,0.2,0.3,0.6,0.5,0.7
			C153.5,106.1,155.5,107.1,157.5,108.2z"/>
	</g>
	<g id="tooth_I" ng-click="deciduous.toothI = !deciduous.toothI; clickMe(deciduous.toothI)" ng-model="deciduous.toothI" ng-class="{'highlight' : deciduous.toothI}">
		<path class="st1" d="M142.1,63.4c3.4-0.1,6.4-2.1,9.1-5.1c-0.5,2,0.6,2.6,1.5,3.4c1.9,1.8,2.3,3.6,1.3,6.5c-0.8,2.5-0.7,3.3,1,5.2
			c1.8,2.1,3.1,4.7,3.6,8c-2.2,1.7-4.7,2.1-7.3,1.3c-1-1.9-2.8-1.1-4.2-1.7c-2.3-1-4.5-2.2-4.9-5.6c-0.3-3.6-0.9-7.2-0.1-10.8
			C142.2,64.3,142.2,64,142.1,63.4z M156.6,78.9c0.1-0.2,0.1-0.3,0.1-0.5c-0.3-0.2-0.5-0.3-0.8-0.5c-1.2-0.5-2.5-0.8-3.5-1.7
			c-3.6-2.7-3.8-7.9-0.5-11c0,0,0.1,0,0.1-0.1c0.1-0.2,0.2-0.5,0.3-0.7c-0.2,0-0.5-0.1-0.6,0.1c-0.8,0.7-1.5,1.5-2.3,2.3
			c-0.6-0.7-1-2.2-2-2.4c-0.1,0.1-0.1,0.2-0.3,0.2c0.5,0.7,1,1.6,1.6,2.6c-1.9-0.8-3.6-1.6-5.4-1.2c0.3,0.3,0.5,0.5,0.8,0.6
			c1.2,0.4,2.5,0.7,3.6,1.2c0.4,0.2,1,0.8,1,1.2c-0.1,2,0.5,4.2-1.4,5.5c-0.3,0.2-0.4,0.7-0.5,1.2c0.1,0.1,0.3,0.2,0.4,0.2
			c0.8-0.9,1.6-1.8,2.4-2.7c0.3,1.3,1.5,2.2,1.1,4.1c-0.1,0.6,0.3,1.3,0.6,2c0.1-0.1,0.3-0.1,0.4-0.2c-0.1-0.8-0.2-1.7-0.3-2.8
			C152.9,77.9,154.7,78.7,156.6,78.9z M161.9,76.4c1.2-3.6,1.4-7.3,0.8-11.1c-0.2-1.1-0.6-2.3-1.3-3.1c-2.5-2.9-5.6-4.3-8.9-4.3
			c-0.2,0-0.4,0.1-0.6,0.1c0.1,1.7,0.1,1.7,1.1,2.7c2.1,2,2.8,4.3,1.8,7c-0.8,2.2-0.9,3.7,0.8,5.4c1.9,1.7,2.9,4.5,3.4,7.6
			C160.5,79.5,161.4,78.1,161.9,76.4z M139.5,65.9c-1.8,4.3-1.7,8.7,0.2,12.8c0.5,1,1.4,1.8,2.2,2.2c1.6,0.7,3.2,1.2,4.9,1.6
			c1,0.2,2.1,0,3.1,0c-1.4-0.4-2.9-0.7-4.2-1.3c-3-1.4-4.3-4.1-4.3-7.9c0-1.2-0.1-2.5-0.1-3.7c0-1.9,0.1-3.8,0.1-5.9
			C140.7,64.4,139.9,65,139.5,65.9z M149.9,58c-2.2,1.3-4.4,2.6-6.6,3.9C145.9,61.8,148.1,60.4,149.9,58L149.9,58z"/>
	</g>
	<g id="tooth_H" ng-click="deciduous.toothH = !deciduous.toothH; clickMe(deciduous.toothH)" ng-model="deciduous.toothH" ng-class="{'highlight' : deciduous.toothH}">
		<path class="st1" d="M152.5,47c0.1,6.4-1.6,9.6-5.6,11.7c-1.2,0.7-2.5,1.4-3.7,2.2c-3.2,2-6.1,1.5-8.8-1.4c-1-1.1-1.6-2.5-1.6-4.1
			c-0.3-6.3,0.5-12.4,3.4-17.7c1.5-2.7,3.5-3.8,6-3.6c1.2,0.1,2.3,0.2,3.4,0.1c1.8-0.1,3.2,0.7,4,2.9
			C150.9,40.6,152.7,43.8,152.5,47z M148.8,54.2c1.2-1.9-0.1-10.8-1.7-13.1c-2.3-3.3-5.2-5.2-8.7-5.5c0.1,0.4,0.4,0.6,0.6,0.7
			c0.9,0.3,1.9,0.6,2.8,1.1c3.6,1.9,6,5,6.4,10.2c0.1,1.8,0.3,3.6,0.4,5.4C148.7,53.3,148.8,53.7,148.8,54.2z M136,51
			c-0.1-0.1-0.3-0.2-0.5-0.3c0.6-3.5,1.3-7,1.9-10.9c-0.5,0.2-0.6,0.3-0.6,0.4c-0.6,3.4-1.4,6.8-1.9,10.3c-0.2,1.2,0.6,1.8,1.5,1.1
			c1.2-1.1,2.3-2.4,3.5-3.6c0.1-0.1,0.1-0.4,0.1-0.7c-0.1-0.1-0.1-0.2-0.2-0.2C138.7,48.3,137.4,49.7,136,51z M146.6,54.4
			c-2.1,0.7-3.9,2.6-6.3,2.5c0.3-0.8,0.6-1.6,0.9-2.2c0.5-0.9,1-1.7,1.5-2.7c0.1-0.2,0.1-0.6,0.1-0.8c-0.1,0-0.4,0-0.5,0.2
			c-0.8,1.7-1.8,3.2-2.5,5c-0.3,0.7,0.1,1.6,0.8,1.6c2.3-0.2,4.3-1.3,6.1-3C146.6,54.8,146.6,54.7,146.6,54.4z"/>
	</g>
	<g id="tooth_G" ng-click="deciduous.toothG = !deciduous.toothG; clickMe(deciduous.toothG)" ng-model="deciduous.toothG" ng-class="{'highlight' : deciduous.toothG}">
		<path class="st1" d="M116,29.8c-0.6-4,1.8-7,4.3-9.9c0.3-0.3,1-0.4,1.5-0.3c2.7,0.8,5.3,1.6,7.7,3.6c1.5,1.3,3,2.6,4.7,3.8
			c1.9,1.5,3.1,4.4,2,7.7c-1,3-2.1,5.6-4.3,7c-0.9,0.6-1.9,0.7-3,1.1c-1.4,0.4-2.7,0.8-4.1,1.1c-2.7,0.5-4.7-1.1-6.4-3.6
			C116.5,37.7,116.2,35.3,116,29.8z M131.6,40.6c0.1,0.1,0.3,0.2,0.5,0.3c0.9-1.4,1.8-2.8,2.2-4.7c0.5-2.2-0.5-5.2-1.9-6.3
			c-1.9-1.5-4-2.7-6.1-4.1c-1.8-1.2-3.6-1.7-5.7-1.8c-1.4,0-2.5,0.4-3,2.3c0.4-0.1,0.8-0.3,1.1-0.6c0.3-0.2,0.6-0.7,0.9-0.7
			c1.4,0.1,3-0.1,4.3,0.6c2.7,1.4,5.3,3.2,7.9,5c0.5,0.3,0.9,1,1.2,1.7c1,2.2,0.9,4.3-0.3,6.3C132.2,39.1,131.9,39.9,131.6,40.6z
			 M124,41.5c0.2,0,0.3,0,0.3-0.1c0.1-0.1,0.2-0.2,0.2-0.3c0.1-1.5,0.9-2.2,1.8-2.7c0.8-0.6,1.7-0.9,2.5-1.5
			c0.3-0.2,0.5-0.5,0.8-0.8c-0.3-0.2-0.5-0.2-0.5-0.2c-1.6,1-3.1,1.8-4.6,3C123.9,39.4,123.7,40.4,124,41.5z M121.4,28.3
			c-0.8,2.8-1.5,5.3-2.2,7.8C120.4,35.7,121.9,31.1,121.4,28.3z"/>
	</g>
	<g id="tooth_F" ng-click="deciduous.toothF = !deciduous.toothF; clickMe(deciduous.toothF)" ng-model="deciduous.toothF" ng-class="{'highlight' : deciduous.toothF}">
		<path class="st1" d="M116.2,17.8c0.3,1.7-0.2,3.4-0.8,5.1c-1,2.7-2,5.5-3,8.2c-1,2.9-2.8,5.1-5.2,5.5c-2.5,0.3-5.1-0.4-7-2.8
			c-0.6-0.7-1.2-1.7-1.6-2.6c-1.5-2.8-3-5.7-4.4-8.6c-0.8-1.7-1.6-3.5-2.1-5.4c-1-3.1,0.3-5.7,2.7-6.8c4.7-2,9.5-2.1,14.2-0.2
			c1.5,0.6,3,0.9,4.6,1.5c2.2,0.8,2.7,1.7,2.7,4.7C116.2,16.9,116.2,17.3,116.2,17.8z M95.9,24.8c0.1-0.1,0.3-0.1,0.4-0.2
			c-0.2-0.7-0.4-1.3-0.6-2c-1.4-3.9-0.5-7.3,2.5-8.7c4.5-2.2,8.8-1.2,13,1.1c0.4,0.2,0.7,0.8,0.8,1.3c0.1,0.9,0.1,1.8,0.1,2.7
			c-0.3,3-0.6,6.1-0.8,9c-0.1,0.5,0,1.1,0,1.6c0.1,0,0.3,0,0.4,0.1c0.1-0.3,0.2-0.6,0.3-0.9c0.3-3.6,0.9-7.1,1-10.7
			c0.1-2.8-0.1-3.6-2.3-4.6c-0.2-0.1-0.3-0.2-0.5-0.2c-4.2-1.7-8.4-2.4-12.6,0C94,15.2,93.4,20.8,95.9,24.8z"/>
	</g>
	<g id="tooth_E" ng-click="deciduous.toothE = !deciduous.toothE; clickMe(deciduous.toothE)" ng-model="deciduous.toothE" ng-class="{'highlight' : deciduous.toothE}">
		<path class="st1" d="M65.1,16.5c0-2.9,0.5-3.9,2.7-4.7c1.5-0.6,3.1-0.9,4.6-1.5c4.7-1.9,9.5-1.8,14.2,0.2c2.5,1.1,3.8,3.7,2.7,6.8
			c-0.6,1.8-1.3,3.6-2.1,5.4c-1.4,2.9-2.9,5.8-4.4,8.6c-0.5,0.9-1,1.8-1.6,2.6c-1.9,2.4-4.5,3.1-7,2.8c-2.5-0.3-4.2-2.5-5.2-5.5
			c-1-2.7-1.9-5.5-3-8.2c-0.6-1.7-1.2-3.4-0.8-5.1C65.1,17.3,65.1,16.9,65.1,16.5z M83.9,13.4c-4.2-2.3-8.4-1.7-12.6,0
			c-0.2,0.1-0.3,0.2-0.5,0.2c-2.3,1-2.4,1.7-2.3,4.6c0.1,3.6,0.6,7.1,1,10.7c0,0.3,0.2,0.6,0.3,0.9c0.1,0,0.3,0,0.4-0.1
			c0-0.5,0.1-1.1,0-1.6c-0.3-3-0.6-6.1-0.8-9c-0.1-0.9-0.1-1.8,0.1-2.7c0.1-0.5,0.5-1.2,0.8-1.3c4.2-2.2,8.6-3.2,13-1.1
			c2.9,1.5,3.8,4.9,2.5,8.7c-0.2,0.7-0.4,1.3-0.6,2c0.1,0.1,0.3,0.1,0.4,0.2C87.8,20.9,87.2,15.3,83.9,13.4z"/>
	</g>
	<g id="tooth_D" ng-click="deciduous.toothD = !deciduous.toothD; clickMe(deciduous.toothD)" ng-model="deciduous.toothD" ng-class="{'highlight' : deciduous.toothD}">
		<path class="st1" d="M63.2,40.5c-1.7,2.5-3.8,4.1-6.4,3.6c-1.4-0.2-2.7-0.7-4.1-1.1c-1-0.3-2.1-0.5-3-1.1c-2.3-1.4-3.4-4.1-4.3-7
			c-1.1-3.3,0.1-6.2,2-7.7c1.6-1.2,3.1-2.5,4.7-3.8c2.3-2.1,5-2.8,7.7-3.6c0.5-0.2,1.2-0.1,1.5,0.3c2.5,2.9,5,6,4.3,9.9
			C65.4,35.4,65.1,37.8,63.2,40.5z M48.9,38.6c-1.2-2.1-1.3-4.1-0.3-6.3c0.3-0.7,0.7-1.3,1.2-1.7c2.6-1.7,5.2-3.6,7.9-5
			c1.3-0.7,2.9-0.5,4.3-0.6c0.3,0,0.6,0.5,0.9,0.7c0.3,0.2,0.7,0.5,1.1,0.6c-0.5-1.9-1.6-2.3-3-2.3c-2,0.1-3.9,0.6-5.7,1.8
			c-2,1.4-4.1,2.7-6.1,4.1c-1.5,1.1-2.3,4.1-1.9,6.3c0.4,1.8,1.3,3.3,2.2,4.7c0.1-0.1,0.3-0.2,0.5-0.3C49.6,40,49.3,39.2,48.9,38.6z
			 M57,39c-1.5-1.1-3-2-4.6-3c-0.1,0-0.2,0.1-0.5,0.2c0.3,0.3,0.6,0.7,0.8,0.8c0.8,0.5,1.8,0.9,2.5,1.5c0.8,0.6,1.8,1.2,1.8,2.7
			c0,0.1,0.1,0.2,0.2,0.3c0.1,0.1,0.1,0,0.3,0.1C57.9,40.5,57.6,39.5,57,39z M62.4,36.2c-0.7-2.4-1.4-5-2.2-7.8
			C59.6,31.2,61.1,35.8,62.4,36.2z"/>
	</g>
	<g id="tooth_C" ng-click="deciduous.toothC = !deciduous.toothC; clickMe(deciduous.toothC)" ng-model="deciduous.toothC" ng-class="{'highlight' : deciduous.toothC}">
		<path class="st1" d="M31.9,37.7c0.8-2.2,2.2-3,4-2.9c1.2,0.1,2.3,0,3.4-0.1c2.5-0.2,4.5,0.8,6,3.6c2.9,5.4,3.6,11.4,3.4,17.7
			c-0.1,1.6-0.6,3-1.6,4.1c-2.7,3-5.6,3.4-8.8,1.4c-1.2-0.7-2.5-1.6-3.7-2.2c-4-2.1-5.7-5.3-5.6-11.7C28.9,44.4,30.6,41.1,31.9,37.7
			z M32.9,53.4c0.1-1.8,0.3-3.6,0.4-5.4c0.4-5.2,2.9-8.3,6.4-10.2c0.9-0.5,1.9-0.7,2.8-1.1c0.3-0.1,0.5-0.2,0.6-0.7
			c-3.5,0.2-6.4,2.2-8.7,5.5c-1.6,2.3-2.9,11.2-1.7,13.1C32.8,54.2,32.8,53.8,32.9,53.4z M41.7,47.6c-0.1,0.1-0.1,0.2-0.2,0.2
			c0.1,0.2,0,0.6,0.1,0.7c1.2,1.2,2.3,2.5,3.5,3.6c0.8,0.7,1.6,0.2,1.5-1.1c-0.5-3.5-1.2-6.9-1.9-10.3c0-0.1-0.2-0.1-0.6-0.4
			c0.7,3.8,1.4,7.4,1.9,10.9c-0.1,0.1-0.3,0.2-0.5,0.3C44.3,50.3,43,48.9,41.7,47.6z M35,55.4c1.8,1.7,3.8,2.8,6.1,3
			c0.7,0.1,1.1-0.8,0.8-1.6c-0.7-1.7-1.6-3.3-2.5-5c-0.1-0.1-0.3-0.1-0.5-0.2c0,0.2-0.1,0.7,0.1,0.8c0.5,0.9,1,1.7,1.5,2.7
			c0.3,0.7,0.6,1.3,0.9,2.2c-2.5,0.1-4.2-1.9-6.3-2.5C35,55.3,35,55.4,35,55.4z"/>
	</g>
	<g id="tooth_B" ng-click="deciduous.toothB = !deciduous.toothB; clickMe(deciduous.toothB)" ng-model="deciduous.toothB" ng-class="{'highlight' : deciduous.toothB}">
		<path class="st1" d="M38.9,64.7c0.8,3.6,0.2,7.2-0.1,10.8c-0.3,3.4-2.6,4.6-4.9,5.6c-1.4,0.6-3-0.2-4.2,1.7
			c-2.6,0.8-5,0.3-7.3-1.3c0.5-3.3,1.8-5.9,3.6-8c1.6-1.9,1.8-2.7,1-5.2c-1-2.8-0.6-4.7,1.3-6.5c0.9-0.8,1.9-1.4,1.5-3.4
			c2.7,3,5.6,5,9.1,5.1C39,64,38.9,64.3,38.9,64.7z M30,76.4c-0.1,1.2-0.2,2-0.3,2.8c0.1,0.1,0.3,0.1,0.4,0.2c0.2-0.7,0.6-1.4,0.6-2
			c-0.5-1.8,0.8-2.8,1.1-4.1c0.8,1,1.6,1.8,2.4,2.7c0.1-0.1,0.3-0.2,0.4-0.2c-0.2-0.4-0.3-1-0.5-1.2c-1.9-1.2-1.4-3.6-1.4-5.5
			c0-0.4,0.6-1.1,1-1.2c1.2-0.5,2.4-0.7,3.6-1.2c0.3-0.1,0.6-0.2,0.8-0.6c-1.8-0.4-3.5,0.3-5.4,1.2c0.6-1,1.1-1.8,1.6-2.6
			c-0.1-0.1-0.1-0.2-0.3-0.2c-1,0.2-1.4,1.7-2,2.4c-0.8-0.8-1.6-1.6-2.3-2.3c-0.1-0.2-0.5-0.1-0.6-0.1c0.1,0.2,0.2,0.5,0.3,0.7
			l0.1,0.1c3.2,3.1,3,8.4-0.5,11c-1,0.8-2.3,1.1-3.5,1.7c-0.3,0.2-0.5,0.3-0.8,0.5c0.1,0.2,0.1,0.3,0.1,0.5
			C26.5,78.7,28.2,77.9,30,76.4z M22,80.8c0.5-3.1,1.6-5.9,3.4-7.6c1.8-1.7,1.6-3.2,0.8-5.4c-0.9-2.6-0.2-5,1.8-7c1-1,1-1,1.1-2.7
			c-0.2,0-0.4-0.1-0.6-0.1c-3.4,0.1-6.4,1.4-8.9,4.3c-0.6,0.7-1.2,2-1.3,3.1c-0.6,3.7-0.4,7.5,0.8,11.1C19.8,78.1,20.6,79.5,22,80.8
			z M39.8,63.8c0,2.1,0.1,4,0.1,5.9c0,1.2-0.1,2.5-0.1,3.7c0,3.8-1.4,6.4-4.3,7.9c-1.4,0.7-2.9,0.9-4.2,1.3c1,0,2.1,0.2,3.1,0
			c1.7-0.3,3.3-0.8,4.9-1.6c0.8-0.4,1.8-1.2,2.2-2.2c1.9-4.2,2-8.5,0.2-12.8C41.3,65,40.4,64.4,39.8,63.8z M31.3,58
			c1.8,2.5,4,3.8,6.6,4C35.7,60.6,33.5,59.4,31.3,58L31.3,58z"/>
	</g>
	<g id="tooth_A" ng-click="deciduous.toothA = !deciduous.toothA; clickMe(deciduous.toothA)" ng-model="deciduous.toothA" ng-class="{'highlight' : deciduous.toothA}">
		<path class="st1" d="M16.6,105.1c0.1-0.3,0.2-0.7,0.3-1c0.2-0.6,0.3-1.2,0.6-1.7c1.7-2.3,1.8-3.5,0.9-6.5
			c-0.3-1.1-0.3-2.3-0.1-3.5c0.1-1.5,0.6-2.9,0.7-4.4c0.2-2,1.4-3.4,2.9-3.1c3.4,0.5,6.2,2.7,8.8,5.4c3.5,3.6,4.1,10.5,1.2,14.9
			c-0.3,0.5-0.8,1.1-1.2,1.3c-2.1,0.8-4.3,1.8-6.5,2.2c-1.6,0.2-3.2-0.7-4.7-0.8c-1.8-0.2-3.3-1.1-4.5-2.5c-1.3-1.5-2.5-3.2-3.6-5
			c-0.5-0.7-0.8-1.7-1-2.7c-1.2-6.6,0.8-10.9,5.8-12.7c0.6-0.2,1.4-0.4,2-0.5c0.5-0.1,0.9,0,1.1,0c-0.3,1.7-0.6,3.1-1,4.6
			c-0.2,0.9-0.3,1.8-0.5,2.7c-0.6,1.6-0.5,3.1,0.1,4.6c0.8,2.5,0.7,3.5-0.8,5.4c-0.7,0.9-0.8,2-0.7,3.1
			C16.4,105,16.5,105,16.6,105.1z M24,91.6c0.2-0.7,0.3-1.4,0.5-2.2c-0.1-0.1-0.3-0.2-0.4-0.2c-0.3,0.7-0.7,1.6-1,2.3
			c-0.8-1-1.2-2.7-2.5-3c-0.1,0.1-0.1,0.2-0.2,0.3c0.3,0.5,0.7,1,1,1.5c0.9,1.2,1.5,2.5,0.9,4.3C22,95.8,22,97.1,22,98.3
			c-0.1,1.5-0.2,2.7-1.4,3.6c-0.7,0.5-1.3,1.3-1.9,2c-0.2,0.2-0.4,0.7-0.5,1c0.1,0.1,0.2,0.2,0.3,0.3c1.1-1.1,2.2-2.2,3.3-3.4
			c0.8,2.1,2.1,3.3,4,3.4c-0.1-0.2-0.3-0.4-0.5-0.6c-0.2-0.2-0.4-0.2-0.6-0.3c-1.8-1.1-2.2-2-2.1-4.5c0.1-1.2,0.1-2.5,0.2-3.7
			c0.3-2.9,0.9-3.8,3.1-4c0.6-0.1,1.2-0.2,1.8-0.3c0-0.2-0.1-0.5-0.1-0.7C26.4,91.3,25.3,91.4,24,91.6z M29.7,105.6
			c0.2-0.1,0.4-0.4,0.5-0.7c2.3-3.5,2.3-10.7,0.1-14.2c-0.1-0.2-0.3-0.2-0.6-0.2c0.1,0.3,0.1,0.8,0.3,1.1c2,3.6,1.6,7.3,0.5,11.1
			c-0.5,1.8-1.6,2.9-3,3.4c-1,0.4-2.1,0.8-3.2,1.3c-0.3,0.2-0.5,0.6-0.8,0.8c0.1,0.2,0.1,0.3,0.2,0.4
			C25.8,107.7,27.8,106.7,29.7,105.6z"/>
	</g>
</g>
</svg>
