<?xml version="1.0" encoding="utf-8"?>
<!-- Generator: Adobe Illustrator 21.0.0, SVG Export Plug-In . SVG Version: 6.00 Build 0)  -->
<svg version="1.1" id="Layer_1" xmlns="http://www.w3.org/2000/svg" xmlns:xlink="http://www.w3.org/1999/xlink" x="0px" y="0px"
	 viewBox="0 0 16.8 23.2" style="enable-background:new 0 0 16.8 23.2;" xml:space="preserve">
<style type="text/css">
	.st0{fill:#AAAAAC;}
</style>
<path class="st0" d="M14.7,8.4L14.7,8.4V6.3c0-3.5-2.8-6.3-6.3-6.3S2.1,2.8,2.1,6.3v2.1C0.9,8.4,0,9.4,0,10.5v10.5
	c0,1.2,0.9,2.1,2.1,2.1h12.6c1.2,0,2.1-0.9,2.1-2.1V10.5C16.8,9.4,15.9,8.4,14.7,8.4z M8.4,2.1c2.3,0,4.2,1.9,4.2,4.2v2.1H4.2V6.3
	C4.2,4,6.1,2.1,8.4,2.1z M9.5,16.6v1.3C9.5,18.5,9,19,8.4,19c-0.6,0-1.1-0.5-1.1-1.1v-1.3c-0.7-0.4-1.1-1.2-1-2c0.1-1,0.9-1.8,2-1.9
	c1.2-0.1,2.2,0.9,2.2,2.1C10.5,15.5,10.1,16.2,9.5,16.6z"/>
</svg>
