<?xml version="1.0" encoding="utf-8"?>
<!-- Generator: Adobe Illustrator 21.0.0, SVG Export Plug-In . SVG Version: 6.00 Build 0)  -->
<svg version="1.1" id="Layer_1" xmlns="http://www.w3.org/2000/svg" xmlns:xlink="http://www.w3.org/1999/xlink" x="0px" y="0px"
	 viewBox="0 0 609.2 182" style="enable-background:new 0 0 609.2 182;" xml:space="preserve">
<style type="text/css">
	.st0{fill:#1CCFC9;}
	.st1{fill:#95D600;}
	.st2{fill:#FFA400;}
	.st3{fill:#FFFFFF;}
</style>
<path class="st0" d="M149.6,6.3L149.6,6.3C130.5-5.8,105,0,92.9,19.1l-3.6,5.6l36.8,58.3c5,7.9,7.4,16.7,7.6,25.4L162.4,63
	C174.5,43.9,168.7,18.4,149.6,6.3"/>
<path class="st1" d="M42.6,83.1l36.8-58.3l-3.6-5.6C63.8,0,38.2-5.8,19.1,6.3S-5.8,43.9,6.3,63L35,108.4
	C35.1,99.5,37.7,90.8,42.6,83.1"/>
<path class="st2" d="M106.2,144.3c19.1-12.1,24.9-37.6,12.8-56.7L84.4,32.7L49.7,87.6c-12.1,19.1-6.3,44.6,12.8,56.7
	c4.2,2.6,8.7,4.4,13.2,5.4c0,0,0,0,0,0c0.6,0.1,1.2,0.2,1.8,0.3c0.2,0,0.3,0.1,0.5,0.1c0.5,0.1,0.9,0.1,1.4,0.2
	c0.3,0,0.5,0.1,0.8,0.1c0.4,0,0.8,0.1,1.2,0.1c0.3,0,0.6,0,0.9,0.1c0.3,0,0.7,0,1,0c0.3,0,0.7,0,1,0c0.3,0,0.7,0,1,0
	c0.3,0,0.7,0,1,0c0.3,0,0.6,0,0.9-0.1c0.4,0,0.8-0.1,1.2-0.1c0.3,0,0.5,0,0.8-0.1c0.5-0.1,0.9-0.1,1.4-0.2c0.2,0,0.3,0,0.5-0.1
	c0.6-0.1,1.2-0.2,1.8-0.3c0,0,0,0,0,0C97.5,148.7,102,146.9,106.2,144.3z"/>
<path class="st3" d="M602.6,40.5c1.1,0,2.2,0.3,3.3,0.8c1,0.6,1.9,1.4,2.5,2.4c0.6,1.1,0.9,2.2,0.9,3.3c0,1.1-0.3,2.2-0.9,3.3
	c-0.6,1-1.4,1.9-2.4,2.4c-1,0.6-2.1,0.9-3.3,0.9c-1.1,0-2.2-0.3-3.3-0.9c-1-0.6-1.9-1.4-2.4-2.4c-0.6-1-0.9-2.1-0.9-3.3
	c0-1.2,0.3-2.3,0.9-3.3c0.6-1.1,1.4-1.9,2.5-2.4C600.4,40.8,601.5,40.5,602.6,40.5 M602.6,41.8c-0.9,0-1.8,0.2-2.6,0.7
	c-0.8,0.5-1.5,1.1-2,2c-0.5,0.8-0.7,1.7-0.7,2.7c0,0.9,0.2,1.8,0.7,2.6c0.5,0.8,1.1,1.5,2,2c0.8,0.5,1.7,0.7,2.6,0.7
	c0.9,0,1.8-0.2,2.6-0.7c0.8-0.5,1.5-1.1,2-2c0.5-0.8,0.7-1.7,0.7-2.6c0-0.9-0.2-1.8-0.7-2.7c-0.5-0.9-1.1-1.5-2-2
	C604.4,42,603.5,41.8,602.6,41.8 M599.6,50.6v-7h1.4c1.3,0,2.1,0,2.2,0c0.5,0,0.8,0.1,1.1,0.3c0.3,0.1,0.5,0.4,0.7,0.7
	c0.2,0.3,0.3,0.6,0.3,1c0,0.5-0.2,0.9-0.5,1.3c-0.3,0.4-0.8,0.6-1.4,0.7c0.2,0.1,0.4,0.2,0.5,0.3c0.1,0.1,0.3,0.3,0.5,0.5
	c0.1,0.1,0.2,0.4,0.5,0.9l0.8,1.4H604l-0.6-1.1c-0.4-0.8-0.7-1.2-1-1.4c-0.3-0.2-0.6-0.3-1-0.3H601v2.9H599.6z M601,46.6h0.6
	c0.8,0,1.3,0,1.5-0.1c0.2-0.1,0.4-0.2,0.5-0.3c0.1-0.2,0.2-0.3,0.2-0.5c0-0.2-0.1-0.4-0.2-0.5c-0.1-0.2-0.3-0.3-0.5-0.3
	c-0.2-0.1-0.7-0.1-1.5-0.1H601V46.6z"/>
<path class="st2" d="M293.3,177.4c-0.4,0.8-0.9,1.6-1.5,2.2c-0.6,0.6-1.4,1.1-2.2,1.5c-0.8,0.4-1.7,0.5-2.7,0.5h-8.9v-28h8.9
	c1,0,1.8,0.2,2.7,0.5c0.8,0.4,1.6,0.9,2.2,1.5c0.6,0.6,1.1,1.4,1.5,2.2c0.4,0.8,0.5,1.7,0.5,2.7v0.3c0,0.7-0.1,1.3-0.3,1.9
	c-0.2,0.6-0.4,1.2-0.8,1.7c-0.3,0.5-0.7,1-1.2,1.4c-0.4,0.4-0.9,0.8-1.5,1.1c0.5,0.3,1,0.6,1.5,1.1c0.4,0.4,0.8,0.9,1.2,1.4
	c0.3,0.5,0.6,1.1,0.8,1.7c0.2,0.6,0.3,1.2,0.3,1.9v1.8C293.8,175.7,293.7,176.6,293.3,177.4 M291.3,160.5c0-0.6-0.1-1.2-0.4-1.7
	c-0.2-0.5-0.6-1-1-1.4c-0.4-0.4-0.9-0.7-1.4-1c-0.5-0.2-1.1-0.4-1.7-0.4h-6.2v9.7h6.2c0.6,0,1.2-0.1,1.7-0.4c0.5-0.2,1-0.6,1.4-1
	c0.4-0.4,0.7-0.9,1-1.4c0.2-0.5,0.4-1.1,0.4-1.7V160.5z M291.3,172.5c0-0.6-0.1-1.2-0.4-1.7c-0.2-0.5-0.6-1-1-1.4
	c-0.4-0.4-0.9-0.7-1.4-1c-0.5-0.2-1.1-0.4-1.7-0.4h-6.2v11.2h6.2c0.6,0,1.2-0.1,1.7-0.4c0.5-0.2,1-0.6,1.4-1c0.4-0.4,0.7-0.9,1-1.4
	c0.2-0.5,0.4-1.1,0.4-1.7V172.5z"/>
<path class="st2" d="M303.7,163.9c-0.5,0-0.9,0.1-1.4,0.3c-0.4,0.2-0.8,0.4-1.1,0.7c-0.3,0.3-0.6,0.7-0.7,1.1
	c-0.2,0.4-0.3,0.9-0.3,1.4v14.2h-2.4v-20h0.8l1.3,2c0.5-0.7,1.2-1.3,2.1-1.8c0.8-0.4,1.7-0.7,2.7-0.7h1.4v2.7H303.7z"/>
<path class="st2" d="M322.2,178.4c-0.3,0.7-0.7,1.3-1.3,1.9c-0.5,0.5-1.2,1-1.9,1.3c-0.7,0.3-1.5,0.5-2.3,0.5h-1.6
	c-0.8,0-1.6-0.2-2.3-0.5c-0.7-0.3-1.3-0.7-1.9-1.3c-0.5-0.5-1-1.2-1.3-1.9c-0.3-0.7-0.5-1.5-0.5-2.3v-9c0-0.8,0.2-1.6,0.5-2.3
	c0.3-0.7,0.7-1.3,1.3-1.9c0.5-0.5,1.2-1,1.9-1.3c0.7-0.3,1.5-0.5,2.3-0.5h1.6c0.8,0,1.6,0.2,2.3,0.5c0.7,0.3,1.3,0.7,1.9,1.3
	c0.5,0.5,1,1.2,1.3,1.9c0.3,0.7,0.5,1.5,0.5,2.3v4.7h-11v4.5c0,0.5,0.1,0.9,0.3,1.4c0.2,0.4,0.4,0.8,0.7,1.1
	c0.3,0.3,0.7,0.6,1.1,0.7c0.4,0.2,0.9,0.3,1.4,0.3h1.6c0.5,0,0.9-0.1,1.4-0.3c0.4-0.2,0.8-0.4,1.1-0.7c0.3-0.3,0.6-0.7,0.7-1.1
	c0.2-0.4,0.3-0.9,0.3-1.4v-1.3l2.4,0.4v0.8C322.7,176.9,322.5,177.7,322.2,178.4 M320.3,166.9c0-0.5-0.1-0.9-0.3-1.4
	c-0.2-0.4-0.4-0.8-0.7-1.1c-0.3-0.3-0.7-0.6-1.1-0.7c-0.4-0.2-0.9-0.3-1.4-0.3h-1.6c-0.5,0-0.9,0.1-1.4,0.3
	c-0.4,0.2-0.8,0.4-1.1,0.7c-0.3,0.3-0.6,0.7-0.7,1.1c-0.2,0.4-0.3,0.9-0.3,1.4v3h8.6V166.9z"/>
<path class="st2" d="M340.1,181.6l-1.3-2c-0.5,0.7-1.2,1.3-2.1,1.7c-0.8,0.4-1.7,0.7-2.7,0.7h-0.6c-0.8,0-1.6-0.2-2.3-0.5
	c-0.7-0.3-1.3-0.7-1.9-1.3c-0.5-0.5-1-1.2-1.3-1.9c-0.3-0.7-0.5-1.5-0.5-2.3v-0.2c0-0.8,0.2-1.6,0.5-2.3c0.3-0.7,0.7-1.3,1.3-1.9
	c0.5-0.5,1.2-1,1.9-1.3c0.7-0.3,1.5-0.5,2.3-0.5h5.1v-3.1c0-0.5-0.1-0.9-0.3-1.4c-0.2-0.4-0.4-0.8-0.7-1.1c-0.3-0.3-0.7-0.6-1.1-0.7
	c-0.4-0.2-0.9-0.3-1.4-0.3h-1.4c-0.5,0-0.9,0.1-1.4,0.3c-0.4,0.2-0.8,0.4-1.1,0.7c-0.3,0.3-0.6,0.7-0.7,1.1
	c-0.2,0.4-0.3,0.9-0.3,1.4v0.7l-2.4-0.4v-0.2c0-0.8,0.2-1.6,0.5-2.3c0.3-0.7,0.7-1.3,1.3-1.9c0.5-0.5,1.2-1,1.9-1.3
	c0.7-0.3,1.5-0.5,2.3-0.5h1.4c0.8,0,1.6,0.2,2.3,0.5c0.7,0.3,1.3,0.7,1.9,1.3c0.5,0.5,1,1.2,1.3,1.9c0.3,0.7,0.5,1.5,0.5,2.3v14.5
	H340.1z M338.5,171.9h-5.1c-0.5,0-0.9,0.1-1.4,0.3c-0.4,0.2-0.8,0.4-1.1,0.8c-0.3,0.3-0.6,0.7-0.7,1.1c-0.2,0.4-0.3,0.9-0.3,1.4v0.8
	c0,0.5,0.1,0.9,0.3,1.4c0.2,0.4,0.4,0.8,0.7,1.1c0.3,0.3,0.7,0.6,1.1,0.7c0.4,0.2,0.9,0.3,1.4,0.3h1.6c0.5,0,0.9-0.1,1.4-0.3
	c0.4-0.2,0.8-0.4,1.1-0.7c0.3-0.3,0.6-0.7,0.7-1.1c0.2-0.4,0.3-0.9,0.3-1.4V171.9z"/>
<path class="st2" d="M353,181.6c-0.7,0-1.4-0.1-2.1-0.4c-0.6-0.3-1.2-0.7-1.7-1.1c-0.5-0.5-0.9-1-1.1-1.7c-0.3-0.6-0.4-1.3-0.4-2.1
	v-12.5h-3.6v-2.3h3.6v-4.8l2.4-0.4v5.2h5.1v2.3h-5.1v12.6c0,0.4,0.1,0.8,0.2,1.1c0.2,0.3,0.4,0.6,0.6,0.9c0.3,0.3,0.6,0.5,0.9,0.6
	c0.4,0.1,0.7,0.2,1.1,0.2h2.2v2.3H353z"/>
<path class="st2" d="M370.5,181.6v-14.7c0-0.5-0.1-0.9-0.3-1.4c-0.2-0.4-0.4-0.8-0.7-1.1c-0.3-0.3-0.7-0.6-1.1-0.7
	c-0.4-0.2-0.9-0.3-1.4-0.3h-1.6c-0.5,0-0.9,0.1-1.4,0.3c-0.4,0.2-0.8,0.4-1.1,0.7c-0.3,0.3-0.6,0.7-0.7,1.1
	c-0.2,0.4-0.3,0.9-0.3,1.4v14.7h-2.4v-28h2.4v9.7c0.5-0.7,1.2-1.2,2-1.5c0.8-0.4,1.6-0.5,2.5-0.5h0.6c0.8,0,1.6,0.2,2.3,0.5
	c0.7,0.3,1.3,0.7,1.9,1.3c0.5,0.5,1,1.2,1.3,1.9c0.3,0.7,0.5,1.5,0.5,2.3v14.5H370.5z"/>
<path class="st2" d="M390.7,178.4c-0.3,0.7-0.7,1.3-1.3,1.9c-0.5,0.5-1.2,1-1.9,1.3c-0.7,0.3-1.5,0.5-2.3,0.5h-1.6
	c-0.8,0-1.6-0.2-2.3-0.5c-0.7-0.3-1.3-0.7-1.9-1.3c-0.5-0.5-1-1.2-1.3-1.9c-0.3-0.7-0.5-1.5-0.5-2.3v-9c0-0.8,0.2-1.6,0.5-2.3
	c0.3-0.7,0.7-1.3,1.3-1.9c0.5-0.5,1.2-1,1.9-1.3c0.7-0.3,1.5-0.5,2.3-0.5h1.6c0.8,0,1.6,0.2,2.3,0.5c0.7,0.3,1.3,0.7,1.9,1.3
	c0.5,0.5,1,1.2,1.3,1.9c0.3,0.7,0.5,1.5,0.5,2.3v4.7h-11v4.5c0,0.5,0.1,0.9,0.3,1.4c0.2,0.4,0.4,0.8,0.7,1.1
	c0.3,0.3,0.7,0.6,1.1,0.7c0.4,0.2,0.9,0.3,1.4,0.3h1.6c0.5,0,0.9-0.1,1.4-0.3c0.4-0.2,0.8-0.4,1.1-0.7c0.3-0.3,0.6-0.7,0.7-1.1
	c0.2-0.4,0.3-0.9,0.3-1.4v-1.3l2.4,0.4v0.8C391.1,176.9,391,177.7,390.7,178.4 M388.7,166.9c0-0.5-0.1-0.9-0.3-1.4
	c-0.2-0.4-0.4-0.8-0.7-1.1c-0.3-0.3-0.7-0.6-1.1-0.7c-0.4-0.2-0.9-0.3-1.4-0.3h-1.6c-0.5,0-0.9,0.1-1.4,0.3
	c-0.4,0.2-0.8,0.4-1.1,0.7c-0.3,0.3-0.6,0.7-0.7,1.1c-0.2,0.4-0.3,0.9-0.3,1.4v3h8.6V166.9z"/>
<path class="st2" d="M416.1,181.6v-14.7c0-0.5-0.1-0.9-0.3-1.4c-0.2-0.4-0.4-0.8-0.7-1.1c-0.3-0.3-0.7-0.6-1.1-0.7
	c-0.4-0.2-0.9-0.3-1.4-0.3H411c-0.5,0-0.9,0.1-1.4,0.3c-0.4,0.2-0.8,0.4-1.1,0.7c-0.3,0.3-0.6,0.7-0.7,1.1c-0.2,0.4-0.3,0.9-0.3,1.4
	v14.7h-2.4v-20h0.8l1.3,2c0.5-0.7,1.2-1.3,2.1-1.8c0.8-0.4,1.7-0.7,2.7-0.7h0.6c0.8,0,1.6,0.2,2.3,0.5c0.7,0.3,1.3,0.7,1.9,1.3
	c0.5,0.5,1,1.2,1.3,1.9c0.3,0.7,0.5,1.5,0.5,2.3v14.5H416.1z"/>
<path class="st2" d="M436.2,178.4c-0.3,0.7-0.7,1.3-1.3,1.9c-0.5,0.5-1.2,1-1.9,1.3c-0.7,0.3-1.5,0.5-2.3,0.5h-1.6
	c-0.8,0-1.6-0.2-2.3-0.5c-0.7-0.3-1.3-0.7-1.9-1.3c-0.5-0.5-1-1.2-1.3-1.9c-0.3-0.7-0.5-1.5-0.5-2.3v-9c0-0.8,0.2-1.6,0.5-2.3
	c0.3-0.7,0.7-1.3,1.3-1.9c0.5-0.5,1.2-1,1.9-1.3c0.7-0.3,1.5-0.5,2.3-0.5h1.6c0.8,0,1.6,0.2,2.3,0.5c0.7,0.3,1.3,0.7,1.9,1.3
	c0.5,0.5,1,1.2,1.3,1.9c0.3,0.7,0.5,1.5,0.5,2.3v4.7h-11v4.5c0,0.5,0.1,0.9,0.3,1.4c0.2,0.4,0.4,0.8,0.7,1.1
	c0.3,0.3,0.7,0.6,1.1,0.7c0.4,0.2,0.9,0.3,1.4,0.3h1.6c0.5,0,0.9-0.1,1.4-0.3c0.4-0.2,0.8-0.4,1.1-0.7c0.3-0.3,0.6-0.7,0.7-1.1
	c0.2-0.4,0.3-0.9,0.3-1.4v-1.3l2.4,0.4v0.8C436.7,176.9,436.5,177.7,436.2,178.4 M434.3,166.9c0-0.5-0.1-0.9-0.3-1.4
	c-0.2-0.4-0.4-0.8-0.7-1.1c-0.3-0.3-0.7-0.6-1.1-0.7c-0.4-0.2-0.9-0.3-1.4-0.3h-1.6c-0.5,0-0.9,0.1-1.4,0.3
	c-0.4,0.2-0.8,0.4-1.1,0.7c-0.3,0.3-0.6,0.7-0.7,1.1c-0.2,0.4-0.3,0.9-0.3,1.4v3h8.6V166.9z"/>
<polygon class="st2" points="458.3,181.6 457,181.6 452.3,166.5 452.3,165.5 452.2,166.5 447.5,181.6 446.2,181.6 439.5,161.6 
	441.9,161.6 446.7,176.7 446.8,177.8 446.8,176.7 451.5,161.6 453,161.6 457.7,176.7 457.7,177.8 457.8,176.7 462.6,161.6 
	465,161.6 "/>
<rect x="477.8" y="153.6" class="st2" width="2.4" height="28"/>
<path class="st2" d="M486.5,153.6h2.8v3.2h-2.8V153.6z M486.7,161.6h2.4v20h-2.4V161.6z"/>
<path class="st2" d="M501.6,155.9c-0.4,0-0.8,0.1-1.1,0.2c-0.3,0.2-0.6,0.4-0.9,0.6c-0.3,0.3-0.5,0.6-0.6,0.9
	c-0.1,0.4-0.2,0.7-0.2,1.1v2.8h4.7v2.3h-4.7v17.7h-2.4v-17.7h-3.6v-2.3h3.6v-2.7c0-0.7,0.1-1.4,0.4-2.1c0.3-0.6,0.7-1.2,1.1-1.7
	c0.5-0.5,1-0.9,1.7-1.1c0.6-0.3,1.3-0.4,2.1-0.4h2.2v2.3H501.6z"/>
<path class="st2" d="M519.1,178.4c-0.3,0.7-0.7,1.3-1.3,1.9c-0.5,0.5-1.2,1-1.9,1.3c-0.7,0.3-1.5,0.5-2.3,0.5h-1.6
	c-0.8,0-1.6-0.2-2.3-0.5c-0.7-0.3-1.3-0.7-1.9-1.3c-0.5-0.5-1-1.2-1.3-1.9c-0.3-0.7-0.5-1.5-0.5-2.3v-9c0-0.8,0.2-1.6,0.5-2.3
	c0.3-0.7,0.7-1.3,1.3-1.9c0.5-0.5,1.2-1,1.9-1.3c0.7-0.3,1.5-0.5,2.3-0.5h1.6c0.8,0,1.6,0.2,2.3,0.5c0.7,0.3,1.3,0.7,1.9,1.3
	c0.5,0.5,1,1.2,1.3,1.9c0.3,0.7,0.5,1.5,0.5,2.3v4.7h-11v4.5c0,0.5,0.1,0.9,0.3,1.4c0.2,0.4,0.4,0.8,0.7,1.1
	c0.3,0.3,0.7,0.6,1.1,0.7c0.4,0.2,0.9,0.3,1.4,0.3h1.6c0.5,0,0.9-0.1,1.4-0.3c0.4-0.2,0.8-0.4,1.1-0.7c0.3-0.3,0.6-0.7,0.7-1.1
	c0.2-0.4,0.3-0.9,0.3-1.4v-1.3l2.4,0.4v0.8C519.5,176.9,519.4,177.7,519.1,178.4 M517.1,166.9c0-0.5-0.1-0.9-0.3-1.4
	c-0.2-0.4-0.4-0.8-0.7-1.1c-0.3-0.3-0.7-0.6-1.1-0.7c-0.4-0.2-0.9-0.3-1.4-0.3h-1.6c-0.5,0-0.9,0.1-1.4,0.3
	c-0.4,0.2-0.8,0.4-1.1,0.7c-0.3,0.3-0.6,0.7-0.7,1.1c-0.2,0.4-0.3,0.9-0.3,1.4v3h8.6V166.9z"/>
<polygon class="st2" points="523.7,182 523.7,177.9 522.2,177.9 522.2,177.3 525.8,177.3 525.8,177.9 524.3,177.9 524.3,182 "/>
<path class="st2" d="M526.5,182v-4.6h0.9l1.1,3.3c0.1,0.3,0.2,0.5,0.2,0.7c0.1-0.2,0.1-0.4,0.2-0.7l1.1-3.2h0.8v4.6h-0.6v-3.9
	l-1.3,3.9h-0.6L527,178v3.9H526.5z"/>
<path class="st3" d="M274.1,39.2h-9.8c-0.4,0-0.7,0.2-0.9,0.6l-20.7,60.4l-20.8-60.4c-0.1-0.4-0.5-0.6-0.9-0.6h-9.8
	c-0.3,0-0.6,0.1-0.7,0.4c-0.2,0.2-0.2,0.5-0.1,0.8l29,81.7c0.1,0.4,0.5,0.6,0.8,0.6h4.9c0.4,0,0.7-0.2,0.8-0.6l29-81.7
	c0.1-0.3,0.1-0.6-0.1-0.8C274.7,39.3,274.4,39.2,274.1,39.2"/>
<path class="st3" d="M316.6,39.2h-9.8c-0.5,0-0.9,0.4-0.9,0.9v81.7c0,0.5,0.4,0.9,0.9,0.9h9.8c0.5,0,0.9-0.4,0.9-0.9V40.1
	C317.5,39.6,317.1,39.2,316.6,39.2"/>
<path class="st3" d="M412.1,39.2h-9.8c-0.4,0-0.7,0.2-0.9,0.6l-20.7,60.4l-20.8-60.4c-0.1-0.4-0.5-0.6-0.9-0.6h-9.8
	c-0.3,0-0.6,0.1-0.7,0.4c-0.2,0.2-0.2,0.5-0.1,0.8l29,81.7c0.1,0.4,0.5,0.6,0.8,0.6h4.9c0.4,0,0.7-0.2,0.8-0.6l29-81.7
	c0.1-0.3,0.1-0.6-0.1-0.8C412.6,39.3,412.4,39.2,412.1,39.2"/>
<path class="st3" d="M489.7,44.9c-2.3-2.3-4.9-4-7.9-5.3c-3-1.3-6.3-1.9-9.7-1.9h-6.5c-3.4,0-6.7,0.7-9.7,1.9
	c-3,1.3-5.7,3.1-7.9,5.3c-2.2,2.3-4,4.9-5.3,7.9c-1.3,3-1.9,6.3-1.9,9.7v36.9c0,3.4,0.7,6.7,1.9,9.7c1.3,3,3.1,5.7,5.3,7.9
	c2.3,2.3,4.9,4,7.9,5.3c3,1.3,6.3,1.9,9.7,1.9h6.5c3.4,0,6.7-0.7,9.7-1.9c3-1.3,5.7-3.1,7.9-5.3c2.3-2.3,4.1-4.9,5.3-7.9
	c1.3-3,1.9-6.3,1.9-9.7V62.5c0-3.4-0.7-6.7-1.9-9.7C493.7,49.8,491.9,47.1,489.7,44.9 M452.2,100V62c0-1.8,0.4-3.6,1-5.2
	c0.7-1.6,1.6-3,2.8-4.2c1.2-1.2,2.6-2.1,4.2-2.8c1.6-0.7,3.4-1,5.2-1h6.5c1.8,0,3.6,0.4,5.2,1c1.6,0.7,3,1.7,4.2,2.8
	c1.2,1.2,2.1,2.6,2.8,4.2c0.7,1.6,1,3.4,1,5.2v38c0,1.8-0.3,3.6-1,5.2c-0.7,1.6-1.7,3-2.8,4.2c-1.2,1.2-2.6,2.1-4.2,2.8
	c-1.6,0.7-3.4,1-5.2,1h-6.5c-1.8,0-3.6-0.4-5.2-1c-1.6-0.7-3-1.7-4.2-2.8c-1.2-1.2-2.1-2.6-2.8-4.2
	C452.5,103.6,452.2,101.8,452.2,100"/>
<path class="st3" d="M588.8,90.9c-1.3-2.7-3.1-5.1-5.3-6.9c-2.2-1.8-4.7-3.3-7.4-4.4c-2.7-1.1-5.5-2.1-8.3-3
	c-2.8-0.9-5.5-1.7-8.2-2.6c-2.6-0.8-5-1.8-7-3c-2-1.2-3.6-2.6-4.8-4.3c-1.2-1.6-1.7-3.8-1.7-6.4c0-1.8,0.3-3.5,1-4.9
	c0.7-1.4,1.6-2.7,2.8-3.7c1.2-1,2.6-1.8,4.2-2.3c1.6-0.6,3.4-0.8,5.3-0.8h5.7c1.8,0,3.6,0.4,5.2,1c1.6,0.7,3,1.7,4.2,2.8
	c1.2,1.2,2.1,2.6,2.8,4.2c0.7,1.6,1,3.4,1,5.2v0.4c0,0.5,0.4,0.9,0.9,0.9h9.8c0.2,0,0.5-0.1,0.6-0.3c0.2-0.2,0.3-0.4,0.3-0.6
	c0-3.4-0.7-6.6-1.9-9.6c-1.3-3-3.1-5.7-5.3-7.9c-2.3-2.3-4.9-4-7.9-5.3c-3-1.3-6.3-1.9-9.7-1.9h-5.7c-3.4,0-6.6,0.6-9.6,1.7
	c-3,1.1-5.7,2.7-7.9,4.8c-2.3,2-4.1,4.5-5.4,7.4c-1.3,2.8-2,6-2,9.4c0,4,0.7,7.4,2,10.1c1.3,2.7,3.1,5,5.3,6.8
	c2.2,1.8,4.7,3.2,7.4,4.3c2.7,1.1,5.5,2,8.3,2.9c2.8,0.8,5.6,1.6,8.3,2.5c2.6,0.8,5,1.8,7,3c2,1.2,3.6,2.7,4.8,4.4
	c1.2,1.7,1.8,3.9,1.8,6.7c0,1.8-0.4,3.4-1.1,4.8c-0.8,1.4-1.8,2.7-3.1,3.7c-1.3,1-2.9,1.8-4.6,2.4c-1.7,0.6-3.5,0.8-5.4,0.8h-6.5
	c-1.8,0-3.6-0.4-5.3-1.1c-1.7-0.7-3.2-1.7-4.5-2.9c-1.3-1.2-2.3-2.6-3.1-4.2c-0.8-1.6-1.1-3.3-1.1-5.2v-3.8c0-0.5-0.4-0.9-0.9-0.9
	h-9.8c-0.5,0-0.9,0.4-0.9,0.9v3.2c0,3.4,0.7,6.7,2.1,9.7c1.4,3,3.3,5.7,5.6,7.9c2.3,2.3,5.1,4,8.2,5.3c3.1,1.3,6.4,1.9,9.8,1.9h6.5
	c3.4,0,6.7-0.6,9.8-1.7c3.1-1.1,5.9-2.7,8.2-4.8c2.4-2,4.3-4.5,5.7-7.4c1.4-2.9,2.1-6,2.1-9.5C590.8,97.1,590.1,93.7,588.8,90.9"/>
</svg>
