<?xml version="1.0" encoding="utf-8"?>
<!-- Generator: Adobe Illustrator 21.0.0, SVG Export Plug-In . SVG Version: 6.00 Build 0)  -->
<svg version="1.1" id="Layer_1" xmlns="http://www.w3.org/2000/svg" xmlns:xlink="http://www.w3.org/1999/xlink" x="0px" y="0px"
	 viewBox="0 0 94.4 103.8" style="enable-background:new 0 0 94.4 103.8;" xml:space="preserve">
<style type="text/css">
	.st0{fill-rule:evenodd;clip-rule:evenodd;fill:#7F7B75;}
</style>
<path class="st0" d="M94.2,50.3c-0.2-0.4-0.4-0.7-0.6-1.1c-0.4-0.5-0.9-1-1.3-1.5c-0.5-0.7-1-1.4-1.5-2.1c-0.7-1-1.4-1.9-2.1-2.9
	c-0.5-0.7-1-1.4-1.5-2.1c-0.2-0.2-0.3-0.5-0.5-0.8c-0.3-0.5-0.4-1.1-0.4-1.8c0-0.3,0-0.6,0.1-0.9c0-0.3,0.1-0.6,0.1-0.8
	c0-0.3,0.2-0.6,0.3-0.8c0.1-0.1,0.2-0.3,0.3-0.4c0.3-0.5,0.3-1.1,0.1-1.7C87,32.9,87,32.5,87,32c0-0.4,0-0.8-0.1-1.2
	c-0.2-1.3-0.6-2.4-1.2-3.5c0-0.1-0.1-0.1-0.1-0.2c-0.6-1.4-1.2-2.8-1.9-4.2c-0.4-1-0.9-1.9-1.3-2.9c-0.4-0.8-0.9-1.6-1.4-2.4
	c-0.4-0.9-0.7-1.8-1.1-2.6c0.1-0.4,0.1-0.9,0-1.3c0-0.1,0-0.1,0-0.2c0.3-0.2,0.5-0.4,0.6-0.6c0.2-0.4,0.3-0.8,0.3-1.2
	c0-0.4-0.1-0.6-0.2-0.9c0-0.1,0-0.3,0-0.4c0.1-0.9-0.1-1.8-0.6-2.6c-0.1-0.2-0.3-0.4-0.5-0.6c0-0.1,0-0.2-0.1-0.3
	c-0.1-0.3-0.3-0.7-0.5-0.9c0,0-0.3-0.2-0.4-0.3C78,5.5,78,5.5,77.5,5.5c0,0-0.1,0-0.1,0c0,0,0-0.1,0-0.1c0-0.5-0.2-0.9-0.5-1.3
	c-0.3-0.3-0.7-0.5-1.1-0.5c-0.4-0.7-1.3-1.2-2-0.9c0,0,0,0-0.1,0c-0.1-0.1-0.1-0.2-0.2-0.3c-0.5-0.5-1.3-0.6-1.9-0.4
	c-0.4-0.5-1.1-0.7-1.8-0.5c-0.2,0.1-0.4,0.1-0.6,0.2c0-0.1-0.1-0.2-0.1-0.2c-0.3-0.5-0.8-0.8-1.3-1c-0.5-0.2-1-0.1-1.5,0.1
	c-1.2-0.2-2.4,0-3.5,0.4c-0.7-0.3-1.4-0.4-2.2-0.2c-0.2-0.2-0.5-0.4-0.8-0.5c-1.1-0.4-2.4-0.3-3.4,0.3c-0.4-0.1-0.8,0-1.2,0.2
	c-0.3,0.2-0.7,0.4-1,0.6c-1-0.1-2,0.1-2.9,0.6C51.2,2,51.1,2,51,2.1c-1.3-0.5-3-0.4-4.2,0.5c-1,0-2,0.1-3,0.3
	c-0.3,0.1-0.6,0.2-0.8,0.4C42,3.3,40.9,3.6,40,4.3c-1.5-0.2-2.9,0.1-4,1.2C34.5,5.5,33,6,32,7c-1.7,0.2-3.4,1.6-4.5,2.8
	c-0.1,0.1-0.1,0.2-0.2,0.3c-0.4,0.4-0.6,1-0.7,1.6c0,0.1,0,0.1,0,0.2c-1.6,0.2-2.8,1.4-3.3,2.9c0,0,0,0,0,0
	c-0.3,0.3-0.6,0.6-0.8,1.1c-0.1,0.2-0.1,0.3-0.2,0.5c-1.6,0.6-2.1,2.5-1.8,4.2c-0.6,0.7-1,1.6-1.1,2.6c0,0.1,0,0.2,0,0.3
	c-0.7,1.2-0.9,2.9-0.6,4.4c-1.8,1-1.8,3.1-1,4.9c-0.7,1.1-0.8,2.4-0.6,3.7c0.1,0.7,0.5,1.3,0.9,1.8c0.2,1,0.8,2.1,1.5,3
	c-0.1,1.3,0.3,2.6,0.9,3.7c-0.5,1.5-0.2,3.3,0.6,4.7c0,2.1,1,4.5,2.6,5.8c0,0,0.1,0.1,0.1,0.1c0,1,0.2,2,0.6,2.9
	c-0.1,1.6,0.5,3.2,1.4,4.6c0,0.1-0.1,0.3-0.1,0.4c0,1.1,0.4,2.1,1,2.9c-0.7,1.4,0.1,2.8,1,3.9c0,0.2,0,0.4,0,0.6
	c0,1.4-0.2,2.7-0.6,4c-0.1,0.1-0.1,0.1-0.2,0.2c-0.6,0.7-1.2,1.4-1.8,2c-0.4,0.4-0.9,0.8-1.3,1.2c-0.3,0.3-0.6,0.6-0.8,0.9
	c0,0,0,0.1-0.1,0.1c-0.5,0.4-0.9,0.9-1.3,1.3c-0.3,0.3-0.7,0.6-0.9,1c0,0.1-0.1,0.1-0.1,0.1c-0.1,0.1-0.2,0.1-0.2,0.2
	c-0.7,0.7-1.4,1.2-2.1,1.8c-0.8,0.7-1.7,1.3-2.4,2c0,0-0.1,0.1-0.1,0.1c-1.1,0.8-2,1.8-3,2.7c-0.8,0.7-1.5,1.4-2.3,2.1
	c0,0-10.3,6.7-10.6,13.4h57.1c0,0,0,0,0,0h11.6c-7.3-0.7-5-8-5-8c0.6-0.6,1.2-1.3,1.9-1.8c0.2-0.2,0.5-0.4,0.7-0.6
	c0.5-0.4,0.9-1,1.2-1.6c0.5-1,0.8-2,1.1-3.1c0,0,0-0.1,0-0.1c0.2-0.5,0.3-1.1,0.5-1.6c0.3-0.8,0.7-1.6,1.2-2.3
	c0.2-0.3,0.4-0.5,0.6-0.7c0,0,0.1-0.1,0.1-0.1c0.1-0.3,0.3-0.4,0.4-0.5c0.4-0.3,0.7-0.6,1.1-0.8c0.3-0.2,0.6-0.3,0.9-0.5
	c0.4-0.2,0.9-0.3,1.3-0.4c0.5-0.1,1.1-0.2,1.6-0.3c0.1,0,0.2,0,0.3,0c0.5,0,0.9-0.2,1.4-0.3c0.6-0.1,1.2-0.3,1.8-0.4
	c0.3,0,0.6-0.1,1-0.2c0.9-0.2,1.9-0.4,2.8-0.6c0.4-0.1,0.7-0.2,1.1-0.2c0.1,0,0.2-0.1,0.3-0.1c0.5-0.2,1-0.4,1.5-0.7
	c0.5-0.2,0.8-0.6,1.2-0.9c0.2-0.2,0.4-0.3,0.5-0.6c0.2-0.3,0.5-0.6,0.6-1c0.3-0.5,0.4-1.1,0.5-1.6c0-0.5,0-0.9,0-1.4
	c0-0.2,0-0.4,0-0.6c0-0.1,0-0.2,0-0.2c0-0.1-0.1-0.2-0.1-0.3c-0.1-0.5-0.2-1-0.3-1.5c-0.1-0.4-0.3-0.8-0.4-1.2
	c0-0.1-0.1-0.1-0.1-0.2c-0.4-0.6-0.4-1.3-0.1-2c0-0.1,0.1-0.1,0.1-0.2c0.1-0.1,0.2-0.2,0.3-0.3c0.2-0.3,0.6-0.4,0.8-0.7
	c0.2-0.3,0.4-0.5,0.7-0.7c0.3-0.3,0.4-0.7,0.3-1.1c-0.2-0.6-0.5-1.1-1-1.5c-0.1-0.1-0.2-0.2-0.3-0.3c0.1-0.1,0.1-0.2,0.2-0.2
	c0.7-0.6,1-1.6,0.7-2.5c-0.1-0.2-0.1-0.3-0.2-0.5c-0.1-0.3-0.2-0.6-0.2-0.9c0-0.5,0-1-0.1-1.4c0-0.3,0-0.6,0-0.9
	c0-0.2-0.1-0.4,0-0.6c0,0,0-0.1,0-0.1c0.3-0.3,0.7-0.4,1.1-0.5c0.3-0.1,0.7-0.2,1-0.2c0.6-0.2,1.1-0.4,1.6-0.8
	c0.4-0.3,0.7-0.7,0.9-1.2C94.4,51.6,94.4,51,94.2,50.3z"/>
</svg>
