<?xml version="1.0" encoding="utf-8"?>
<!-- Generator: Adobe Illustrator 21.0.2, SVG Export Plug-In . SVG Version: 6.00 Build 0)  -->
<svg version="1.1" id="Layer_1" xmlns="http://www.w3.org/2000/svg" xmlns:xlink="http://www.w3.org/1999/xlink" x="0px" y="0px"
	 viewBox="0 0 200.5 50.1" style="enable-background:new 0 0 200.5 50.1;" xml:space="preserve">
<style type="text/css">
	.st0{fill:#8faaa0;}
	.st1{fill:#abc27d;}
	.st2{fill:#e4bf44;}
	.st3{fill:#ffffff;}
</style>
<path class="st0" d="M49.7,2.1L49.7,2.1c-6.4-4-14.8-2.1-18.8,4.3l-1.2,1.9l12.2,19.4c1.7,2.6,2.5,5.5,2.5,8.4L54,20.9
	C58,14.6,56.1,6.1,49.7,2.1z"/>
<path class="st1" d="M14.2,27.6L26.4,8.2l-1.2-1.9C21.2,0,12.7-1.9,6.4,2.1l0,0C0,6.1-1.9,14.6,2.1,20.9l9.5,15.1
	C11.7,33.1,12.5,30.2,14.2,27.6z"/>
<g>
	<path class="st2" d="M35.3,48c6.4-4,8.3-12.5,4.3-18.8L28,10.9L16.5,29.1c-4,6.4-2.1,14.8,4.3,18.8l0,0c1.4,0.9,2.9,1.5,4.4,1.8
		c0,0,0,0,0,0c0.2,0,0.4,0.1,0.6,0.1c0.1,0,0.1,0,0.2,0c0.2,0,0.3,0,0.5,0.1c0.1,0,0.2,0,0.3,0c0.1,0,0.3,0,0.4,0c0.1,0,0.2,0,0.3,0
		c0.1,0,0.2,0,0.3,0c0.1,0,0.2,0,0.3,0c0.1,0,0.2,0,0.3,0c0.1,0,0.2,0,0.3,0c0.1,0,0.2,0,0.3,0c0.1,0,0.3,0,0.4,0c0.1,0,0.2,0,0.3,0
		c0.2,0,0.3,0,0.5-0.1c0.1,0,0.1,0,0.2,0c0.2,0,0.4-0.1,0.6-0.1c0,0,0,0,0,0C32.4,49.4,33.9,48.8,35.3,48L35.3,48z"/>
</g>
<g>
	<path class="st3" d="M197.1,15.8v-2h-0.7v-0.3h1.8v0.3h-0.7v2H197.1z"/>
	<path class="st3" d="M198.4,15.8v-2.2h0.4l0.5,1.6c0,0.1,0.1,0.3,0.1,0.3c0-0.1,0.1-0.2,0.1-0.4l0.5-1.5h0.4v2.2h-0.3V14l-0.6,1.9
		h-0.3l-0.6-1.9v1.9H198.4z"/>
</g>
<g>
	<path class="st3" d="M91.1,13h-3.3c-0.1,0-0.2,0.1-0.3,0.2l-6.9,20.1l-6.9-20.1c0-0.1-0.2-0.2-0.3-0.2h-3.3c-0.1,0-0.2,0-0.2,0.1
		c-0.1,0.1-0.1,0.2,0,0.3l9.6,27.2c0,0.1,0.2,0.2,0.3,0.2h1.6c0.1,0,0.2-0.1,0.3-0.2l9.6-27.2c0-0.1,0-0.2,0-0.3
		C91.3,13.1,91.2,13,91.1,13z"/>
	<path class="st3" d="M105.3,13H102c-0.2,0-0.3,0.1-0.3,0.3v27.2c0,0.2,0.1,0.3,0.3,0.3h3.3c0.2,0,0.3-0.1,0.3-0.3V13.3
		C105.6,13.2,105.4,13,105.3,13z"/>
	<path class="st3" d="M137,13h-3.3c-0.1,0-0.2,0.1-0.3,0.2l-6.9,20.1l-6.9-20.1c0-0.1-0.2-0.2-0.3-0.2h-3.3c-0.1,0-0.2,0-0.2,0.1
		c-0.1,0.1-0.1,0.2,0,0.3l9.6,27.2c0,0.1,0.2,0.2,0.3,0.2h1.6c0.1,0,0.2-0.1,0.3-0.2l9.6-27.2c0-0.1,0-0.2,0-0.3
		C137.2,13.1,137.1,13,137,13z"/>
	<path class="st3" d="M162.8,14.9c-0.7-0.7-1.6-1.3-2.6-1.8c-1-0.4-2.1-0.6-3.2-0.6h-2.2c-1.1,0-2.2,0.2-3.2,0.6
		c-1,0.4-1.9,1-2.6,1.8c-0.7,0.7-1.3,1.6-1.8,2.6c-0.4,1-0.6,2.1-0.6,3.2V33c0,1.1,0.2,2.2,0.6,3.2c0.4,1,1,1.9,1.8,2.6
		c0.7,0.7,1.6,1.3,2.6,1.8c1,0.4,2.1,0.6,3.2,0.6h2.2c1.1,0,2.2-0.2,3.2-0.6c1-0.4,1.9-1,2.6-1.8c0.7-0.7,1.3-1.6,1.8-2.6
		c0.4-1,0.6-2.1,0.6-3.2V20.8c0-1.1-0.2-2.2-0.6-3.2C164.1,16.6,163.6,15.7,162.8,14.9z M150.3,33.2V20.6c0-0.6,0.1-1.2,0.3-1.7
		c0.2-0.5,0.5-1,0.9-1.4c0.4-0.4,0.9-0.7,1.4-0.9c0.5-0.2,1.1-0.3,1.7-0.3h2.2c0.6,0,1.2,0.1,1.7,0.3c0.5,0.2,1,0.5,1.4,0.9
		c0.4,0.4,0.7,0.9,0.9,1.4c0.2,0.5,0.3,1.1,0.3,1.7v12.6c0,0.6-0.1,1.2-0.3,1.7c-0.2,0.5-0.6,1-0.9,1.4c-0.4,0.4-0.9,0.7-1.4,0.9
		c-0.5,0.2-1.1,0.3-1.7,0.3h-2.2c-0.6,0-1.2-0.1-1.7-0.3c-0.5-0.2-1-0.5-1.4-0.9c-0.4-0.4-0.7-0.9-0.9-1.4
		C150.5,34.4,150.3,33.8,150.3,33.2z"/>
	<path class="st3" d="M195.7,30.2c-0.4-0.9-1-1.7-1.8-2.3c-0.7-0.6-1.5-1.1-2.5-1.5c-0.9-0.4-1.8-0.7-2.8-1
		c-0.9-0.3-1.8-0.6-2.7-0.9c-0.9-0.3-1.6-0.6-2.3-1c-0.7-0.4-1.2-0.9-1.6-1.4c-0.4-0.5-0.6-1.3-0.6-2.1c0-0.6,0.1-1.2,0.3-1.6
		c0.2-0.5,0.5-0.9,0.9-1.2c0.4-0.3,0.9-0.6,1.4-0.8c0.5-0.2,1.1-0.3,1.7-0.3h1.9c0.6,0,1.2,0.1,1.7,0.3c0.5,0.2,1,0.5,1.4,0.9
		c0.4,0.4,0.7,0.9,0.9,1.4c0.2,0.5,0.3,1.1,0.3,1.7v0.1c0,0.2,0.1,0.3,0.3,0.3h3.3c0.1,0,0.2,0,0.2-0.1c0.1-0.1,0.1-0.1,0.1-0.2
		c0-1.1-0.2-2.2-0.6-3.2c-0.4-1-1-1.9-1.8-2.6c-0.8-0.7-1.6-1.3-2.6-1.8c-1-0.4-2.1-0.6-3.2-0.6H186c-1.1,0-2.2,0.2-3.2,0.6
		c-1,0.4-1.9,0.9-2.6,1.6c-0.8,0.7-1.4,1.5-1.8,2.4c-0.4,0.9-0.7,2-0.7,3.1c0,1.3,0.2,2.5,0.7,3.4c0.4,0.9,1,1.7,1.8,2.3
		c0.7,0.6,1.5,1.1,2.5,1.4c0.9,0.4,1.8,0.7,2.8,1c0.9,0.3,1.9,0.5,2.7,0.8c0.9,0.3,1.6,0.6,2.3,1c0.7,0.4,1.2,0.9,1.6,1.5
		c0.4,0.6,0.6,1.3,0.6,2.2c0,0.6-0.1,1.1-0.4,1.6c-0.3,0.5-0.6,0.9-1,1.2c-0.4,0.3-0.9,0.6-1.5,0.8c-0.6,0.2-1.2,0.3-1.8,0.3h-2.2
		c-0.6,0-1.2-0.1-1.8-0.3c-0.6-0.2-1.1-0.6-1.5-1c-0.4-0.4-0.8-0.9-1-1.4c-0.3-0.5-0.4-1.1-0.4-1.7V32c0-0.2-0.1-0.3-0.3-0.3h-3.3
		c-0.2,0-0.3,0.1-0.3,0.3V33c0,1.1,0.2,2.2,0.7,3.2c0.5,1,1.1,1.9,1.9,2.6c0.8,0.7,1.7,1.3,2.7,1.8c1,0.4,2.1,0.6,3.3,0.6h2.2
		c1.1,0,2.2-0.2,3.2-0.6c1-0.4,1.9-0.9,2.7-1.6c0.8-0.7,1.4-1.5,1.9-2.4c0.5-0.9,0.7-2,0.7-3.1C196.4,32.3,196.2,31.1,195.7,30.2z"
		/>
</g>
</svg>
